SplineFontDB: 3.0
FontName: AlmendraSC-Regular
FullName: Almendra SC
FamilyName: Almendra SC
Weight: Book
Copyright: Copyright (c) 2011-2012, Ana Sanfelippo (anasanfe@gmail.com), with Reserved Font Name 'Almendra'
Version: 1.003
ItalicAngle: 0
UnderlinePosition: -50
UnderlineWidth: 50
Ascent: 800
Descent: 200
sfntRevision: 0x000100c5
LayerCount: 2
Layer: 0 1 "Back"  1
Layer: 1 1 "Fore"  0
XUID: [1021 645 1550686008 11867180]
FSType: 0
OS2Version: 3
OS2_WeightWidthSlopeOnly: 0
OS2_UseTypoMetrics: 1
CreationTime: 1273876560
ModificationTime: 1352734880
PfmFamily: 17
TTFWeight: 400
TTFWidth: 5
LineGap: 0
VLineGap: 0
Panose: 2 0 0 0 0 0 0 0 0 0
OS2TypoAscent: 951
OS2TypoAOffset: 0
OS2TypoDescent: -345
OS2TypoDOffset: 0
OS2TypoLinegap: 0
OS2WinAscent: 951
OS2WinAOffset: 0
OS2WinDescent: 345
OS2WinDOffset: 0
HheadAscent: 951
HheadAOffset: 0
HheadDescent: -345
HheadDOffset: 0
OS2SubXSize: 650
OS2SubYSize: 600
OS2SubXOff: 0
OS2SubYOff: 75
OS2SupXSize: 650
OS2SupYSize: 600
OS2SupXOff: 0
OS2SupYOff: 350
OS2StrikeYSize: 50
OS2StrikeYPos: 318
OS2Vendor: 'pyrs'
OS2CodePages: 20000001.00000000
OS2UnicodeRanges: 8000006f.00000002.00000000.00000000
DEI: 91125
TtTable: prep
PUSHW_1
 511
SCANCTRL
PUSHB_1
 4
SCANTYPE
EndTTInstrs
ShortTable: maxp 16
  1
  0
  247
  104
  4
  0
  0
  2
  0
  1
  1
  0
  64
  0
  0
  0
EndShort
LangName: 1033 "" "" "" "AnaSanfelippo: Almendra SC: 2011" "" "Version 1.003" "" "Almendra is a trademark of Ana Sanfelippo." "Ana Sanfelippo" "Ana Sanfelippo" "" "" "www.anasanfelippo.com.ar" "This Font Software is licensed under the SIL Open Font License, Version 1.1. This license is available with a FAQ at: http://scripts.sil.org/OFL" "http://scripts.sil.org/OFL" 
GaspTable: 1 65535 15 1
Encoding: UnicodeBmp
UnicodeInterp: none
NameList: AGL For New Fonts
DisplaySize: -24
AntiAlias: 1
FitToEm: 1
BeginChars: 65549 247

StartChar: exclam
Encoding: 33 33 4
Width: 226
GlyphClass: 2
Flags: W
LayerCount: 2
Fore
SplineSet
160 46 m 1,0,1
 153 33 153 33 135.5 13 c 128,-1,2
 118 -7 118 -7 106 -15 c 1,3,4
 94 -7 94 -7 76.5 13 c 128,-1,5
 59 33 59 33 52 46 c 1,6,7
 58 58 58 58 75 73.5 c 128,-1,8
 92 89 92 89 106 96 c 1,9,10
 119 88 119 88 136 72.5 c 128,-1,11
 153 57 153 57 160 46 c 1,0,1
72 679 m 1,12,13
 84 685 84 685 108 690.5 c 128,-1,14
 132 696 132 696 139.5 696 c 128,-1,15
 147 696 147 696 149 696 c 1,16,17
 160 686 160 686 181 656 c 1,18,19
 134 489 134 489 119 182 c 1,20,-1
 93 180 l 1,21,-1
 72 679 l 1,12,13
EndSplineSet
EndChar

StartChar: quotedbl
Encoding: 34 34 5
Width: 315
GlyphClass: 2
Flags: W
LayerCount: 2
Fore
SplineSet
63 649 m 1,0,1
 75 655 75 655 99 660.5 c 128,-1,2
 123 666 123 666 130.5 666 c 128,-1,3
 138 666 138 666 140 666 c 1,4,-1
 152 653 l 1,5,6
 121 573 121 573 106 434 c 1,7,-1
 76 432 l 1,8,-1
 63 649 l 1,0,1
198 649 m 1,9,10
 210 655 210 655 234 660.5 c 128,-1,11
 258 666 258 666 265.5 666 c 128,-1,12
 273 666 273 666 275 666 c 1,13,-1
 287 653 l 1,14,15
 256 573 256 573 241 434 c 1,16,-1
 211 432 l 1,17,-1
 198 649 l 1,9,10
EndSplineSet
EndChar

StartChar: numbersign
Encoding: 35 35 6
Width: 550
GlyphClass: 2
Flags: W
LayerCount: 2
Fore
SplineSet
380 371 m 1,0,1
 447 370 447 370 471 370 c 128,-1,2
 495 370 495 370 503 370 c 1,3,-1
 510 364 l 1,4,-1
 500 316 l 1,5,-1
 373 319 l 1,6,-1
 358 188 l 1,7,8
 422 187 422 187 445.5 187 c 128,-1,9
 469 187 469 187 476 187 c 1,10,-1
 483 182 l 1,11,-1
 473 133 l 1,12,-1
 352 136 l 1,13,-1
 325 -92 l 1,14,-1
 320 -92 l 1,15,16
 296 -87 296 -87 279 -71 c 1,17,18
 297 28 297 28 310 137 c 1,19,-1
 202 140 l 1,20,-1
 175 -92 l 1,21,-1
 170 -92 l 1,22,23
 146 -87 146 -87 129 -71 c 1,24,25
 147 28 147 28 160 137 c 1,26,-1
 160 141 l 1,27,-1
 48 144 l 1,28,-1
 40 151 l 1,29,-1
 50 203 l 1,30,-1
 96 199 l 2,31,32
 114 197 114 197 167 195 c 1,33,-1
 183 324 l 1,34,-1
 75 327 l 1,35,-1
 67 333 l 1,36,-1
 77 386 l 1,37,-1
 122 382 l 2,38,39
 138 380 138 380 189 378 c 1,40,-1
 215 587 l 1,41,42
 234 587 234 587 259 592 c 1,43,-1
 263 589 l 1,44,45
 242 477 242 477 230 376 c 1,46,47
 263 374 263 374 339 372 c 1,48,-1
 365 587 l 1,49,50
 384 587 384 587 409 592 c 1,51,-1
 413 589 l 1,52,53
 392 476 392 476 380 372 c 1,54,-1
 380 371 l 1,0,1
208 193 m 1,55,56
 240 191 240 191 316 189 c 1,57,-1
 332 320 l 1,58,-1
 224 323 l 1,59,-1
 208 193 l 1,55,56
EndSplineSet
EndChar

StartChar: dollar
Encoding: 36 36 7
Width: 450
GlyphClass: 2
Flags: W
LayerCount: 2
Fore
SplineSet
93 342 m 0,0,1
 93 385 93 385 134.5 433 c 128,-1,2
 176 481 176 481 236 511 c 1,3,-1
 239 588 l 1,4,5
 255 590 255 590 266 594 c 1,6,-1
 270 591 l 1,7,8
 264 556 264 556 263 523 c 1,9,10
 339 523 339 523 402 507 c 1,11,-1
 402 493 l 1,12,13
 365 447 365 447 359 380 c 1,14,-1
 337 380 l 1,15,16
 337 420 337 420 334 443 c 1,17,18
 296 457 296 457 260 458 c 1,19,-1
 254 311 l 1,20,21
 356 252 356 252 378 220 c 0,22,23
 388 205 388 205 388 189 c 0,24,25
 388 137 388 137 344.5 84 c 128,-1,26
 301 31 301 31 234 -2 c 1,27,-1
 233 -92 l 1,28,-1
 228 -92 l 1,29,30
 211 -87 211 -87 201 -77 c 1,31,-1
 206 -15 l 1,32,33
 127 -15 127 -15 55 11 c 1,34,-1
 55 24 l 1,35,36
 92 70 92 70 98 136 c 1,37,-1
 120 136 l 1,38,39
 120 97 120 97 122 75 c 1,40,41
 163 53 163 53 209 50 c 1,42,-1
 218 224 l 1,43,44
 179 247 179 247 156.5 262 c 128,-1,45
 134 277 134 277 113.5 299.5 c 128,-1,46
 93 322 93 322 93 342 c 0,0,1
328 132 m 0,47,48
 328 159 328 159 243 209 c 1,49,-1
 236 50 l 1,50,51
 275 54 275 54 301.5 73.5 c 128,-1,52
 328 93 328 93 328 132 c 0,47,48
153 399 m 0,53,54
 153 373 153 373 229 326 c 1,55,-1
 234 457 l 1,56,57
 153 448 153 448 153 399 c 0,53,54
EndSplineSet
EndChar

StartChar: percent
Encoding: 37 37 8
Width: 744
GlyphClass: 2
Flags: W
LayerCount: 2
Fore
SplineSet
178 570 m 0,0,1
 200 570 200 570 292 555 c 128,-1,2
 384 540 384 540 450 540 c 128,-1,3
 516 540 516 540 539 578 c 2,4,-1
 545 588 l 1,5,6
 583 590 583 590 610 598 c 1,7,-1
 613 595 l 1,8,9
 545 498 545 498 468 378 c 2,10,-1
 163 -100 l 1,11,-1
 158 -100 l 1,12,13
 132 -88 132 -88 119 -68 c 1,14,15
 220 69 220 69 241 102 c 2,16,-1
 416 376 l 1,17,18
 464 448 464 448 510 527 c 1,19,-1
 506 528 l 1,20,21
 482 503 482 503 430 503 c 128,-1,22
 378 503 378 503 260 539 c 1,23,-1
 257 536 l 1,24,25
 304 492 304 492 319 408 c 1,26,27
 305 320 305 320 262 273.5 c 128,-1,28
 219 227 219 227 174.5 227 c 128,-1,29
 130 227 130 227 89 269.5 c 128,-1,30
 48 312 48 312 34 389 c 1,31,32
 48 477 48 477 92 523.5 c 128,-1,33
 136 570 136 570 178 570 c 0,0,1
483 281.5 m 128,-1,35
 527 328 527 328 571.5 328 c 128,-1,36
 616 328 616 328 656 285.5 c 128,-1,37
 696 243 696 243 710 166 c 1,38,39
 696 78 696 78 653 31.5 c 128,-1,40
 610 -15 610 -15 565.5 -15 c 128,-1,41
 521 -15 521 -15 480 27.5 c 128,-1,42
 439 70 439 70 425 147 c 1,43,34
 439 235 439 235 483 281.5 c 128,-1,35
249 399 m 128,-1,45
 249 445 249 445 230 486.5 c 128,-1,46
 211 528 211 528 178 540 c 1,47,48
 146 528 146 528 126 486 c 128,-1,49
 106 444 106 444 106 399 c 128,-1,50
 106 354 106 354 126 312 c 128,-1,51
 146 270 146 270 178 258 c 1,52,53
 211 270 211 270 230 311.5 c 128,-1,44
 249 353 249 353 249 399 c 128,-1,45
640 157 m 128,-1,55
 640 203 640 203 621 244.5 c 128,-1,56
 602 286 602 286 569 298 c 1,57,58
 537 286 537 286 517 244 c 128,-1,59
 497 202 497 202 497 157 c 128,-1,60
 497 112 497 112 517 70 c 128,-1,61
 537 28 537 28 569 16 c 1,62,63
 602 28 602 28 621 69.5 c 128,-1,54
 640 111 640 111 640 157 c 128,-1,55
EndSplineSet
EndChar

StartChar: ampersand
Encoding: 38 38 9
Width: 602
GlyphClass: 2
Flags: W
LayerCount: 2
Fore
SplineSet
394 566 m 1,0,1
 346 594 346 594 280 594 c 128,-1,2
 214 594 214 594 173 560 c 1,3,4
 172 546 172 546 172 534 c 0,5,6
 172 460 172 460 210.5 418 c 128,-1,7
 249 376 249 376 343 376 c 0,8,9
 483 376 483 376 596 408 c 1,10,-1
 601 403 l 1,11,12
 591 371 591 371 588 329 c 1,13,-1
 585 325 l 1,14,15
 539 331 539 331 482 333 c 1,16,-1
 482 183 l 2,17,18
 482 122 482 122 424.5 64.5 c 128,-1,19
 367 7 367 7 299 -15 c 1,20,21
 192 -15 192 -15 121 37 c 128,-1,22
 50 89 50 89 50 185 c 0,23,24
 50 254 50 254 108 300 c 128,-1,25
 166 346 166 346 240 346 c 1,26,-1
 240 350 l 1,27,28
 172 354 172 354 126.5 388 c 128,-1,29
 81 422 81 422 81 482 c 1,30,31
 117 546 117 546 176.5 597 c 128,-1,32
 236 648 236 648 304 666 c 1,33,34
 375 666 375 666 444 647 c 1,35,36
 460 655 460 655 485 678 c 1,37,-1
 506 664 l 1,38,39
 440 584 440 584 425 473 c 1,40,-1
 399 473 l 1,41,42
 399 528 399 528 394 566 c 1,0,1
414 126 m 0,43,44
 414 233 414 233 400 333 c 1,45,-1
 326 333 l 2,46,47
 247 333 247 333 195.5 302.5 c 128,-1,48
 144 272 144 272 144 202.5 c 128,-1,49
 144 133 144 133 192 94.5 c 128,-1,50
 240 56 240 56 305 56 c 128,-1,51
 370 56 370 56 407 80 c 1,52,53
 414 94 414 94 414 126 c 0,43,44
EndSplineSet
EndChar

StartChar: quotesingle
Encoding: 39 39 10
Width: 180
GlyphClass: 2
Flags: W
LayerCount: 2
Fore
SplineSet
63 649 m 1,0,1
 75 655 75 655 99 660.5 c 128,-1,2
 123 666 123 666 130.5 666 c 128,-1,3
 138 666 138 666 140 666 c 1,4,-1
 152 653 l 1,5,6
 121 573 121 573 106 434 c 1,7,-1
 76 432 l 1,8,-1
 63 649 l 1,0,1
EndSplineSet
EndChar

StartChar: parenleft
Encoding: 40 40 11
Width: 297
GlyphClass: 2
Flags: W
LayerCount: 2
Fore
SplineSet
102 -6.5 m 128,-1,1
 48 122 48 122 48 259.5 c 128,-1,2
 48 397 48 397 101 513.5 c 128,-1,3
 154 630 154 630 250 711 c 1,4,-1
 260 701 l 1,5,6
 120 510 120 510 120 262 c 0,7,8
 120 135 120 135 156 11.5 c 128,-1,9
 192 -112 192 -112 260 -205 c 1,10,-1
 250 -215 l 1,11,0
 156 -135 156 -135 102 -6.5 c 128,-1,1
EndSplineSet
EndChar

StartChar: parenright
Encoding: 41 41 12
Width: 297
GlyphClass: 2
Flags: W
LayerCount: 2
Fore
SplineSet
196 513.5 m 128,-1,1
 249 397 249 397 249 259.5 c 128,-1,2
 249 122 249 122 195 -6.5 c 128,-1,3
 141 -135 141 -135 47 -215 c 1,4,-1
 37 -205 l 1,5,6
 105 -112 105 -112 141 11.5 c 128,-1,7
 177 135 177 135 177 262 c 0,8,9
 177 510 177 510 37 701 c 1,10,-1
 47 711 l 1,11,0
 143 630 143 630 196 513.5 c 128,-1,1
EndSplineSet
EndChar

StartChar: asterisk
Encoding: 42 42 13
Width: 371
GlyphClass: 2
Flags: W
LayerCount: 2
Fore
SplineSet
203 672 m 1,0,-1
 229 678 l 1,1,-1
 231 676 l 1,2,3
 202 629 202 629 195 564 c 1,4,5
 247 603 247 603 273 651 c 1,6,-1
 276 651 l 1,7,8
 278 647 278 647 281 636.5 c 128,-1,9
 284 626 284 626 284 625 c 1,10,11
 311 630 311 630 318.5 630 c 128,-1,12
 326 630 326 630 327 629 c 1,13,14
 327 626 327 626 302 594 c 1,15,-1
 310 586 l 2,16,17
 318 578 318 578 320 574 c 1,18,-1
 319 572 l 1,19,20
 315 572 315 572 312 572 c 0,21,22
 263 572 263 572 203 547 c 1,23,24
 259 522 259 522 311 522 c 0,25,26
 315 522 315 522 319 522 c 1,27,-1
 320 520 l 1,28,29
 318 516 318 516 310 508 c 2,30,-1
 302 500 l 1,31,32
 303 498 303 498 310 490 c 0,33,34
 327 471 327 471 327 465 c 1,35,36
 326 464 326 464 318.5 464 c 128,-1,37
 311 464 311 464 284 469 c 1,38,39
 284 468 284 468 281 457.5 c 128,-1,40
 278 447 278 447 276 443 c 1,41,-1
 273 443 l 1,42,43
 246 492 246 492 195 530 c 1,44,45
 202 465 202 465 231 418 c 1,46,-1
 229 416 l 1,47,-1
 203 422 l 1,48,49
 190 386 190 386 185 383 c 1,50,51
 180 385 180 385 167 422 c 1,52,-1
 141 416 l 1,53,-1
 139 418 l 1,54,55
 167 465 167 465 175 530 c 1,56,57
 124 492 124 492 97 443 c 1,58,-1
 94 443 l 1,59,60
 92 447 92 447 89 457.5 c 128,-1,61
 86 468 86 468 86 469 c 1,62,63
 59 464 59 464 51.5 464 c 128,-1,64
 44 464 44 464 43 465 c 1,65,66
 43 468 43 468 68 500 c 1,67,-1
 60 508 l 2,68,69
 52 516 52 516 50 520 c 1,70,-1
 51 522 l 1,71,72
 55 522 55 522 59 522 c 0,73,74
 110 522 110 522 166 547 c 1,75,76
 106 572 106 572 58 572 c 0,77,78
 55 572 55 572 51 572 c 1,79,-1
 50 574 l 1,80,81
 52 578 52 578 60 586 c 2,82,-1
 68 594 l 1,83,84
 67 596 67 596 60 604 c 0,85,86
 43 623 43 623 43 629 c 1,87,88
 44 630 44 630 51.5 630 c 128,-1,89
 59 630 59 630 86 625 c 1,90,91
 86 626 86 626 89 636.5 c 128,-1,92
 92 647 92 647 94 651 c 1,93,-1
 97 651 l 1,94,95
 123 603 123 603 175 564 c 1,96,97
 166 629 166 629 139 676 c 1,98,-1
 141 678 l 1,99,-1
 167 672 l 1,100,101
 180 708 180 708 185 711 c 1,102,103
 190 709 190 709 203 672 c 1,0,-1
EndSplineSet
EndChar

StartChar: plus
Encoding: 43 43 14
Width: 550
GlyphClass: 2
Flags: W
LayerCount: 2
Fore
SplineSet
299 222 m 1,0,1
 299 95 299 95 308 0 c 1,2,-1
 262 -9 l 1,3,-1
 252 -2 l 1,4,-1
 252 222 l 1,5,-1
 66 222 l 1,6,-1
 58 229 l 1,7,-1
 67 280 l 1,8,9
 189 274 189 274 252 273 c 1,10,-1
 252 476 l 1,11,-1
 299 485 l 1,12,-1
 304 479 l 1,13,14
 299 347 299 347 299 273 c 2,15,-1
 299 272 l 1,16,17
 336 271 336 271 396 271 c 128,-1,18
 456 271 456 271 495 274 c 1,19,-1
 501 268 l 1,20,-1
 492 222 l 1,21,-1
 299 222 l 1,0,1
EndSplineSet
EndChar

StartChar: comma
Encoding: 44 44 15
Width: 213
GlyphClass: 2
Flags: W
LayerCount: 2
Fore
SplineSet
160 46 m 1,0,1
 160 -4 160 -4 126 -56 c 128,-1,2
 92 -108 92 -108 46 -139 c 1,3,-1
 36 -129 l 1,4,5
 57 -104 57 -104 74 -67.5 c 128,-1,6
 91 -31 91 -31 92 -4 c 1,7,8
 66 20 66 20 52 46 c 1,9,10
 58 58 58 58 75 73.5 c 128,-1,11
 92 89 92 89 106 96 c 1,12,13
 119 88 119 88 136 72.5 c 128,-1,14
 153 57 153 57 160 46 c 1,0,1
EndSplineSet
EndChar

StartChar: hyphen
Encoding: 45 45 16
Width: 286
GlyphClass: 2
Flags: W
LayerCount: 2
Fore
SplineSet
80 288 m 2,0,1
 168 288 168 288 252 298 c 1,2,-1
 260 293 l 1,3,-1
 254 251 l 1,4,-1
 37 236 l 1,5,-1
 28 242 l 1,6,-1
 34 288 l 1,7,-1
 80 288 l 2,0,1
EndSplineSet
EndChar

StartChar: period
Encoding: 46 46 17
Width: 212
GlyphClass: 2
Flags: W
LayerCount: 2
Fore
SplineSet
160 46 m 1,0,1
 153 33 153 33 135.5 13 c 128,-1,2
 118 -7 118 -7 106 -15 c 1,3,4
 94 -7 94 -7 76.5 13 c 128,-1,5
 59 33 59 33 52 46 c 1,6,7
 58 58 58 58 75 73.5 c 128,-1,8
 92 89 92 89 106 96 c 1,9,10
 119 88 119 88 136 72.5 c 128,-1,11
 153 57 153 57 160 46 c 1,0,1
EndSplineSet
EndChar

StartChar: slash
Encoding: 47 47 18
Width: 354
GlyphClass: 2
Flags: W
LayerCount: 2
Fore
SplineSet
61 -41 m 1,0,-1
 56 -41 l 1,1,2
 33 -31 33 -31 16 -11 c 1,3,4
 61 89 61 89 95 178 c 2,5,-1
 209 477 l 2,6,7
 249 581 249 581 287 698 c 1,8,9
 315 700 315 700 342 706 c 1,10,-1
 346 703 l 1,11,12
 320 644 320 644 263 491 c 1,13,-1
 61 -41 l 1,0,-1
EndSplineSet
EndChar

StartChar: zero
Encoding: 48 48 19
Width: 475
GlyphClass: 2
Flags: W
LayerCount: 2
Fore
SplineSet
111.5 459 m 128,-1,1
 177 536 177 536 242.5 536 c 128,-1,2
 308 536 308 536 368 465.5 c 128,-1,3
 428 395 428 395 456 275 c 1,4,5
 430 137 430 137 364.5 61 c 128,-1,6
 299 -15 299 -15 233.5 -15 c 128,-1,7
 168 -15 168 -15 108 54.5 c 128,-1,8
 48 124 48 124 20 244 c 1,9,0
 46 382 46 382 111.5 459 c 128,-1,1
116 260 m 128,-1,11
 116 180 116 180 148.5 110 c 128,-1,12
 181 40 181 40 238 19 c 1,13,14
 295 40 295 40 327.5 110 c 128,-1,15
 360 180 360 180 360 260 c 128,-1,16
 360 340 360 340 327.5 410 c 128,-1,17
 295 480 295 480 238 501 c 1,18,19
 181 480 181 480 148.5 410 c 128,-1,10
 116 340 116 340 116 260 c 128,-1,11
EndSplineSet
EndChar

StartChar: one
Encoding: 49 49 20
Width: 475
GlyphClass: 2
Flags: W
LayerCount: 2
Fore
SplineSet
213 220 m 2,0,-1
 213 275 l 2,1,2
 213 378 213 378 210 438 c 1,3,-1
 134 438 l 1,4,-1
 132 440 l 1,5,6
 132 453 132 453 135 459 c 1,7,8
 213 477 213 477 269 533 c 1,9,10
 281 536 281 536 297 536 c 1,11,-1
 301 534 l 1,12,13
 287 452 287 452 287 275 c 2,14,-1
 287 220 l 2,15,16
 287 86 287 86 294 33 c 1,17,18
 323 26 323 26 353 13 c 1,19,-1
 350 -6 l 1,20,21
 299 0 299 0 249 0 c 128,-1,22
 199 0 199 0 143 -8 c 1,23,-1
 141 11 l 1,24,25
 176 24 176 24 204 30 c 1,26,27
 213 104 213 104 213 220 c 2,0,-1
EndSplineSet
EndChar

StartChar: two
Encoding: 50 50 21
Width: 475
GlyphClass: 2
Flags: W
LayerCount: 2
Fore
SplineSet
160 87 m 1,0,1
 175 87 175 87 223 87 c 128,-1,2
 271 87 271 87 371 74 c 1,3,4
 381 96 381 96 394 132 c 1,5,-1
 415 125 l 1,6,7
 404 86 404 86 404 54 c 128,-1,8
 404 22 404 22 411 -7 c 1,9,-1
 399 -15 l 1,10,11
 227 18 227 18 90 18 c 0,12,13
 86 18 86 18 82 18 c 1,14,15
 66 -1 66 -1 56 -16 c 1,16,-1
 36 -7 l 1,17,18
 55 40 55 40 100.5 96.5 c 128,-1,19
 146 153 146 153 187.5 195 c 128,-1,20
 229 237 229 237 262 290.5 c 128,-1,21
 295 344 295 344 295 390 c 0,22,23
 295 474 295 474 201 474 c 0,24,25
 166 474 166 474 135 460 c 1,26,27
 128 448 128 448 128 428 c 128,-1,28
 128 408 128 408 138 399 c 1,29,-1
 137 392 l 1,30,31
 111 376 111 376 89 352 c 1,32,33
 77 353 77 353 70 361.5 c 128,-1,34
 63 370 63 370 63 381 c 0,35,36
 63 427 63 427 118.5 473.5 c 128,-1,37
 174 520 174 520 230 536 c 1,38,39
 320 536 320 536 357 494 c 128,-1,40
 394 452 394 452 394 357 c 1,41,42
 313 231 313 231 132 83 c 1,43,-1
 134 76 l 1,44,45
 149 84 149 84 160 87 c 1,0,1
EndSplineSet
EndChar

StartChar: three
Encoding: 51 51 22
Width: 475
GlyphClass: 2
Flags: W
LayerCount: 2
Fore
SplineSet
104 149 m 1,0,1
 104 110 104 110 106 88 c 1,2,3
 130 71 130 71 169.5 59 c 128,-1,4
 209 47 209 47 245 47 c 128,-1,5
 281 47 281 47 301 71 c 1,6,7
 314 101 314 101 314 146 c 0,8,9
 314 212 314 212 276.5 247.5 c 128,-1,10
 239 283 239 283 172 283 c 1,11,-1
 168 289 l 1,12,-1
 303 448 l 1,13,-1
 301 452 l 1,14,15
 286 445 286 445 274 442 c 1,16,17
 216 442 216 442 127 449 c 1,18,19
 118 427 118 427 107 388 c 1,20,-1
 86 395 l 1,21,22
 93 435 93 435 93 464.5 c 128,-1,23
 93 494 93 494 83 527 c 1,24,-1
 94 536 l 1,25,26
 214 509 214 509 374 509 c 1,27,28
 399 525 399 525 410 536 c 1,29,-1
 427 521 l 1,30,31
 388 485 388 485 250 342 c 1,32,33
 402 317 402 317 402 156 c 1,34,35
 381 104 381 104 327.5 54 c 128,-1,36
 274 4 274 4 220 -15 c 1,37,38
 179 -15 179 -15 127 -4 c 128,-1,39
 75 7 75 7 39 24 c 1,40,-1
 39 37 l 1,41,42
 77 80 77 80 82 149 c 1,43,-1
 104 149 l 1,0,1
EndSplineSet
EndChar

StartChar: four
Encoding: 52 52 23
Width: 475
GlyphClass: 2
Flags: W
LayerCount: 2
Fore
SplineSet
343 532 m 1,0,1
 330 455 330 455 330 339.5 c 128,-1,2
 330 224 330 224 331 189 c 1,3,4
 369 189 369 189 384.5 196.5 c 128,-1,5
 400 204 400 204 412 233 c 1,6,-1
 428 230 l 1,7,8
 419 185 419 185 419 138 c 1,9,-1
 415 136 l 1,10,11
 380 139 380 139 332 139 c 1,12,13
 332 92 332 92 340 33 c 1,14,15
 361 22 361 22 391 15 c 1,16,-1
 387 -5 l 1,17,18
 330 0 330 0 283.5 0 c 128,-1,19
 237 0 237 0 175 -12 c 1,20,-1
 172 8 l 1,21,22
 206 23 206 23 251 34 c 1,23,24
 258 91 258 91 258 139 c 1,25,-1
 17 139 l 1,26,-1
 13 153 l 1,27,28
 99 251 99 251 155 330 c 128,-1,29
 211 409 211 409 262 511 c 1,30,31
 304 521 304 521 335 536 c 1,32,-1
 343 532 l 1,0,1
254 430 m 1,33,34
 203 318 203 318 118 200 c 1,35,36
 182 193 182 193 258 192 c 1,37,-1
 261 430 l 1,38,-1
 254 430 l 1,33,34
EndSplineSet
EndChar

StartChar: five
Encoding: 53 53 24
Width: 475
GlyphClass: 2
Flags: W
LayerCount: 2
Fore
SplineSet
115 149 m 1,0,1
 115 110 115 110 117 88 c 1,2,3
 141 71 141 71 180.5 59 c 128,-1,4
 220 47 220 47 256 47 c 128,-1,5
 292 47 292 47 312 71 c 1,6,7
 325 102 325 102 325 146 c 0,8,9
 325 212 325 212 287.5 247.5 c 128,-1,10
 250 283 250 283 184 283 c 0,11,12
 145 283 145 283 114 266 c 1,13,-1
 102 275 l 1,14,-1
 112 426 l 2,15,16
 114 453 114 453 114 481 c 128,-1,17
 114 509 114 509 110 533 c 1,18,-1
 131 537 l 1,19,20
 136 519 136 519 140 510 c 1,21,22
 268 514 268 514 369 536 c 1,23,-1
 380 527 l 1,24,25
 368 492 368 492 368 458 c 128,-1,26
 368 424 368 424 373 394 c 1,27,-1
 351 389 l 1,28,29
 342 426 342 426 333 449 c 1,30,31
 263 442 263 442 180 442 c 1,32,-1
 157 452 l 1,33,-1
 153 447 l 1,34,-1
 142 316 l 1,35,36
 181 338 181 338 215 346 c 1,37,38
 310 344 310 344 361.5 296 c 128,-1,39
 413 248 413 248 413 156 c 1,40,41
 392 104 392 104 338.5 54 c 128,-1,42
 285 4 285 4 231 -15 c 1,43,44
 190 -15 190 -15 138 -4 c 128,-1,45
 86 7 86 7 50 24 c 1,46,-1
 50 37 l 1,47,48
 88 80 88 80 93 149 c 1,49,-1
 115 149 l 1,0,1
EndSplineSet
EndChar

StartChar: six
Encoding: 54 54 25
Width: 475
GlyphClass: 2
Flags: W
LayerCount: 2
Fore
SplineSet
165 196 m 0,0,1
 165 130 165 130 190.5 88.5 c 128,-1,2
 216 47 216 47 268 47 c 128,-1,3
 320 47 320 47 340 71 c 1,4,5
 355 109 355 109 355 146 c 0,6,7
 355 207 355 207 320.5 238 c 128,-1,8
 286 269 286 269 224 269 c 0,9,10
 209 269 209 269 194 266 c 1,11,-1
 194 273 l 1,12,13
 226 296 226 296 251 324 c 1,14,15
 341 324 341 324 392 282 c 128,-1,16
 443 240 443 240 443 156 c 1,17,18
 421 105 421 105 362 52.5 c 128,-1,19
 303 0 303 0 250 -15 c 1,20,21
 166 -15 166 -15 121 32 c 128,-1,22
 76 79 76 79 76 163 c 0,23,24
 76 280 76 280 155.5 382 c 128,-1,25
 235 484 235 484 349 536 c 1,26,-1
 362 518 l 1,27,28
 274 455 274 455 219.5 372 c 128,-1,29
 165 289 165 289 165 196 c 0,0,1
EndSplineSet
EndChar

StartChar: seven
Encoding: 55 55 26
Width: 475
GlyphClass: 2
Flags: W
LayerCount: 2
Fore
SplineSet
314 -6 m 1,0,1
 256 0 256 0 205.5 0 c 128,-1,2
 155 0 155 0 102 -11 c 1,3,-1
 97 9 l 1,4,5
 129 19 129 19 147 30 c 1,6,7
 154 104 154 104 185.5 174.5 c 128,-1,8
 217 245 217 245 284 351 c 2,9,-1
 348 451 l 1,10,-1
 345 455 l 1,11,12
 331 449 331 449 318 445 c 1,13,14
 193 445 193 445 141 450 c 1,15,16
 132 427 132 427 123 390 c 1,17,-1
 101 395 l 1,18,19
 106 425 106 425 106 458.5 c 128,-1,20
 106 492 106 492 94 527 c 1,21,-1
 105 536 l 1,22,23
 207 515 207 515 394 509 c 1,24,25
 403 520 403 520 412 532 c 1,26,-1
 431 521 l 1,27,28
 363 420 363 420 319 328 c 0,29,30
 237 157 237 157 236 36 c 1,31,32
 284 27 284 27 316 14 c 1,33,-1
 314 -6 l 1,0,1
EndSplineSet
EndChar

StartChar: eight
Encoding: 56 56 27
Width: 475
GlyphClass: 2
Flags: W
LayerCount: 2
Fore
SplineSet
401 436 m 0,0,1
 401 375 401 375 292 298 c 1,2,3
 391 247 391 247 412 201 c 0,4,5
 422 179 422 179 422 152 c 1,6,7
 401 97 401 97 347 51 c 128,-1,8
 293 5 293 5 233 -15 c 1,9,10
 164 -15 164 -15 113 20.5 c 128,-1,11
 62 56 62 56 62 119.5 c 128,-1,12
 62 183 62 183 179 263 c 1,13,14
 84 322 84 322 84 405 c 1,15,16
 107 442 107 442 163.5 483.5 c 128,-1,17
 220 525 220 525 262 536 c 1,18,19
 320 536 320 536 360.5 510.5 c 128,-1,20
 401 485 401 485 401 436 c 0,0,1
322 71 m 1,21,22
 334 95 334 95 334 117.5 c 128,-1,23
 334 140 334 140 327.5 154.5 c 128,-1,24
 321 169 321 169 304.5 182.5 c 128,-1,25
 288 196 288 196 275.5 204 c 128,-1,26
 263 212 263 212 236 227 c 128,-1,27
 209 242 209 242 198 249 c 1,28,29
 165 224 165 224 150.5 200.5 c 128,-1,30
 136 177 136 177 136 137.5 c 128,-1,31
 136 98 136 98 171 72.5 c 128,-1,32
 206 47 206 47 253 47 c 128,-1,33
 300 47 300 47 322 71 c 1,21,22
171 422 m 0,34,35
 171 361 171 361 271 311 c 1,36,37
 300 337 300 337 313.5 358.5 c 128,-1,38
 327 380 327 380 327 410 c 0,39,40
 327 474 327 474 241 474 c 0,41,42
 197 474 197 474 176 451 c 1,43,44
 171 436 171 436 171 422 c 0,34,35
EndSplineSet
EndChar

StartChar: nine
Encoding: 57 57 28
Width: 475
GlyphClass: 2
Flags: W
LayerCount: 2
Fore
SplineSet
310 325 m 0,0,1
 310 391 310 391 284.5 432.5 c 128,-1,2
 259 474 259 474 207 474 c 128,-1,3
 155 474 155 474 135 450 c 1,4,5
 120 412 120 412 120 375 c 0,6,7
 120 314 120 314 154 283 c 128,-1,8
 188 252 188 252 251 252 c 0,9,10
 266 252 266 252 281 255 c 1,11,-1
 281 248 l 1,12,13
 249 225 249 225 224 197 c 1,14,15
 134 197 134 197 83 239 c 128,-1,16
 32 281 32 281 32 365 c 1,17,18
 54 416 54 416 113 468.5 c 128,-1,19
 172 521 172 521 225 536 c 1,20,21
 309 536 309 536 354 489 c 128,-1,22
 399 442 399 442 399 358 c 0,23,24
 399 241 399 241 319.5 139 c 128,-1,25
 240 37 240 37 126 -15 c 1,26,-1
 113 3 l 1,27,28
 201 66 201 66 255.5 149 c 128,-1,29
 310 232 310 232 310 325 c 0,0,1
EndSplineSet
EndChar

StartChar: colon
Encoding: 58 58 29
Width: 212
GlyphClass: 2
Flags: W
LayerCount: 2
Fore
SplineSet
160 46 m 1,0,1
 153 33 153 33 135.5 13 c 128,-1,2
 118 -7 118 -7 106 -15 c 1,3,4
 94 -7 94 -7 76.5 13 c 128,-1,5
 59 33 59 33 52 46 c 1,6,7
 58 58 58 58 75 73.5 c 128,-1,8
 92 89 92 89 106 96 c 1,9,10
 119 88 119 88 136 72.5 c 128,-1,11
 153 57 153 57 160 46 c 1,0,1
160 435 m 1,12,13
 153 422 153 422 135.5 402 c 128,-1,14
 118 382 118 382 106 374 c 1,15,16
 94 382 94 382 76.5 402 c 128,-1,17
 59 422 59 422 52 435 c 1,18,19
 58 447 58 447 75 462.5 c 128,-1,20
 92 478 92 478 106 485 c 1,21,22
 119 477 119 477 136 461.5 c 128,-1,23
 153 446 153 446 160 435 c 1,12,13
EndSplineSet
EndChar

StartChar: semicolon
Encoding: 59 59 30
Width: 212
GlyphClass: 2
Flags: W
LayerCount: 2
Fore
SplineSet
160 46 m 1,0,1
 160 -4 160 -4 126 -56 c 128,-1,2
 92 -108 92 -108 46 -139 c 1,3,-1
 36 -129 l 1,4,5
 57 -104 57 -104 74 -67.5 c 128,-1,6
 91 -31 91 -31 92 -4 c 1,7,8
 66 20 66 20 52 46 c 1,9,10
 58 58 58 58 75 73.5 c 128,-1,11
 92 89 92 89 106 96 c 1,12,13
 119 88 119 88 136 72.5 c 128,-1,14
 153 57 153 57 160 46 c 1,0,1
160 435 m 1,15,16
 153 422 153 422 135.5 402 c 128,-1,17
 118 382 118 382 106 374 c 1,18,19
 94 382 94 382 76.5 402 c 128,-1,20
 59 422 59 422 52 435 c 1,21,22
 58 447 58 447 75 462.5 c 128,-1,23
 92 478 92 478 106 485 c 1,24,25
 119 477 119 477 136 461.5 c 128,-1,26
 153 446 153 446 160 435 c 1,15,16
EndSplineSet
EndChar

StartChar: less
Encoding: 60 60 31
Width: 550
GlyphClass: 2
Flags: W
LayerCount: 2
Fore
SplineSet
472 55 m 1,0,1
 260 160 260 160 52 222 c 1,2,-1
 66 286 l 1,3,4
 122 303 122 303 249 351 c 128,-1,5
 376 399 376 399 474 449 c 1,6,-1
 498 403 l 1,7,-1
 493 393 l 1,8,-1
 134 254 l 1,9,-1
 134 250 l 1,10,-1
 493 112 l 1,11,-1
 498 102 l 1,12,-1
 472 55 l 1,0,1
EndSplineSet
EndChar

StartChar: equal
Encoding: 61 61 32
Width: 550
GlyphClass: 2
Flags: W
LayerCount: 2
Fore
SplineSet
62 203 m 1,0,1
 232 194 232 194 341.5 194 c 128,-1,2
 451 194 451 194 490 197 c 1,3,-1
 496 191 l 1,4,-1
 487 145 l 1,5,-1
 61 145 l 1,6,-1
 53 152 l 1,7,-1
 62 203 l 1,0,1
62 357 m 1,8,9
 232 348 232 348 341.5 348 c 128,-1,10
 451 348 451 348 490 351 c 1,11,-1
 496 345 l 1,12,-1
 487 299 l 1,13,-1
 61 299 l 1,14,-1
 53 306 l 1,15,-1
 62 357 l 1,8,9
EndSplineSet
EndChar

StartChar: greater
Encoding: 62 62 33
Width: 550
GlyphClass: 2
Flags: W
LayerCount: 2
Fore
SplineSet
498 222 m 1,0,1
 290 160 290 160 78 55 c 1,2,-1
 52 102 l 1,3,-1
 57 112 l 1,4,-1
 416 250 l 1,5,-1
 416 254 l 1,6,-1
 57 393 l 1,7,-1
 52 403 l 1,8,-1
 76 449 l 1,9,10
 174 399 174 399 301 351 c 128,-1,11
 428 303 428 303 484 286 c 1,12,-1
 498 222 l 1,0,1
EndSplineSet
EndChar

StartChar: question
Encoding: 63 63 34
Width: 335
GlyphClass: 2
Flags: W
LayerCount: 2
Fore
SplineSet
239 560 m 0,0,1
 239 597 239 597 215 615.5 c 128,-1,2
 191 634 191 634 154 634 c 128,-1,3
 117 634 117 634 89 620 c 1,4,5
 82 608 82 608 82 588 c 128,-1,6
 82 568 82 568 92 559 c 1,7,-1
 91 552 l 1,8,9
 65 536 65 536 43 512 c 1,10,11
 31 513 31 513 24 521.5 c 128,-1,12
 17 530 17 530 17 541 c 0,13,14
 17 587 17 587 70.5 633.5 c 128,-1,15
 124 680 124 680 179 696 c 1,16,17
 260 696 260 696 297.5 657 c 128,-1,18
 335 618 335 618 335 537 c 1,19,20
 272 447 272 447 177 352 c 1,21,22
 170 263 170 263 166 182 c 1,23,-1
 140 180 l 1,24,-1
 119 319 l 1,25,-1
 119 338 l 1,26,27
 239 458 239 458 239 560 c 0,0,1
205 49 m 1,28,29
 198 36 198 36 180.5 16 c 128,-1,30
 163 -4 163 -4 151 -12 c 1,31,32
 139 -4 139 -4 121.5 16 c 128,-1,33
 104 36 104 36 97 49 c 1,34,35
 103 61 103 61 120 76.5 c 128,-1,36
 137 92 137 92 151 99 c 1,37,38
 164 91 164 91 181 75.5 c 128,-1,39
 198 60 198 60 205 49 c 1,28,29
EndSplineSet
EndChar

StartChar: at
Encoding: 64 64 35
Width: 860
GlyphClass: 2
Flags: W
LayerCount: 2
Fore
SplineSet
300 499 m 1,0,1
 388 488 388 488 483.5 488 c 128,-1,2
 579 488 579 488 667 499 c 1,3,-1
 671 473 l 1,4,5
 646 462 646 462 609 455 c 1,6,7
 598 352 598 352 598 263 c 0,8,9
 598 94 598 94 620 36 c 1,10,-1
 626 33 l 1,11,12
 692 69 692 69 725.5 152 c 128,-1,13
 759 235 759 235 759 329 c 0,14,15
 759 616 759 616 458 616 c 0,16,17
 356 616 356 616 281 570 c 1,18,19
 208 500 208 500 164.5 389 c 128,-1,20
 121 278 121 278 121 172 c 0,21,22
 121 22 121 22 193 -59 c 128,-1,23
 265 -140 265 -140 409 -140 c 0,24,25
 471 -140 471 -140 528 -118 c 1,26,-1
 535 -131 l 1,27,28
 475 -173 475 -173 401 -190 c 1,29,30
 225 -190 225 -190 140 -105.5 c 128,-1,31
 55 -21 55 -21 55 155 c 0,32,33
 55 356 55 356 168 497.5 c 128,-1,34
 281 639 281 639 474 666 c 1,35,36
 823 666 823 666 823 363 c 0,37,38
 823 214 823 214 750.5 108 c 128,-1,39
 678 2 678 2 561 -15 c 1,40,-1
 554 -12 l 1,41,42
 523 50 523 50 523 157 c 0,43,44
 523 169 523 169 523 182 c 1,45,46
 486 187 486 187 439 187 c 128,-1,47
 392 187 392 187 365 182 c 1,48,49
 348 112 348 112 348 72 c 128,-1,50
 348 32 348 32 383 12 c 1,51,-1
 379 -5 l 1,52,53
 356 0 356 0 290.5 0 c 128,-1,54
 225 0 225 0 191 -8 c 1,55,-1
 187 18 l 1,56,57
 217 28 217 28 253 34 c 1,58,-1
 374 457 l 1,59,60
 321 466 321 466 297 473 c 1,61,-1
 300 499 l 1,0,1
374 229 m 1,62,63
 404 223 404 223 450.5 223 c 128,-1,64
 497 223 497 223 523 229 c 1,65,66
 523 397 523 397 515 447 c 1,67,68
 496 450 496 450 474 450 c 128,-1,69
 452 450 452 450 426 448 c 1,70,-1
 374 229 l 1,62,63
EndSplineSet
EndChar

StartChar: A
Encoding: 65 65 36
Width: 599
GlyphClass: 2
Flags: W
LayerCount: 2
Fore
SplineSet
474 533 m 128,-1,1
 469 459 469 459 469 295 c 128,-1,2
 469 131 469 131 482 35 c 1,3,4
 535 30 535 30 592 16 c 1,5,-1
 589 -8 l 1,6,7
 515 0 515 0 428.5 0 c 128,-1,8
 342 0 342 0 289 -8 c 1,9,-1
 285 17 l 1,10,11
 330 31 330 31 381 38 c 1,12,13
 389 104 389 104 392 251 c 1,14,15
 340 257 340 257 277.5 257 c 128,-1,16
 215 257 215 257 172 251 c 1,17,18
 148 153 148 153 148 94 c 128,-1,19
 148 35 148 35 191 10 c 1,20,-1
 187 -4 l 1,21,22
 156 0 156 0 82.5 0 c 128,-1,23
 9 0 9 0 -50 -8 c 1,24,-1
 -54 17 l 1,25,26
 -9 31 -9 31 42 38 c 1,27,-1
 200 598 l 1,28,29
 82 598 82 598 49 566 c 1,30,31
 42 552 42 552 42 522 c 128,-1,32
 42 492 42 492 52 481 c 1,33,-1
 51 474 l 1,34,35
 26 459 26 459 1 432 c 1,36,37
 -11 433 -11 433 -18.5 442 c 128,-1,38
 -26 451 -26 451 -26 463 c 0,39,40
 -26 512 -26 512 33 580 c 128,-1,41
 92 648 92 648 143 666 c 1,42,43
 294 649 294 649 449 637 c 1,44,45
 463 655 463 655 472 683 c 1,46,-1
 493 677 l 1,47,0
 479 607 479 607 474 533 c 128,-1,1
183 301 m 1,48,49
 228 294 228 294 289.5 294 c 128,-1,50
 351 294 351 294 392 301 c 1,51,52
 392 478 392 478 387 590 c 1,53,-1
 384 593 l 1,54,55
 332 598 332 598 255 598 c 1,56,-1
 183 301 l 1,48,49
EndSplineSet
EndChar

StartChar: B
Encoding: 66 66 37
Width: 576
GlyphClass: 2
Flags: W
LayerCount: 2
Fore
SplineSet
53 659 m 1,0,1
 138 651 138 651 237.5 651 c 128,-1,2
 337 651 337 651 361.5 649.5 c 128,-1,3
 386 648 386 648 415 642 c 128,-1,4
 444 636 444 636 460 624 c 0,5,6
 500 597 500 597 500 541.5 c 128,-1,7
 500 486 500 486 461 440.5 c 128,-1,8
 422 395 422 395 366 372 c 1,9,-1
 366 368 l 1,10,11
 438 368 438 368 483 334.5 c 128,-1,12
 528 301 528 301 528 236 c 0,13,14
 528 156 528 156 453 82 c 128,-1,15
 378 8 378 8 291 -15 c 1,16,17
 229 -15 229 -15 145 23 c 1,18,19
 128 -3 128 -3 122 -22 c 1,20,-1
 101 -17 l 1,21,22
 125 92 125 92 125 325 c 0,23,24
 125 414 125 414 117 598 c 1,25,26
 6 596 6 596 -25 566 c 1,27,28
 -32 552 -32 552 -32 522 c 128,-1,29
 -32 492 -32 492 -22 481 c 1,30,-1
 -23 474 l 1,31,32
 -48 459 -48 459 -73 432 c 1,33,34
 -85 433 -85 433 -92.5 442 c 128,-1,35
 -100 451 -100 451 -100 463 c 0,36,37
 -100 509 -100 509 -47.5 572 c 128,-1,38
 5 635 5 635 53 659 c 1,0,1
263 382 m 2,39,40
 337 382 337 382 370 403 c 1,41,42
 406 443 406 443 406 504.5 c 128,-1,43
 406 566 406 566 372.5 583.5 c 128,-1,44
 339 601 339 601 285.5 601 c 128,-1,45
 232 601 232 601 210 598 c 1,46,47
 202 497 202 497 202 335 c 128,-1,48
 202 173 202 173 207 85 c 1,49,50
 259 57 259 57 318.5 57 c 128,-1,51
 378 57 378 57 413 81 c 1,52,53
 436 130 436 130 436 191 c 0,54,55
 436 345 436 345 246 345 c 1,56,-1
 251 382 l 1,57,-1
 263 382 l 2,39,40
EndSplineSet
EndChar

StartChar: C
Encoding: 67 67 38
Width: 498
GlyphClass: 2
Flags: W
LayerCount: 2
Fore
SplineSet
228.5 -14.5 m 128,-1,1
 261 -34 261 -34 304.5 -34 c 128,-1,2
 348 -34 348 -34 392.5 -8.5 c 128,-1,3
 437 17 437 17 467 55 c 1,4,-1
 481 41 l 1,5,6
 408 -73 408 -73 283 -115 c 1,7,8
 197 -115 197 -115 142 -71 c 128,-1,9
 87 -27 87 -27 64.5 42 c 128,-1,10
 42 111 42 111 42 212 c 128,-1,11
 42 313 42 313 67.5 403.5 c 128,-1,12
 93 494 93 494 156 566.5 c 128,-1,13
 219 639 219 639 313 666 c 1,14,15
 414 666 414 666 519 647 c 1,16,-1
 518 625 l 1,17,18
 492 625 492 625 470 616 c 1,19,20
 445 557 445 557 437 475 c 1,21,-1
 412 475 l 1,22,23
 403 522 403 522 403 565 c 1,24,25
 350 594 350 594 286.5 594 c 128,-1,26
 223 594 223 594 182 556 c 1,27,28
 131 453 131 453 131 291 c 0,29,30
 131 110 131 110 178 35 c 0,31,0
 196 5 196 5 228.5 -14.5 c 128,-1,1
EndSplineSet
EndChar

StartChar: D
Encoding: 68 68 39
Width: 620
GlyphClass: 2
Flags: W
LayerCount: 2
Fore
SplineSet
102 -17 m 1,0,1
 126 92 126 92 126 296.5 c 128,-1,2
 126 501 126 501 117 598 c 1,3,4
 6 596 6 596 -25 566 c 1,5,6
 -32 552 -32 552 -32 522 c 128,-1,7
 -32 492 -32 492 -22 481 c 1,8,-1
 -23 474 l 1,9,10
 -48 459 -48 459 -73 432 c 1,11,12
 -85 433 -85 433 -92.5 442 c 128,-1,13
 -100 451 -100 451 -100 463 c 0,14,15
 -100 509 -100 509 -47.5 572 c 128,-1,16
 5 635 5 635 53 659 c 1,17,18
 138 651 138 651 305 651 c 0,19,20
 578 651 578 651 578 386 c 0,21,22
 578 247 578 247 505 134 c 128,-1,23
 432 21 432 21 307 -15 c 1,24,25
 235 -15 235 -15 146 23 c 1,26,27
 129 -3 129 -3 123 -22 c 1,28,-1
 102 -17 l 1,0,1
289 604 m 0,29,30
 243 604 243 604 212 599 c 1,31,32
 203 505 203 505 203 339 c 128,-1,33
 203 173 203 173 208 85 c 1,34,35
 262 57 262 57 331 57 c 128,-1,36
 400 57 400 57 438 91 c 1,37,38
 489 184 489 184 489 321 c 128,-1,39
 489 458 489 458 446.5 531 c 128,-1,40
 404 604 404 604 289 604 c 0,29,30
EndSplineSet
EndChar

StartChar: E
Encoding: 69 69 40
Width: 513
GlyphClass: 2
Flags: W
LayerCount: 2
Fore
SplineSet
394 566 m 1,0,1
 346 594 346 594 280 594 c 128,-1,2
 214 594 214 594 173 560 c 1,3,4
 172 546 172 546 172 533 c 0,5,6
 172 373 172 373 343 373 c 1,7,-1
 338 336 l 1,8,-1
 326 336 l 2,9,10
 247 336 247 336 195.5 304.5 c 128,-1,11
 144 273 144 273 144 203 c 128,-1,12
 144 133 144 133 192 94.5 c 128,-1,13
 240 56 240 56 305 56 c 128,-1,14
 370 56 370 56 407 80 c 1,15,16
 414 94 414 94 414 124 c 128,-1,17
 414 154 414 154 404 165 c 1,18,-1
 405 172 l 1,19,20
 430 187 430 187 455 214 c 1,21,22
 467 213 467 213 474.5 204 c 128,-1,23
 482 195 482 195 482 183 c 0,24,25
 482 122 482 122 424.5 64.5 c 128,-1,26
 367 7 367 7 299 -15 c 1,27,28
 192 -15 192 -15 121 37 c 128,-1,29
 50 89 50 89 50 185 c 0,30,31
 50 254 50 254 108 300 c 128,-1,32
 166 346 166 346 240 346 c 1,33,-1
 240 350 l 1,34,35
 172 354 172 354 126.5 388 c 128,-1,36
 81 422 81 422 81 482 c 1,37,38
 117 546 117 546 176.5 597 c 128,-1,39
 236 648 236 648 304 666 c 1,40,41
 375 666 375 666 444 647 c 1,42,43
 460 655 460 655 485 678 c 1,44,-1
 506 664 l 1,45,46
 440 584 440 584 425 473 c 1,47,-1
 399 473 l 1,48,49
 399 528 399 528 394 566 c 1,0,1
EndSplineSet
EndChar

StartChar: F
Encoding: 70 70 41
Width: 488
GlyphClass: 2
Flags: W
LayerCount: 2
Fore
SplineSet
365 645 m 0,0,1
 444 645 444 645 474 676 c 1,2,-1
 493 666 l 1,3,4
 450 588 450 588 443 484 c 1,5,-1
 418 484 l 1,6,7
 409 527 409 527 409 593 c 1,8,9
 383 585 383 585 344 585 c 128,-1,10
 305 585 305 585 215 593 c 1,11,12
 207 519 207 519 207 366 c 1,13,14
 250 358 250 358 291 358 c 0,15,16
 369 358 369 358 390 401 c 1,17,-1
 410 397 l 1,18,19
 401 365 401 365 401 320.5 c 128,-1,20
 401 276 401 276 407 233 c 1,21,-1
 384 229 l 1,22,23
 369 267 369 267 364 318 c 1,24,25
 327 321 327 321 287 321 c 128,-1,26
 247 321 247 321 207 316 c 1,27,28
 208 112 208 112 220 35 c 1,29,30
 270 30 270 30 330 16 c 1,31,-1
 327 -8 l 1,32,33
 253 0 253 0 166.5 0 c 128,-1,34
 80 0 80 0 27 -8 c 1,35,-1
 23 17 l 1,36,37
 68 31 68 31 119 38 c 1,38,39
 130 120 130 120 130 296 c 2,40,-1
 130 355 l 2,41,42
 130 454 130 454 118 598 c 1,43,-1
 116 598 l 2,44,45
 -2 598 -2 598 -35 566 c 1,46,47
 -42 552 -42 552 -42 522 c 128,-1,48
 -42 492 -42 492 -32 481 c 1,49,-1
 -33 474 l 1,50,51
 -58 459 -58 459 -83 432 c 1,52,53
 -95 433 -95 433 -102.5 442 c 128,-1,54
 -110 451 -110 451 -110 463 c 0,55,56
 -110 512 -110 512 -51 580 c 128,-1,57
 8 648 8 648 59 666 c 1,58,59
 129 663 129 663 222.5 654 c 128,-1,60
 316 645 316 645 365 645 c 0,0,1
EndSplineSet
EndChar

StartChar: G
Encoding: 71 71 42
Width: 557
GlyphClass: 2
Flags: W
LayerCount: 2
Fore
SplineSet
305 66 m 0,0,1
 352 66 352 66 403 94 c 1,2,-1
 403 176 l 2,3,4
 403 199 403 199 399 243 c 1,5,6
 364 253 364 253 308 263 c 1,7,-1
 311 284 l 1,8,9
 334 281 334 281 355 281 c 0,10,11
 443 281 443 281 516 330 c 1,12,-1
 525 312 l 1,13,14
 502 294 502 294 489 276 c 1,15,16
 470 102 470 102 469 -49 c 1,17,18
 440 -102 440 -102 373.5 -151 c 128,-1,19
 307 -200 307 -200 252 -200 c 0,20,21
 237 -200 237 -200 227 -192 c 128,-1,22
 217 -184 217 -184 217 -170 c 1,23,24
 246 -148 246 -148 266 -119 c 1,25,-1
 273 -118 l 1,26,27
 295 -135 295 -135 324 -135 c 128,-1,28
 353 -135 353 -135 364 -129 c 1,29,30
 405 -74 405 -74 405 51 c 1,31,32
 350 8 350 8 283 -15 c 1,33,34
 163 -15 163 -15 102.5 60.5 c 128,-1,35
 42 136 42 136 42 269.5 c 128,-1,36
 42 403 42 403 115.5 517.5 c 128,-1,37
 189 632 189 632 313 666 c 1,38,39
 417 666 417 666 522 647 c 1,40,-1
 521 625 l 1,41,42
 496 625 496 625 473 616 c 1,43,44
 446 553 446 553 440 475 c 1,45,-1
 415 475 l 1,46,47
 406 516 406 516 406 568 c 1,48,49
 359 594 359 594 291 594 c 128,-1,50
 223 594 223 594 182 560 c 1,51,52
 131 473 131 473 131 339 c 0,53,54
 131 66 131 66 305 66 c 0,0,1
EndSplineSet
EndChar

StartChar: H
Encoding: 72 72 43
Width: 708
GlyphClass: 2
Flags: W
LayerCount: 2
Fore
SplineSet
578 652 m 2,0,-1
 578 296 l 2,1,2
 578 109 578 109 591 35 c 1,3,4
 644 30 644 30 701 16 c 1,5,-1
 698 -8 l 1,6,7
 634 0 634 0 546.5 0 c 128,-1,8
 459 0 459 0 398 -8 c 1,9,-1
 394 17 l 1,10,11
 439 31 439 31 490 38 c 1,12,13
 500 139 500 139 501 328 c 1,14,15
 427 335 427 335 354 335 c 128,-1,16
 281 335 281 335 207 328 c 1,17,18
 208 114 208 114 220 35 c 1,19,20
 273 30 273 30 330 16 c 1,21,-1
 327 -8 l 1,22,23
 253 0 253 0 166.5 0 c 128,-1,24
 80 0 80 0 27 -8 c 1,25,-1
 23 17 l 1,26,27
 68 31 68 31 119 38 c 1,28,29
 130 120 130 120 130 296 c 2,30,-1
 130 355 l 2,31,32
 130 486 130 486 119 596 c 1,33,-1
 118 596 l 2,34,35
 0 596 0 596 -33 564 c 1,36,37
 -40 550 -40 550 -40 520 c 128,-1,38
 -40 490 -40 490 -30 479 c 1,39,-1
 -31 472 l 1,40,41
 -56 457 -56 457 -81 430 c 1,42,43
 -93 431 -93 431 -100.5 440 c 128,-1,44
 -108 449 -108 449 -108 461 c 0,45,46
 -108 510 -108 510 -49 578 c 128,-1,47
 10 646 10 646 61 664 c 1,48,49
 69 664 69 664 133 657.5 c 128,-1,50
 197 651 197 651 233.5 651 c 128,-1,51
 270 651 270 651 301 657 c 1,52,-1
 305 632 l 1,53,54
 266 617 266 617 216 605 c 1,55,56
 209 530 209 530 207 382 c 1,57,58
 283 372 283 372 358 372 c 128,-1,59
 433 372 433 372 501 381 c 1,60,61
 500 560 500 560 492 653 c 1,62,63
 511 714 511 714 584.5 786 c 128,-1,64
 658 858 658 858 713 858 c 0,65,66
 725 858 725 858 734.5 850.5 c 128,-1,67
 744 843 744 843 744 831 c 1,68,69
 717 806 717 806 702 781 c 1,70,-1
 695 780 l 1,71,72
 684 790 684 790 654 790 c 128,-1,73
 624 790 624 790 610 783 c 1,74,75
 578 746 578 746 578 652 c 2,0,-1
EndSplineSet
EndChar

StartChar: I
Encoding: 73 73 44
Width: 337
GlyphClass: 2
Flags: W
LayerCount: 2
Fore
SplineSet
218 616 m 1,0,1
 207 541 207 541 207 336 c 128,-1,2
 207 131 207 131 220 35 c 1,3,4
 273 30 273 30 330 16 c 1,5,-1
 327 -8 l 1,6,7
 253 0 253 0 166.5 0 c 128,-1,8
 80 0 80 0 27 -8 c 1,9,-1
 23 17 l 1,10,11
 68 31 68 31 119 38 c 1,12,13
 130 120 130 120 130 296 c 2,14,-1
 130 355 l 2,15,16
 130 517 130 517 117 613 c 1,17,18
 66 620 66 620 21 634 c 1,19,-1
 25 659 l 1,20,21
 78 651 78 651 164.5 651 c 128,-1,22
 251 651 251 651 325 659 c 1,23,-1
 328 635 l 1,24,25
 271 621 271 621 218 616 c 1,0,1
EndSplineSet
EndChar

StartChar: J
Encoding: 74 74 45
Width: 337
GlyphClass: 2
Flags: W
LayerCount: 2
Fore
SplineSet
207 355 m 2,0,-1
 207 296 l 2,1,2
 207 111 207 111 215 33 c 1,3,4
 148 -102 148 -102 -32 -181 c 1,5,-1
 -44 -160 l 1,6,7
 51 -95 51 -95 90.5 -25.5 c 128,-1,8
 130 44 130 44 130 154 c 2,9,-1
 130 355 l 2,10,11
 130 506 130 506 121 596 c 1,12,13
 3 596 3 596 -30 564 c 1,14,15
 -37 550 -37 550 -37 520 c 128,-1,16
 -37 490 -37 490 -27 479 c 1,17,-1
 -28 472 l 1,18,19
 -53 457 -53 457 -78 430 c 1,20,21
 -90 431 -90 431 -97.5 440 c 128,-1,22
 -105 449 -105 449 -105 461 c 0,23,24
 -105 510 -105 510 -46 578 c 128,-1,25
 13 646 13 646 64 664 c 1,26,27
 72 664 72 664 136 657.5 c 128,-1,28
 200 651 200 651 236 651 c 128,-1,29
 272 651 272 651 304 657 c 1,30,-1
 308 632 l 1,31,32
 269 617 269 617 219 605 c 1,33,34
 207 497 207 497 207 355 c 2,0,-1
EndSplineSet
EndChar

StartChar: K
Encoding: 75 75 46
Width: 606
GlyphClass: 2
Flags: W
LayerCount: 2
Fore
SplineSet
207 350 m 2,0,-1
 207 295 l 1,1,2
 294 387 294 387 341.5 451 c 128,-1,3
 389 515 389 515 399.5 542 c 128,-1,4
 410 569 410 569 410 596.5 c 128,-1,5
 410 624 410 624 393 641 c 1,6,-1
 397 655 l 1,7,8
 428 651 428 651 485.5 651 c 128,-1,9
 543 651 543 651 602 659 c 1,10,-1
 606 634 l 1,11,12
 561 620 561 620 510 613 c 1,13,14
 501 528 501 528 364 397 c 1,15,-1
 538 23 l 2,16,17
 577 -61 577 -61 623 -82 c 1,18,19
 641 -82 641 -82 667 -69 c 128,-1,20
 693 -56 693 -56 699 -43 c 1,21,-1
 705 -41 l 1,22,23
 732 -59 732 -59 765 -69 c 1,24,25
 768 -75 768 -75 768 -85.5 c 128,-1,26
 768 -96 768 -96 751.5 -105.5 c 128,-1,27
 735 -115 735 -115 705 -115 c 0,28,29
 642 -115 642 -115 556.5 -80 c 128,-1,30
 471 -45 471 -45 438 -8 c 1,31,32
 416 89 416 89 389 161 c 128,-1,33
 362 233 362 233 307 344 c 1,34,35
 251 293 251 293 207 257 c 1,36,37
 210 105 210 105 220 35 c 1,38,39
 273 30 273 30 330 16 c 1,40,-1
 327 -8 l 1,41,42
 253 0 253 0 166.5 0 c 128,-1,43
 80 0 80 0 27 -8 c 1,44,-1
 23 17 l 1,45,46
 68 31 68 31 119 38 c 1,47,48
 130 120 130 120 130 296 c 2,49,-1
 130 355 l 2,50,51
 130 486 130 486 119 596 c 1,52,-1
 118 596 l 2,53,54
 0 596 0 596 -33 564 c 1,55,56
 -40 550 -40 550 -40 520 c 128,-1,57
 -40 490 -40 490 -30 479 c 1,58,-1
 -31 472 l 1,59,60
 -56 457 -56 457 -81 430 c 1,61,62
 -93 431 -93 431 -100.5 440 c 128,-1,63
 -108 449 -108 449 -108 461 c 0,64,65
 -108 510 -108 510 -49 578 c 128,-1,66
 10 646 10 646 61 664 c 1,67,68
 69 664 69 664 133 657.5 c 128,-1,69
 197 651 197 651 233.5 651 c 128,-1,70
 270 651 270 651 301 657 c 1,71,-1
 305 632 l 1,72,73
 266 617 266 617 216 605 c 1,74,75
 207 513 207 513 207 350 c 2,0,-1
EndSplineSet
EndChar

StartChar: L
Encoding: 76 76 47
Width: 456
GlyphClass: 2
Flags: W
LayerCount: 2
Fore
SplineSet
218 616 m 1,0,1
 205 528 205 528 205 336.5 c 128,-1,2
 205 145 205 145 213 55 c 1,3,4
 247 53 247 53 277 53 c 0,5,6
 395 53 395 53 428 85 c 1,7,8
 435 99 435 99 435 129 c 128,-1,9
 435 159 435 159 425 170 c 1,10,-1
 426 177 l 1,11,12
 451 192 451 192 476 219 c 1,13,14
 488 218 488 218 495.5 209 c 128,-1,15
 503 200 503 200 503 188 c 0,16,17
 503 139 503 139 444 71 c 128,-1,18
 385 3 385 3 334 -15 c 1,19,20
 248 -12 248 -12 148 14 c 1,21,22
 134 -4 134 -4 125 -32 c 1,23,-1
 104 -26 l 1,24,25
 125 75 125 75 128 305 c 1,26,-1
 128 355 l 2,27,28
 128 530 128 530 117 613 c 1,29,30
 66 620 66 620 21 634 c 1,31,-1
 25 659 l 1,32,33
 78 651 78 651 164.5 651 c 128,-1,34
 251 651 251 651 325 659 c 1,35,-1
 328 635 l 1,36,37
 268 621 268 621 218 616 c 1,0,1
EndSplineSet
EndChar

StartChar: M
Encoding: 77 77 48
Width: 864
GlyphClass: 2
Flags: W
LayerCount: 2
Fore
SplineSet
325 601 m 0,0,1
 325 538 325 538 403 295 c 2,2,-1
 435 195 l 1,3,-1
 442 197 l 1,4,5
 443 218 443 218 566 609 c 1,6,7
 566 619 566 619 555 628.5 c 128,-1,8
 544 638 544 638 532 641 c 1,9,-1
 535 655 l 1,10,11
 585 651 585 651 672 651 c 128,-1,12
 759 651 759 651 811 659 c 1,13,-1
 816 634 l 1,14,15
 768 619 768 619 719 613 c 1,16,17
 714 589 714 589 714 527.5 c 128,-1,18
 714 466 714 466 730.5 281 c 128,-1,19
 747 96 747 96 761 35 c 1,20,21
 814 30 814 30 871 16 c 1,22,-1
 868 -8 l 1,23,24
 794 0 794 0 708 0 c 128,-1,25
 622 0 622 0 569 -8 c 1,26,-1
 565 17 l 1,27,28
 610 31 610 31 661 38 c 1,29,30
 661 133 661 133 650 300 c 128,-1,31
 639 467 639 467 622 586 c 1,32,-1
 619 587 l 1,33,34
 476 191 476 191 469 105 c 1,35,36
 404 66 404 66 372 29 c 1,37,-1
 360 37 l 1,38,39
 362 59 362 59 362 70 c 0,40,41
 362 187 362 187 231 587 c 1,42,-1
 227 586 l 1,43,-1
 196 367 l 2,44,45
 176 224 176 224 176 109 c 0,46,47
 176 72 176 72 184.5 48 c 128,-1,48
 193 24 193 24 219 10 c 1,49,-1
 215 -4 l 1,50,51
 184 0 184 0 109.5 0 c 128,-1,52
 35 0 35 0 -24 -8 c 1,53,-1
 -28 17 l 1,54,55
 17 31 17 31 68 38 c 1,56,-1
 180 596 l 1,57,58
 62 596 62 596 29 564 c 1,59,60
 22 550 22 550 22 520 c 128,-1,61
 22 490 22 490 32 479 c 1,62,-1
 31 472 l 1,63,64
 6 457 6 457 -19 430 c 1,65,66
 -31 431 -31 431 -38.5 440 c 128,-1,67
 -46 449 -46 449 -46 461 c 0,68,69
 -46 510 -46 510 13 578 c 128,-1,70
 72 646 72 646 123 664 c 1,71,72
 131 664 131 664 195 657.5 c 128,-1,73
 259 651 259 651 294.5 651 c 128,-1,74
 330 651 330 651 362 657 c 1,75,-1
 366 632 l 1,76,77
 325 616 325 616 325 601 c 0,0,1
EndSplineSet
EndChar

StartChar: N
Encoding: 78 78 49
Width: 706
GlyphClass: 2
Flags: W
LayerCount: 2
Fore
SplineSet
523 296 m 2,0,1
 523 467 523 467 508 546.5 c 128,-1,2
 493 626 493 626 451 641 c 1,3,-1
 455 655 l 1,4,5
 486 651 486 651 556 651 c 128,-1,6
 626 651 626 651 685 659 c 1,7,-1
 688 636 l 1,8,9
 617 619 617 619 589 616 c 1,10,11
 576 518 576 518 576 355 c 2,12,-1
 576 296 l 2,13,14
 576 109 576 109 589 35 c 1,15,16
 640 29 640 29 685 17 c 1,17,-1
 681 -8 l 1,18,19
 628 0 628 0 574.5 0 c 128,-1,20
 521 0 521 0 488 -3 c 1,21,22
 488 30 488 30 423 144 c 128,-1,23
 358 258 358 258 187 525 c 1,24,-1
 183 523 l 1,25,-1
 183 355 l 2,26,27
 183 110 183 110 220 35 c 1,28,29
 275 30 275 30 329 16 c 1,30,-1
 327 -8 l 1,31,32
 253 0 253 0 166.5 0 c 128,-1,33
 80 0 80 0 27 -8 c 1,34,-1
 23 17 l 1,35,36
 68 31 68 31 119 38 c 1,37,38
 130 120 130 120 130 296 c 2,39,-1
 130 355 l 2,40,41
 130 496 130 496 118 596 c 1,42,43
 0 596 0 596 -33 564 c 1,44,45
 -40 550 -40 550 -40 520 c 128,-1,46
 -40 490 -40 490 -30 479 c 1,47,-1
 -31 472 l 1,48,49
 -56 457 -56 457 -81 430 c 1,50,51
 -93 431 -93 431 -100.5 440 c 128,-1,52
 -108 449 -108 449 -108 461 c 0,53,54
 -108 510 -108 510 -49 578 c 128,-1,55
 10 646 10 646 61 664 c 1,56,57
 73 663 73 663 128.5 657 c 128,-1,58
 184 651 184 651 220 651 c 128,-1,59
 256 651 256 651 287 657 c 1,60,-1
 291 632 l 1,61,62
 250 615 250 615 250 599 c 1,63,64
 255 572 255 572 307 485.5 c 128,-1,65
 359 399 359 399 519 150 c 1,66,-1
 523 152 l 1,67,-1
 523 296 l 2,0,1
EndSplineSet
EndChar

StartChar: O
Encoding: 79 79 50
Width: 602
GlyphClass: 2
Flags: W
LayerCount: 2
Fore
SplineSet
497.5 593 m 128,-1,1
 560 520 560 520 560 384.5 c 128,-1,2
 560 249 560 249 491.5 140.5 c 128,-1,3
 423 32 423 32 301 -15 c 1,4,5
 184 -15 184 -15 113 62.5 c 128,-1,6
 42 140 42 140 42 265 c 0,7,8
 42 469 42 469 190 603 c 1,9,-1
 202 595 l 1,10,11
 131 492 131 492 131 339 c 0,12,13
 131 230 131 230 181.5 143.5 c 128,-1,14
 232 57 232 57 322 57 c 0,15,16
 381 57 381 57 421 92 c 1,17,18
 471 184 471 184 471 310 c 0,19,20
 471 475 471 475 408 552 c 0,21,22
 374 594 374 594 323 594 c 0,23,24
 297 594 297 594 275 579 c 128,-1,25
 253 564 253 564 244 540 c 1,26,27
 244 520 244 520 253 493.5 c 128,-1,28
 262 467 262 467 276 460 c 1,29,-1
 278 453 l 1,30,31
 256 426 256 426 245 396 c 1,32,33
 243 395 243 395 237 395 c 0,34,35
 201 395 201 395 201 459 c 0,36,37
 201 567 201 567 313 666 c 1,38,0
 435 666 435 666 497.5 593 c 128,-1,1
EndSplineSet
EndChar

StartChar: P
Encoding: 80 80 51
Width: 512
GlyphClass: 2
Flags: W
LayerCount: 2
Fore
SplineSet
118 38 m 1,0,1
 130 120 130 120 130 305 c 128,-1,2
 130 490 130 490 120 598 c 1,3,4
 11 596 11 596 -20 566 c 1,5,6
 -27 552 -27 552 -27 522 c 128,-1,7
 -27 492 -27 492 -17 481 c 1,8,-1
 -18 474 l 1,9,10
 -43 459 -43 459 -68 432 c 1,11,12
 -80 433 -80 433 -87.5 442 c 128,-1,13
 -95 451 -95 451 -95 463 c 0,14,15
 -95 509 -95 509 -42.5 572 c 128,-1,16
 10 635 10 635 58 659 c 1,17,18
 143 651 143 651 324 651 c 0,19,20
 420 651 420 651 468.5 616 c 128,-1,21
 517 581 517 581 517 493 c 128,-1,22
 517 405 517 405 444 350 c 128,-1,23
 371 295 371 295 274 295 c 0,24,25
 259 295 259 295 252 296 c 1,26,-1
 256 328 l 1,27,-1
 268 328 l 2,28,29
 343 328 343 328 383 366 c 128,-1,30
 423 404 423 404 423 475.5 c 128,-1,31
 423 547 423 547 389.5 574 c 128,-1,32
 356 601 356 601 283 601 c 0,33,34
 245 601 245 601 215 598 c 1,35,36
 207 509 207 509 207 316.5 c 128,-1,37
 207 124 207 124 219 35 c 1,38,39
 272 30 272 30 329 16 c 1,40,-1
 326 -8 l 1,41,42
 252 0 252 0 165.5 0 c 128,-1,43
 79 0 79 0 26 -8 c 1,44,-1
 22 17 l 1,45,46
 67 31 67 31 118 38 c 1,0,1
EndSplineSet
EndChar

StartChar: Q
Encoding: 81 81 52
Width: 602
GlyphClass: 2
Flags: W
LayerCount: 2
Fore
SplineSet
777 -78 m 0,0,1
 777 -109 777 -109 725 -139 c 128,-1,2
 673 -169 673 -169 613 -184.5 c 128,-1,3
 553 -200 553 -200 516 -200 c 1,4,5
 311 -56 311 -56 211 -56 c 0,6,7
 148 -56 148 -56 104 -90 c 1,8,-1
 87 -74 l 1,9,10
 115 -49 115 -49 161.5 -22.5 c 128,-1,11
 208 4 208 4 245 16 c 1,12,13
 252 16 252 16 279 11 c 1,14,15
 471 112 471 112 471 310 c 0,16,17
 471 427 471 427 430 507 c 0,18,19
 409 548 409 548 370.5 571 c 128,-1,20
 332 594 332 594 276 594 c 128,-1,21
 220 594 220 594 182 560 c 1,22,23
 139 486 139 486 139 375 c 0,24,25
 139 141 139 141 258 141 c 0,26,27
 284 141 284 141 306 156 c 128,-1,28
 328 171 328 171 337 195 c 1,29,30
 337 215 337 215 328 241.5 c 128,-1,31
 319 268 319 268 305 275 c 1,32,-1
 303 282 l 1,33,34
 325 309 325 309 336 339 c 1,35,36
 338 340 338 340 344 340 c 0,37,38
 380 340 380 340 380 276 c 0,39,40
 380 168 380 168 268 69 c 1,41,42
 164 69 164 69 108.5 130 c 128,-1,43
 53 191 53 191 53 308 c 128,-1,44
 53 425 53 425 124.5 529 c 128,-1,45
 196 633 196 633 313 666 c 1,46,47
 435 666 435 666 497.5 593 c 128,-1,48
 560 520 560 520 560 388 c 128,-1,49
 560 256 560 256 498.5 154 c 128,-1,50
 437 52 437 52 320 0 c 1,51,52
 377 -19 377 -19 493.5 -83.5 c 128,-1,53
 610 -148 610 -148 646 -148 c 0,54,55
 667 -148 667 -148 681.5 -123 c 128,-1,56
 696 -98 696 -98 696 -73 c 1,57,-1
 700 -66 l 1,58,59
 733 -66 733 -66 765 -56 c 1,60,61
 777 -65 777 -65 777 -78 c 0,0,1
EndSplineSet
EndChar

StartChar: R
Encoding: 82 82 53
Width: 619
GlyphClass: 2
Flags: W
LayerCount: 2
Fore
SplineSet
131 35 m 1,0,1
 144 131 144 131 144 310.5 c 128,-1,2
 144 490 144 490 134 598 c 1,3,4
 25 596 25 596 -6 566 c 1,5,6
 -13 552 -13 552 -13 522 c 128,-1,7
 -13 492 -13 492 -3 481 c 1,8,-1
 -4 474 l 1,9,10
 -29 459 -29 459 -54 432 c 1,11,12
 -66 433 -66 433 -73.5 442 c 128,-1,13
 -81 451 -81 451 -81 463 c 0,14,15
 -81 509 -81 509 -28.5 572 c 128,-1,16
 24 635 24 635 72 659 c 1,17,18
 157 651 157 651 318 651 c 0,19,20
 420 651 420 651 473 620.5 c 128,-1,21
 526 590 526 590 526 504 c 0,22,23
 526 382 526 382 401 334 c 1,24,-1
 541 38 l 1,25,26
 592 31 592 31 637 17 c 1,27,-1
 633 -8 l 1,28,29
 574 0 574 0 505.5 0 c 128,-1,30
 437 0 437 0 406 -4 c 1,31,-1
 402 10 l 1,32,33
 419 27 419 27 419 67 c 0,34,35
 419 147 419 147 325 322 c 1,36,37
 300 327 300 327 267 327 c 1,38,-1
 270 349 l 1,39,-1
 282 349 l 2,40,41
 354 349 354 349 393 384.5 c 128,-1,42
 432 420 432 420 432 487.5 c 128,-1,43
 432 555 432 555 397 578 c 128,-1,44
 362 601 362 601 287 601 c 0,45,46
 252 601 252 601 229 598 c 1,47,48
 221 509 221 509 221 311 c 128,-1,49
 221 113 221 113 232 38 c 1,50,51
 283 31 283 31 328 17 c 1,52,-1
 324 -8 l 1,53,54
 271 0 271 0 184.5 0 c 128,-1,55
 98 0 98 0 24 -8 c 1,56,-1
 21 16 l 1,57,58
 78 30 78 30 131 35 c 1,0,1
EndSplineSet
EndChar

StartChar: S
Encoding: 83 83 54
Width: 465
GlyphClass: 2
Flags: W
LayerCount: 2
Fore
SplineSet
11 12 m 0,0,1
 11 100 11 100 49.5 164 c 128,-1,2
 88 228 88 228 130 228 c 0,3,4
 141 228 141 228 152 221 c 1,5,-1
 155 214 l 1,6,7
 142 189 142 189 139 151 c 1,8,-1
 133 147 l 1,9,10
 129 149 129 149 118 149 c 128,-1,11
 107 149 107 149 85.5 137 c 128,-1,12
 64 125 64 125 52 113 c 1,13,14
 45 99 45 99 45 81 c 0,15,16
 45 34 45 34 108.5 0.5 c 128,-1,17
 172 -33 172 -33 231 -33 c 0,18,19
 354 -33 354 -33 354 107 c 0,20,21
 354 160 354 160 253 240 c 0,22,23
 211 274 211 274 169 308 c 0,24,25
 68 388 68 388 68 447 c 0,26,27
 68 517 68 517 131 577.5 c 128,-1,28
 194 638 194 638 274 666 c 1,29,30
 360 666 360 666 437 649 c 1,31,-1
 437 629 l 1,32,33
 385 581 385 581 379 481 c 1,34,-1
 354 481 l 1,35,36
 354 534 354 534 349 574 c 1,37,38
 306 594 306 594 255.5 594 c 128,-1,39
 205 594 205 594 170 572.5 c 128,-1,40
 135 551 135 551 135 518 c 128,-1,41
 135 485 135 485 164.5 451.5 c 128,-1,42
 194 418 194 418 236 386.5 c 128,-1,43
 278 355 278 355 319.5 322.5 c 128,-1,44
 361 290 361 290 390.5 252.5 c 128,-1,45
 420 215 420 215 420 180 c 0,46,47
 420 80 420 80 365 2 c 128,-1,48
 310 -76 310 -76 215 -115 c 1,49,50
 90 -102 90 -102 15 -45 c 1,51,52
 11 -17 11 -17 11 12 c 0,0,1
EndSplineSet
EndChar

StartChar: T
Encoding: 84 84 55
Width: 519
GlyphClass: 2
Flags: W
LayerCount: 2
Fore
SplineSet
284.5 654 m 128,-1,1
 374 645 374 645 412 645 c 128,-1,2
 450 645 450 645 469 651 c 1,3,4
 515 695 515 695 534 718 c 1,5,-1
 550 706 l 1,6,7
 497 637 497 637 486 562 c 1,8,-1
 453 571 l 2,9,10
 387 589 387 589 305 595 c 1,11,12
 298 486 298 486 298 308.5 c 128,-1,13
 298 131 298 131 311 35 c 1,14,15
 361 30 361 30 421 16 c 1,16,-1
 418 -8 l 1,17,18
 344 0 344 0 257.5 0 c 128,-1,19
 171 0 171 0 118 -8 c 1,20,-1
 114 17 l 1,21,22
 159 31 159 31 210 38 c 1,23,24
 221 120 221 120 221 296 c 2,25,-1
 221 355 l 2,26,27
 221 454 221 454 209 598 c 1,28,-1
 183 598 l 2,29,30
 65 598 65 598 32 566 c 1,31,32
 25 552 25 552 25 522 c 128,-1,33
 25 492 25 492 35 481 c 1,34,-1
 34 474 l 1,35,36
 9 459 9 459 -16 432 c 1,37,38
 -28 433 -28 433 -35.5 442 c 128,-1,39
 -43 451 -43 451 -43 463 c 0,40,41
 -43 512 -43 512 16 580 c 128,-1,42
 75 648 75 648 126 666 c 1,43,0
 195 663 195 663 284.5 654 c 128,-1,1
EndSplineSet
EndChar

StartChar: U
Encoding: 85 85 56
Width: 665
GlyphClass: 2
Flags: W
LayerCount: 2
Fore
SplineSet
197 549 m 0,0,1
 183 423 183 423 183 325 c 128,-1,2
 183 227 183 227 188 192.5 c 128,-1,3
 193 158 193 158 208 128 c 0,4,5
 237 66 237 66 320 66 c 128,-1,6
 403 66 403 66 453 112 c 1,7,8
 458 242 458 242 458 372 c 128,-1,9
 458 502 458 502 447 616 c 1,10,11
 396 623 396 623 351 637 c 1,12,-1
 355 659 l 1,13,14
 416 651 416 651 503.5 651 c 128,-1,15
 591 651 591 651 655 659 c 1,16,-1
 658 638 l 1,17,18
 601 624 601 624 548 619 c 1,19,20
 535 545 535 545 535 355 c 2,21,-1
 535 296 l 2,22,23
 535 109 535 109 548 35 c 1,24,25
 601 30 601 30 658 16 c 1,26,-1
 655 -8 l 1,27,28
 591 0 591 0 525 0 c 128,-1,29
 459 0 459 0 441 -1 c 1,30,-1
 438 13 l 1,31,32
 447 24 447 24 451 84 c 1,33,34
 393 19 393 19 305 -15 c 1,35,36
 192 -15 192 -15 147.5 50.5 c 128,-1,37
 103 116 103 116 103 241 c 0,38,39
 103 298 103 298 110 422 c 128,-1,40
 117 546 117 546 117 561 c 128,-1,41
 117 576 117 576 114 596 c 1,42,43
 -4 596 -4 596 -37 564 c 1,44,45
 -44 550 -44 550 -44 520 c 128,-1,46
 -44 490 -44 490 -34 479 c 1,47,-1
 -35 472 l 1,48,49
 -60 457 -60 457 -85 430 c 1,50,51
 -97 431 -97 431 -104.5 440 c 128,-1,52
 -112 449 -112 449 -112 461 c 0,53,54
 -112 510 -112 510 -53 578 c 128,-1,55
 6 646 6 646 57 664 c 1,56,57
 80 663 80 663 117.5 657 c 128,-1,58
 155 651 155 651 186 651 c 128,-1,59
 217 651 217 651 245 655 c 1,60,-1
 249 641 l 1,61,62
 204 616 204 616 197 549 c 0,0,1
EndSplineSet
EndChar

StartChar: V
Encoding: 86 86 57
Width: 599
GlyphClass: 2
Flags: W
LayerCount: 2
Fore
SplineSet
423 -8 m 1,0,1
 364 0 364 0 291.5 0 c 128,-1,2
 219 0 219 0 188 -4 c 1,3,-1
 184 10 l 1,4,5
 196 14 196 14 207 22.5 c 128,-1,6
 218 31 218 31 218 41 c 0,7,8
 218 114 218 114 85 529 c 0,9,10
 73 567 73 567 61 596 c 1,11,12
 -56 596 -56 596 -89 564 c 1,13,14
 -96 550 -96 550 -96 520 c 128,-1,15
 -96 490 -96 490 -86 479 c 1,16,-1
 -87 472 l 1,17,18
 -112 457 -112 457 -137 430 c 1,19,20
 -149 431 -149 431 -156.5 440 c 128,-1,21
 -164 449 -164 449 -164 461 c 0,22,23
 -164 510 -164 510 -105 578 c 128,-1,24
 -46 646 -46 646 5 664 c 1,25,26
 13 664 13 664 77 657.5 c 128,-1,27
 141 651 141 651 177.5 651 c 128,-1,28
 214 651 214 651 245 657 c 1,29,-1
 249 632 l 1,30,31
 217 620 217 620 164 606 c 1,32,33
 174 521 174 521 216.5 362.5 c 128,-1,34
 259 204 259 204 307 69 c 1,35,36
 391 255 391 255 419.5 351.5 c 128,-1,37
 448 448 448 448 448 518 c 0,38,39
 448 612 448 612 398 641 c 1,40,-1
 402 655 l 1,41,42
 433 651 433 651 501.5 651 c 128,-1,43
 570 651 570 651 629 659 c 1,44,-1
 633 634 l 1,45,46
 588 620 588 620 537 613 c 1,47,48
 542 578 542 578 542 555 c 0,49,50
 542 467 542 467 498.5 366 c 128,-1,51
 455 265 455 265 331 35 c 1,52,53
 382 28 382 28 427 14 c 1,54,-1
 423 -8 l 1,0,1
EndSplineSet
EndChar

StartChar: W
Encoding: 87 87 58
Width: 906
GlyphClass: 2
Flags: W
LayerCount: 2
Fore
SplineSet
373 -4 m 1,0,1
 325 0 325 0 272 0 c 128,-1,2
 219 0 219 0 188 -4 c 1,3,-1
 184 10 l 1,4,5
 196 14 196 14 207 22.5 c 128,-1,6
 218 31 218 31 218 41 c 0,7,8
 218 114 218 114 85 529 c 0,9,10
 73 567 73 567 61 596 c 1,11,12
 -56 596 -56 596 -89 564 c 1,13,14
 -96 550 -96 550 -96 520 c 128,-1,15
 -96 490 -96 490 -86 479 c 1,16,-1
 -87 472 l 1,17,18
 -112 457 -112 457 -137 430 c 1,19,20
 -149 431 -149 431 -156.5 440 c 128,-1,21
 -164 449 -164 449 -164 461 c 0,22,23
 -164 510 -164 510 -105 578 c 128,-1,24
 -46 646 -46 646 5 664 c 1,25,26
 13 664 13 664 77 657.5 c 128,-1,27
 141 651 141 651 179 651 c 2,28,-1
 296 651 l 2,29,30
 512 651 512 651 609 661 c 1,31,-1
 613 636 l 1,32,33
 569 622 569 622 517 613 c 1,34,35
 522 578 522 578 522 549.5 c 128,-1,36
 522 521 522 521 514 478 c 1,37,38
 552 308 552 308 634 69 c 1,39,40
 708 256 708 256 731.5 352.5 c 128,-1,41
 755 449 755 449 755 518 c 0,42,43
 755 612 755 612 705 641 c 1,44,-1
 709 655 l 1,45,46
 740 651 740 651 808.5 651 c 128,-1,47
 877 651 877 651 936 659 c 1,48,-1
 940 634 l 1,49,50
 895 620 895 620 844 613 c 1,51,52
 849 578 849 578 849 555 c 0,53,54
 849 471 849 471 807.5 362 c 128,-1,55
 766 253 766 253 657 34 c 1,56,57
 674 25 674 25 703 17 c 1,58,-1
 700 -4 l 1,59,60
 652 0 652 0 599 0 c 128,-1,61
 546 0 546 0 515 -4 c 1,62,-1
 511 10 l 1,63,64
 523 14 523 14 534 22.5 c 128,-1,65
 545 31 545 31 545 41 c 0,66,67
 545 100 545 100 474 340 c 1,68,-1
 470 340 l 1,69,70
 423 219 423 219 330 34 c 1,71,72
 347 25 347 25 376 17 c 1,73,-1
 373 -4 l 1,0,1
404.5 352.5 m 128,-1,75
 428 449 428 449 428 517.5 c 128,-1,76
 428 586 428 586 403 606.5 c 128,-1,77
 378 627 378 627 300.5 627 c 128,-1,78
 223 627 223 627 164 609 c 1,79,80
 173 527 173 527 215.5 366 c 128,-1,81
 258 205 258 205 307 69 c 1,82,74
 381 256 381 256 404.5 352.5 c 128,-1,75
EndSplineSet
EndChar

StartChar: X
Encoding: 88 88 59
Width: 645
GlyphClass: 2
Flags: W
LayerCount: 2
Fore
SplineSet
452 609 m 0,0,1
 452 631 452 631 432 641 c 1,2,-1
 436 655 l 1,3,4
 486 651 486 651 541.5 651 c 128,-1,5
 597 651 597 651 649 659 c 1,6,-1
 654 634 l 1,7,8
 606 619 606 619 557 613 c 1,9,10
 504 529 504 529 367 348 c 1,11,-1
 563 38 l 1,12,13
 614 31 614 31 659 17 c 1,14,-1
 655 -8 l 1,15,16
 596 0 596 0 527.5 0 c 128,-1,17
 459 0 459 0 428 -4 c 1,18,-1
 424 10 l 1,19,20
 428 18 428 18 428 32 c 0,21,22
 428 97 428 97 313 286 c 1,23,24
 184 71 184 71 184 35 c 1,25,26
 237 30 237 30 294 16 c 1,27,-1
 291 -8 l 1,28,29
 211 0 211 0 129.5 0 c 128,-1,30
 48 0 48 0 -9 -8 c 1,31,-1
 -14 17 l 1,32,33
 34 32 34 32 83 38 c 1,34,35
 143 133 143 133 287 327 c 1,36,-1
 126 596 l 1,37,38
 26 596 26 596 -7 564 c 1,39,40
 -14 550 -14 550 -14 520 c 128,-1,41
 -14 490 -14 490 -4 479 c 1,42,-1
 -5 472 l 1,43,44
 -30 457 -30 457 -55 430 c 1,45,46
 -67 431 -67 431 -74.5 440 c 128,-1,47
 -82 449 -82 449 -82 461 c 0,48,49
 -82 510 -82 510 -23 578 c 128,-1,50
 36 646 36 646 87 664 c 1,51,52
 95 664 95 664 159 657.5 c 128,-1,53
 223 651 223 651 259.5 651 c 128,-1,54
 296 651 296 651 327 657 c 1,55,-1
 331 632 l 1,56,57
 292 617 292 617 242 605 c 1,58,59
 250 540 250 540 342 387 c 1,60,61
 452 567 452 567 452 609 c 0,0,1
EndSplineSet
EndChar

StartChar: Y
Encoding: 89 89 60
Width: 545
GlyphClass: 2
Flags: W
LayerCount: 2
Fore
SplineSet
234 245 m 2,0,-1
 234 271 l 1,1,-1
 64 635 l 2,2,3
 25 719 25 719 -21 740 c 1,4,5
 -39 740 -39 740 -65 727 c 128,-1,6
 -91 714 -91 714 -97 701 c 1,7,-1
 -103 699 l 1,8,9
 -130 717 -130 717 -163 727 c 1,10,11
 -166 733 -166 733 -166 743.5 c 128,-1,12
 -166 754 -166 754 -149.5 763.5 c 128,-1,13
 -133 773 -133 773 -103 773 c 0,14,15
 -40 773 -40 773 45.5 738 c 128,-1,16
 131 703 131 703 164 666 c 1,17,18
 185 576 185 576 210.5 511.5 c 128,-1,19
 236 447 236 447 291 337 c 1,20,21
 402 554 402 554 402 609 c 0,22,23
 402 631 402 631 382 641 c 1,24,-1
 386 655 l 1,25,26
 436 651 436 651 491.5 651 c 128,-1,27
 547 651 547 651 599 659 c 1,28,-1
 604 634 l 1,29,30
 556 619 556 619 507 613 c 1,31,-1
 311 298 l 1,32,33
 311 131 311 131 324 35 c 1,34,35
 377 30 377 30 434 16 c 1,36,-1
 431 -8 l 1,37,38
 357 0 357 0 270.5 0 c 128,-1,39
 184 0 184 0 131 -8 c 1,40,-1
 127 17 l 1,41,42
 172 31 172 31 223 38 c 1,43,44
 234 120 234 120 234 245 c 2,0,-1
EndSplineSet
EndChar

StartChar: Z
Encoding: 90 90 61
Width: 459
GlyphClass: 2
Flags: W
LayerCount: 2
Fore
SplineSet
123 611 m 0,0,1
 59 611 59 611 59 545 c 0,2,3
 59 532 59 532 62 522 c 1,4,-1
 60 514 l 1,5,6
 27 505 27 505 0 487 c 1,7,8
 -18 494 -18 494 -18 515 c 0,9,10
 -18 565 -18 565 57.5 615 c 128,-1,11
 133 665 133 665 203 684 c 1,12,13
 300 648 300 648 332.5 644.5 c 128,-1,14
 365 641 365 641 383 641 c 0,15,16
 457 641 457 641 489 679 c 1,17,-1
 511 661 l 1,18,19
 461 615 461 615 420 543 c 2,20,-1
 154 84 l 1,21,22
 205 61 205 61 259.5 20 c 128,-1,23
 314 -21 314 -21 350 -55 c 0,24,25
 441 -141 441 -141 485 -141 c 0,26,27
 506 -141 506 -141 520.5 -116 c 128,-1,28
 535 -91 535 -91 535 -66 c 1,29,-1
 539 -59 l 1,30,31
 572 -59 572 -59 604 -49 c 1,32,33
 616 -58 616 -58 616 -71 c 0,34,35
 616 -102 616 -102 564 -132 c 128,-1,36
 512 -162 512 -162 452 -177.5 c 128,-1,37
 392 -193 392 -193 355 -193 c 1,38,39
 262 -89 262 -89 201.5 -41.5 c 128,-1,40
 141 6 141 6 84.5 6 c 128,-1,41
 28 6 28 6 -15 -35 c 1,42,-1
 -37 -17 l 1,43,44
 21 37 21 37 86 143 c 2,45,-1
 359 593 l 1,46,47
 343 585 343 585 325 580 c 1,48,49
 182 611 182 611 123 611 c 0,0,1
EndSplineSet
EndChar

StartChar: bracketleft
Encoding: 91 91 62
Width: 326
GlyphClass: 2
Flags: W
LayerCount: 2
Fore
SplineSet
270 -193 m 0,0,1
 162 -193 162 -193 101 -208 c 1,2,-1
 94 -203 l 1,3,4
 104 -134 104 -134 104 248 c 128,-1,5
 104 630 104 630 94 699 c 1,6,-1
 101 704 l 1,7,8
 162 689 162 689 270 689 c 0,9,10
 283 689 283 689 296 689 c 1,11,-1
 296 668 l 1,12,13
 218 666 218 666 164 651 c 1,14,-1
 164 -155 l 1,15,16
 218 -170 218 -170 296 -172 c 1,17,-1
 296 -193 l 1,18,19
 283 -193 283 -193 270 -193 c 0,0,1
EndSplineSet
EndChar

StartChar: backslash
Encoding: 92 92 63
Width: 351
GlyphClass: 2
Flags: W
LayerCount: 2
Fore
SplineSet
282 -45 m 1,0,-1
 277 -45 l 1,1,-1
 99 478 l 2,2,3
 53 615 53 615 21 696 c 1,4,5
 53 707 53 707 69 717 c 1,6,-1
 73 717 l 1,7,8
 99 622 99 622 142 493 c 1,9,-1
 251 175 l 2,10,11
 283 82 283 82 323 -17 c 1,12,13
 309 -33 309 -33 282 -45 c 1,0,-1
EndSplineSet
EndChar

StartChar: bracketright
Encoding: 93 93 64
Width: 326
GlyphClass: 2
Flags: W
LayerCount: 2
Fore
SplineSet
56 689 m 0,0,1
 164 689 164 689 225 704 c 1,2,-1
 232 699 l 1,3,4
 222 630 222 630 222 248 c 128,-1,5
 222 -134 222 -134 232 -203 c 1,6,-1
 225 -208 l 1,7,8
 164 -193 164 -193 56 -193 c 0,9,10
 43 -193 43 -193 30 -193 c 1,11,-1
 30 -172 l 1,12,13
 108 -170 108 -170 162 -155 c 1,14,-1
 162 651 l 1,15,16
 108 666 108 666 30 668 c 1,17,-1
 30 689 l 1,18,19
 43 689 43 689 56 689 c 0,0,1
EndSplineSet
EndChar

StartChar: asciicircum
Encoding: 94 94 65
Width: 518
GlyphClass: 2
Flags: W
LayerCount: 2
Fore
SplineSet
259 580 m 1,0,-1
 79 291 l 1,1,-1
 50 306 l 1,2,3
 142 464 142 464 231 686 c 1,4,-1
 284 696 l 1,5,6
 379 458 379 458 468 306 c 1,7,-1
 439 291 l 1,8,-1
 259 580 l 1,0,-1
EndSplineSet
EndChar

StartChar: underscore
Encoding: 95 95 66
Width: 615
GlyphClass: 2
Flags: W
LayerCount: 2
Fore
SplineSet
5 -134 m 1,0,1
 175 -143 175 -143 374.5 -143 c 128,-1,2
 574 -143 574 -143 613 -140 c 1,3,-1
 619 -146 l 1,4,-1
 611 -185 l 1,5,-1
 5 -185 l 1,6,-1
 -3 -178 l 1,7,-1
 5 -134 l 1,0,1
EndSplineSet
EndChar

StartChar: grave
Encoding: 96 96 67
Width: 200
GlyphClass: 2
Flags: W
LayerCount: 2
Fore
SplineSet
25 726 m 1,0,1
 35 728 35 728 46.5 728 c 128,-1,2
 58 728 58 728 68 727 c 1,3,4
 92 685 92 685 127.5 643 c 128,-1,5
 163 601 163 601 200 576 c 1,6,-1
 189 558 l 1,7,-1
 0 667 l 1,8,9
 1 677 1 677 9.5 697.5 c 128,-1,10
 18 718 18 718 25 726 c 1,0,1
EndSplineSet
EndChar

StartChar: a
Encoding: 97 97 68
Width: 535
GlyphClass: 2
Flags: W
LayerCount: 2
Fore
SplineSet
108 532 m 1,0,1
 202 521 202 521 298 521 c 128,-1,2
 394 521 394 521 487 532 c 1,3,-1
 491 506 l 1,4,5
 461 494 461 494 429 488 c 1,6,7
 418 406 418 406 418 260 c 128,-1,8
 418 114 418 114 429 32 c 1,9,10
 449 29 449 29 503 17 c 1,11,-1
 499 -8 l 1,12,13
 451 0 451 0 376 0 c 128,-1,14
 301 0 301 0 261 -8 c 1,15,-1
 257 18 l 1,16,17
 291 29 291 29 334 34 c 1,18,19
 340 92 340 92 343 195 c 1,20,21
 296 200 296 200 249 200 c 128,-1,22
 202 200 202 200 167 195 c 1,23,24
 147 113 147 113 147 81 c 0,25,26
 147 32 147 32 182 12 c 1,27,-1
 178 -5 l 1,28,29
 155 0 155 0 91 0 c 128,-1,30
 27 0 27 0 -10 -8 c 1,31,-1
 -14 18 l 1,32,33
 10 27 10 27 52 34 c 1,34,-1
 182 490 l 1,35,36
 138 497 138 497 105 506 c 1,37,-1
 108 532 l 1,0,1
175 242 m 1,38,39
 214 236 214 236 261.5 236 c 128,-1,40
 309 236 309 236 343 242 c 1,41,42
 343 427 343 427 335 481 c 1,43,44
 301 483 301 483 284.5 483 c 128,-1,45
 268 483 268 483 234 481 c 1,46,-1
 175 242 l 1,38,39
EndSplineSet
EndChar

StartChar: b
Encoding: 98 98 69
Width: 524
GlyphClass: 2
Flags: W
LayerCount: 2
Fore
SplineSet
38 519 m 1,0,-1
 277 526 l 1,1,2
 375 526 375 526 408 502 c 1,3,4
 440 480 440 480 440 434.5 c 128,-1,5
 440 389 440 389 407.5 352.5 c 128,-1,6
 375 316 375 316 328 298 c 1,7,-1
 328 294 l 1,8,9
 388 294 388 294 425 268.5 c 128,-1,10
 462 243 462 243 462 185.5 c 128,-1,11
 462 128 462 128 398 67.5 c 128,-1,12
 334 7 334 7 267 -12 c 1,13,14
 243 -12 243 -12 201.5 -2 c 128,-1,15
 160 8 160 8 134 18 c 1,16,17
 123 5 123 5 114 -19 c 1,18,-1
 93 -14 l 1,19,20
 112 75 112 75 112 237.5 c 128,-1,21
 112 400 112 400 103 481 c 1,22,23
 69 494 69 494 38 494 c 1,24,-1
 38 519 l 1,0,-1
235 308 m 2,25,26
 297 308 297 308 325 325 c 1,27,28
 350 356 350 356 350 404 c 0,29,30
 350 491 350 491 255 491 c 0,31,32
 222 491 222 491 194 480 c 1,33,34
 187 412 187 412 187 271 c 128,-1,35
 187 130 187 130 191 74 c 1,36,37
 232 52 232 52 281.5 52 c 128,-1,38
 331 52 331 52 357 71 c 1,39,40
 374 105 374 105 374 153 c 0,41,42
 374 219 374 219 335 246 c 128,-1,43
 296 273 296 273 222 273 c 1,44,-1
 226 308 l 1,45,-1
 235 308 l 2,25,26
EndSplineSet
EndChar

StartChar: c
Encoding: 99 99 70
Width: 434
GlyphClass: 2
Flags: W
LayerCount: 2
Fore
SplineSet
269 58 m 0,0,1
 338 58 338 58 399 119 c 1,2,-1
 413 105 l 1,3,4
 346 20 346 20 252 -12 c 1,5,6
 155 -12 155 -12 100 49.5 c 128,-1,7
 45 111 45 111 45 215.5 c 128,-1,8
 45 320 45 320 110 412 c 128,-1,9
 175 504 175 504 276 533 c 1,10,11
 349 533 349 533 441 518 c 1,12,-1
 440 496 l 1,13,14
 421 496 421 496 404 489 c 1,15,16
 385 444 385 444 379 382 c 1,17,-1
 354 382 l 1,18,19
 346 416 346 416 346 452 c 1,20,21
 308 471 308 471 256 471 c 128,-1,22
 204 471 204 471 170 443 c 1,23,24
 131 372 131 372 131 271 c 0,25,26
 131 114 131 114 198 74 c 1,27,28
 227 58 227 58 269 58 c 0,0,1
EndSplineSet
EndChar

StartChar: d
Encoding: 100 100 71
Width: 539
GlyphClass: 2
Flags: W
LayerCount: 2
Fore
SplineSet
36 519 m 1,0,-1
 266 526 l 1,1,2
 380 526 380 526 441.5 472 c 128,-1,3
 503 418 503 418 503 310.5 c 128,-1,4
 503 203 503 203 435.5 110 c 128,-1,5
 368 17 368 17 268 -12 c 1,6,7
 242 -12 242 -12 200.5 -2.5 c 128,-1,8
 159 7 159 7 132 18 c 1,9,10
 121 5 121 5 112 -19 c 1,11,-1
 91 -14 l 1,12,13
 110 75 110 75 110 237.5 c 128,-1,14
 110 400 110 400 101 481 c 1,15,16
 67 494 67 494 36 494 c 1,17,-1
 36 519 l 1,0,-1
329.5 472 m 128,-1,19
 297 491 297 491 258.5 491 c 128,-1,20
 220 491 220 491 192 480 c 1,21,22
 185 415 185 415 185 272.5 c 128,-1,23
 185 130 185 130 189 75 c 1,24,25
 239 52 239 52 291.5 52 c 128,-1,26
 344 52 344 52 375 79 c 1,27,28
 413 151 413 151 413 256 c 0,29,30
 413 354 413 354 380 419 c 0,31,18
 362 453 362 453 329.5 472 c 128,-1,19
EndSplineSet
EndChar

StartChar: e
Encoding: 101 101 72
Width: 448
GlyphClass: 2
Flags: W
LayerCount: 2
Fore
SplineSet
164 108 m 128,-1,1
 194 58 194 58 266 58 c 128,-1,2
 338 58 338 58 399 119 c 1,3,-1
 413 105 l 1,4,5
 346 20 346 20 252 -12 c 1,6,7
 155 -12 155 -12 100 49.5 c 128,-1,8
 45 111 45 111 45 215.5 c 128,-1,9
 45 320 45 320 110 412 c 128,-1,10
 175 504 175 504 276 533 c 1,11,12
 349 533 349 533 441 518 c 1,13,-1
 440 496 l 1,14,15
 421 496 421 496 404 489 c 1,16,17
 385 444 385 444 379 382 c 1,18,-1
 354 382 l 1,19,20
 346 416 346 416 346 452 c 1,21,22
 308 471 308 471 256 471 c 128,-1,23
 204 471 204 471 170 443 c 1,24,25
 136 381 136 381 131 295 c 1,26,27
 173 288 173 288 221 288 c 0,28,29
 304 288 304 288 321 323 c 1,30,-1
 342 320 l 1,31,32
 333 290 333 290 333 261 c 128,-1,33
 333 232 333 232 340 190 c 1,34,-1
 316 186 l 1,35,36
 305 216 305 216 300 248 c 1,37,38
 260 252 260 252 220.5 252 c 128,-1,39
 181 252 181 252 131 247 c 1,40,0
 134 158 134 158 164 108 c 128,-1,1
EndSplineSet
EndChar

StartChar: f
Encoding: 102 102 73
Width: 440
GlyphClass: 2
Flags: W
LayerCount: 2
Fore
SplineSet
351 467 m 1,0,1
 316 484 316 484 270 484 c 128,-1,2
 224 484 224 484 200 480 c 1,3,4
 192 426 192 426 192 295 c 1,5,6
 227 288 227 288 259 288 c 0,7,8
 318 288 318 288 335 323 c 1,9,-1
 356 320 l 1,10,11
 347 290 347 290 347 261 c 128,-1,12
 347 232 347 232 354 190 c 1,13,-1
 330 186 l 1,14,15
 319 216 319 216 314 248 c 1,16,17
 274 252 274 252 254 252 c 128,-1,18
 234 252 234 252 192 247 c 1,19,20
 192 111 192 111 201 33 c 1,21,22
 245 28 245 28 290 17 c 1,23,-1
 287 -8 l 1,24,25
 238 0 238 0 169 0 c 128,-1,26
 100 0 100 0 49 -8 c 1,27,-1
 45 18 l 1,28,29
 75 28 75 28 108 33 c 1,30,31
 117 105 117 105 117 237 c 2,32,-1
 117 284 l 2,33,34
 117 376 117 376 107 488 c 1,35,36
 71 495 71 495 43 506 c 1,37,-1
 46 531 l 1,38,39
 121 521 121 521 239.5 521 c 128,-1,40
 358 521 358 521 423 532 c 1,41,-1
 428 512 l 1,42,43
 388 470 388 470 383 387 c 1,44,-1
 358 387 l 1,45,46
 351 420 351 420 351 467 c 1,0,1
EndSplineSet
EndChar

StartChar: g
Encoding: 103 103 74
Width: 492
GlyphClass: 2
Flags: W
LayerCount: 2
Fore
SplineSet
269 58 m 0,0,1
 312 58 312 58 354 83 c 1,2,-1
 352 141 l 1,3,4
 349 188 349 188 349 190 c 1,5,6
 321 199 321 199 281 206 c 1,7,-1
 284 227 l 1,8,9
 308 225 308 225 319 225 c 0,10,11
 388 225 388 225 444 262 c 1,12,-1
 454 244 l 1,13,14
 442 233 442 233 432 221 c 1,15,16
 418 85 418 85 414 -3 c 1,17,-1
 393 -3 l 1,18,19
 385 34 385 34 369 58 c 1,20,21
 311 7 311 7 252 -12 c 1,22,23
 155 -12 155 -12 100 49.5 c 128,-1,24
 45 111 45 111 45 215.5 c 128,-1,25
 45 320 45 320 110 412 c 128,-1,26
 175 504 175 504 276 533 c 1,27,28
 349 533 349 533 441 518 c 1,29,-1
 440 496 l 1,30,31
 421 496 421 496 404 489 c 1,32,33
 385 444 385 444 379 382 c 1,34,-1
 354 382 l 1,35,36
 346 416 346 416 346 452 c 1,37,38
 308 471 308 471 256 471 c 128,-1,39
 204 471 204 471 170 443 c 1,40,41
 130 370 130 370 130 270.5 c 128,-1,42
 130 171 130 171 159.5 114.5 c 128,-1,43
 189 58 189 58 269 58 c 0,0,1
EndSplineSet
EndChar

StartChar: h
Encoding: 104 104 75
Width: 618
GlyphClass: 2
Flags: W
LayerCount: 2
Fore
SplineSet
359 529 m 1,0,1
 410 521 410 521 474.5 521 c 128,-1,2
 539 521 539 521 591 528 c 1,3,-1
 594 503 l 1,4,5
 556 493 556 493 511 488 c 1,6,7
 501 426 501 426 501 284 c 2,8,-1
 501 237 l 2,9,10
 501 93 501 93 511 33 c 1,11,12
 556 28 556 28 594 18 c 1,13,-1
 591 -7 l 1,14,15
 539 0 539 0 474.5 0 c 128,-1,16
 410 0 410 0 359 -8 c 1,17,-1
 355 18 l 1,18,19
 383 27 383 27 418 33 c 1,20,21
 426 146 426 146 427 259 c 1,22,23
 363 265 363 265 309 265 c 128,-1,24
 255 265 255 265 192 259 c 1,25,26
 192 94 192 94 201 33 c 1,27,28
 246 28 246 28 284 18 c 1,29,-1
 281 -7 l 1,30,31
 229 0 229 0 164.5 0 c 128,-1,32
 100 0 100 0 49 -8 c 1,33,-1
 45 18 l 1,34,35
 73 27 73 27 108 33 c 1,36,37
 117 105 117 105 117 237 c 2,38,-1
 117 284 l 2,39,40
 117 416 117 416 107 488 c 1,41,42
 72 494 72 494 44 503 c 1,43,-1
 48 529 l 1,44,45
 99 521 99 521 163.5 521 c 128,-1,46
 228 521 228 521 280 528 c 1,47,-1
 283 503 l 1,48,49
 245 493 245 493 200 488 c 1,50,51
 192 430 192 430 192 309 c 1,52,53
 248 301 248 301 312.5 301 c 128,-1,54
 377 301 377 301 427 308 c 1,55,56
 426 393 426 393 418 488 c 1,57,58
 383 494 383 494 355 503 c 1,59,-1
 359 529 l 1,0,1
EndSplineSet
EndChar

StartChar: i
Encoding: 105 105 76
Width: 309
GlyphClass: 2
Flags: W
LayerCount: 2
Fore
SplineSet
200 488 m 1,0,1
 192 434 192 434 192 267 c 128,-1,2
 192 100 192 100 201 33 c 1,3,4
 246 28 246 28 284 18 c 1,5,-1
 281 -7 l 1,6,7
 229 0 229 0 164.5 0 c 128,-1,8
 100 0 100 0 49 -8 c 1,9,-1
 45 18 l 1,10,11
 73 27 73 27 108 33 c 1,12,13
 117 105 117 105 117 237 c 2,14,-1
 117 284 l 2,15,16
 117 416 117 416 107 488 c 1,17,18
 72 494 72 494 44 503 c 1,19,-1
 48 529 l 1,20,21
 99 521 99 521 163.5 521 c 128,-1,22
 228 521 228 521 280 528 c 1,23,-1
 283 503 l 1,24,25
 245 493 245 493 200 488 c 1,0,1
EndSplineSet
EndChar

StartChar: j
Encoding: 106 106 77
Width: 296
GlyphClass: 2
Flags: W
LayerCount: 2
Fore
SplineSet
117 123 m 2,0,-1
 117 283 l 2,1,2
 117 434 117 434 109 488 c 1,3,4
 64 493 64 493 26 503 c 1,5,-1
 29 528 l 1,6,7
 81 521 81 521 145.5 521 c 128,-1,8
 210 521 210 521 261 529 c 1,9,-1
 265 503 l 1,10,11
 237 494 237 494 202 488 c 1,12,13
 192 416 192 416 192 284 c 2,14,-1
 192 237 l 2,15,16
 192 105 192 105 201 33 c 1,17,18
 177 -20 177 -20 131 -67 c 128,-1,19
 85 -114 85 -114 29 -146 c 1,20,-1
 12 -127 l 1,21,22
 71 -82 71 -82 94 -22.5 c 128,-1,23
 117 37 117 37 117 123 c 2,0,-1
EndSplineSet
EndChar

StartChar: k
Encoding: 107 107 78
Width: 525
GlyphClass: 2
Flags: W
LayerCount: 2
Fore
SplineSet
192 283 m 2,0,-1
 192 242 l 1,1,2
 294 350 294 350 324.5 397.5 c 128,-1,3
 355 445 355 445 355 471.5 c 128,-1,4
 355 498 355 498 340 509 c 1,5,-1
 345 526 l 1,6,7
 367 521 367 521 408.5 521 c 128,-1,8
 450 521 450 521 510 529 c 1,9,-1
 514 503 l 1,10,11
 491 495 491 495 447 487 c 1,12,13
 438 419 438 419 331 318 c 1,14,-1
 463 34 l 1,15,16
 505 27 505 27 529 18 c 1,17,-1
 525 -8 l 1,18,19
 488 0 488 0 428.5 0 c 128,-1,20
 369 0 369 0 345 -5 c 1,21,-1
 340 12 l 1,22,23
 354 26 354 26 354 54 c 0,24,25
 354 121 354 121 275 272 c 1,26,27
 255 255 255 255 192 203 c 1,28,29
 195 81 195 81 201 33 c 1,30,31
 246 28 246 28 284 18 c 1,32,-1
 281 -7 l 1,33,34
 229 0 229 0 164.5 0 c 128,-1,35
 100 0 100 0 49 -8 c 1,36,-1
 45 18 l 1,37,38
 73 27 73 27 108 33 c 1,39,40
 117 105 117 105 117 237 c 2,41,-1
 117 284 l 2,42,43
 117 416 117 416 107 488 c 1,44,45
 72 494 72 494 44 503 c 1,46,-1
 48 529 l 1,47,48
 99 521 99 521 163.5 521 c 128,-1,49
 228 521 228 521 280 528 c 1,50,-1
 283 503 l 1,51,52
 245 493 245 493 200 488 c 1,53,54
 192 434 192 434 192 283 c 2,0,-1
EndSplineSet
EndChar

StartChar: l
Encoding: 108 108 79
Width: 407
GlyphClass: 2
Flags: W
LayerCount: 2
Fore
SplineSet
409 -11 m 1,0,1
 344 0 344 0 232.5 0 c 128,-1,2
 121 0 121 0 46 -10 c 1,3,-1
 43 15 l 1,4,5
 71 26 71 26 107 33 c 1,6,7
 117 93 117 93 117 237 c 2,8,-1
 117 284 l 2,9,10
 117 408 117 408 107 488 c 1,11,12
 74 493 74 493 44 503 c 1,13,-1
 48 529 l 1,14,15
 99 521 99 521 168 521 c 128,-1,16
 237 521 237 521 286 529 c 1,17,-1
 289 504 l 1,18,19
 244 493 244 493 200 488 c 1,20,21
 192 434 192 434 192 265.5 c 128,-1,22
 192 97 192 97 200 41 c 1,23,24
 224 37 224 37 268 37 c 128,-1,25
 312 37 312 37 347 54 c 1,26,27
 361 88 361 88 361 134 c 1,28,-1
 386 134 l 1,29,30
 390 57 390 57 414 9 c 1,31,-1
 409 -11 l 1,0,1
EndSplineSet
EndChar

StartChar: m
Encoding: 109 109 80
Width: 724
GlyphClass: 2
Flags: W
LayerCount: 2
Fore
SplineSet
302 56 m 2,0,1
 302 118 302 118 271 241.5 c 128,-1,2
 240 365 240 365 202 481 c 1,3,-1
 198 480 l 1,4,-1
 173 294 l 2,5,6
 157 179 157 179 157 87 c 0,7,8
 157 31 157 31 192 12 c 1,9,-1
 188 -5 l 1,10,11
 158 0 158 0 109.5 0 c 128,-1,12
 61 0 61 0 3 -8 c 1,13,-1
 -1 18 l 1,14,15
 33 29 33 29 63 34 c 1,16,-1
 156 490 l 1,17,18
 104 499 104 499 79 506 c 1,19,-1
 82 532 l 1,20,21
 154 521 154 521 215.5 521 c 128,-1,22
 277 521 277 521 311 528 c 1,23,-1
 313 511 l 1,24,25
 286 504 286 504 286 488 c 0,26,27
 286 466 286 466 348 234 c 1,28,-1
 370 159 l 1,29,-1
 377 161 l 1,30,31
 377 187 377 187 468 487 c 1,32,33
 468 504 468 504 441 511 c 1,34,-1
 443 528 l 1,35,36
 477 521 477 521 539.5 521 c 128,-1,37
 602 521 602 521 673 532 c 1,38,-1
 676 506 l 1,39,40
 649 499 649 499 607 491 c 1,41,42
 604 467 604 467 604 420.5 c 128,-1,43
 604 374 604 374 617 230 c 128,-1,44
 630 86 630 86 641 32 c 1,45,46
 678 27 678 27 717 18 c 1,47,-1
 714 -7 l 1,48,49
 662 0 662 0 598.5 0 c 128,-1,50
 535 0 535 0 484 -8 c 1,51,-1
 480 18 l 1,52,53
 513 28 513 28 551 33 c 1,54,55
 548 269 548 269 519 478 c 1,56,-1
 516 478 l 1,57,58
 413 174 413 174 406 84 c 1,59,60
 385 77 385 77 357 58.5 c 128,-1,61
 329 40 329 40 314 22 c 1,62,-1
 302 30 l 1,63,-1
 302 56 l 2,0,1
EndSplineSet
EndChar

StartChar: n
Encoding: 110 110 81
Width: 623
GlyphClass: 2
Flags: W
LayerCount: 2
Fore
SplineSet
284 -7 m 1,0,1
 232 0 232 0 167.5 0 c 128,-1,2
 103 0 103 0 52 -8 c 1,3,-1
 48 18 l 1,4,5
 80 28 80 28 108 33 c 1,6,7
 117 111 117 111 117 237 c 2,8,-1
 117 284 l 2,9,10
 117 418 117 418 107 490 c 1,11,12
 80 493 80 493 42 506 c 1,13,-1
 45 532 l 1,14,15
 102 521 102 521 164.5 521 c 128,-1,16
 227 521 227 521 254 528 c 1,17,-1
 256 511 l 1,18,19
 229 504 229 504 229 488 c 0,20,21
 229 476 229 476 252.5 437.5 c 128,-1,22
 276 399 276 399 298 363 c 0,23,24
 364 258 364 258 454 105 c 1,25,-1
 457 107 l 1,26,-1
 457 229 l 2,27,28
 457 363 457 363 443 430.5 c 128,-1,29
 429 498 429 498 395 509 c 1,30,-1
 397 526 l 1,31,32
 423 521 423 521 475 521 c 128,-1,33
 527 521 527 521 582 532 c 1,34,-1
 585 506 l 1,35,36
 544 493 544 493 516 490 c 1,37,38
 506 410 506 410 506 284 c 2,39,-1
 506 237 l 2,40,41
 506 85 506 85 516 31 c 1,42,43
 558 24 558 24 583 15 c 1,44,-1
 580 -11 l 1,45,46
 530 0 530 0 486 0 c 128,-1,47
 442 0 442 0 418 -4 c 1,48,49
 418 18 418 18 387.5 70 c 128,-1,50
 357 122 357 122 332 162 c 0,51,52
 251 293 251 293 173 428 c 1,53,-1
 169 426 l 1,54,-1
 169 292 l 2,55,56
 169 93 169 93 199 33 c 1,57,58
 244 28 244 28 287 18 c 1,59,-1
 284 -7 l 1,0,1
EndSplineSet
EndChar

StartChar: o
Encoding: 111 111 82
Width: 526
GlyphClass: 2
Flags: W
LayerCount: 2
Fore
SplineSet
103 50.5 m 128,-1,1
 42 113 42 113 42 218 c 128,-1,2
 42 323 42 323 106 415 c 128,-1,3
 170 507 170 507 273 533 c 1,4,5
 376 533 376 533 430 474.5 c 128,-1,6
 484 416 484 416 484 308 c 128,-1,7
 484 200 484 200 425.5 113 c 128,-1,8
 367 26 367 26 263 -12 c 1,9,0
 164 -12 164 -12 103 50.5 c 128,-1,1
246 472 m 0,10,11
 201 472 201 472 168 447 c 1,12,13
 127 377 127 377 127 271 c 0,14,15
 127 149 127 149 195 84 c 0,16,17
 231 49 231 49 280 49 c 128,-1,18
 329 49 329 49 359 75 c 1,19,20
 399 145 399 145 399 246 c 128,-1,21
 399 347 399 347 363 409.5 c 128,-1,22
 327 472 327 472 246 472 c 0,10,11
EndSplineSet
EndChar

StartChar: p
Encoding: 112 112 83
Width: 460
GlyphClass: 2
Flags: W
LayerCount: 2
Fore
SplineSet
43 519 m 1,0,-1
 275 526 l 1,1,2
 456 526 456 526 456 395 c 0,3,4
 456 322 456 322 391.5 277 c 128,-1,5
 327 232 327 232 245 232 c 0,6,7
 233 232 233 232 228 233 c 1,8,-1
 232 266 l 1,9,-1
 241 266 l 2,10,11
 303 266 303 266 333.5 293 c 128,-1,12
 364 320 364 320 364 378 c 128,-1,13
 364 436 364 436 339.5 463.5 c 128,-1,14
 315 491 315 491 261 491 c 0,15,16
 228 491 228 491 199 480 c 1,17,18
 192 414 192 414 192 256 c 128,-1,19
 192 98 192 98 201 33 c 1,20,21
 243 28 243 28 289 17 c 1,22,-1
 286 -8 l 1,23,24
 237 0 237 0 168 0 c 128,-1,25
 99 0 99 0 48 -8 c 1,26,-1
 44 18 l 1,27,28
 74 28 74 28 107 33 c 1,29,30
 117 103 117 103 117 251.5 c 128,-1,31
 117 400 117 400 108 481 c 1,32,33
 73 494 73 494 43 494 c 1,34,-1
 43 519 l 1,0,-1
EndSplineSet
EndChar

StartChar: q
Encoding: 113 113 84
Width: 526
GlyphClass: 2
Flags: W
LayerCount: 2
Fore
SplineSet
98 56 m 128,-1,1
 42 117 42 117 42 220 c 128,-1,2
 42 323 42 323 106 415 c 128,-1,3
 170 507 170 507 273 533 c 1,4,5
 376 533 376 533 430 474.5 c 128,-1,6
 484 416 484 416 484 311.5 c 128,-1,7
 484 207 484 207 431.5 122.5 c 128,-1,8
 379 38 379 38 285 -3 c 1,9,10
 323 -4 323 -4 405 -40 c 128,-1,11
 487 -76 487 -76 509 -82 c 1,12,13
 541 -70 541 -70 568 -54 c 1,14,-1
 580 -72 l 1,15,16
 533 -106 533 -106 495 -177 c 1,17,-1
 473 -161 l 2,18,19
 422 -124 422 -124 358.5 -95.5 c 128,-1,20
 295 -67 295 -67 246 -67 c 128,-1,21
 197 -67 197 -67 159 -96 c 1,22,-1
 142 -80 l 1,23,24
 184 -36 184 -36 245 -11 c 1,25,0
 154 -5 154 -5 98 56 c 128,-1,1
246 472 m 0,26,27
 201 472 201 472 168 447 c 1,28,29
 127 377 127 377 127 271 c 0,30,31
 127 149 127 149 195 84 c 0,32,33
 231 49 231 49 280 49 c 128,-1,34
 329 49 329 49 359 75 c 1,35,36
 399 145 399 145 399 246 c 128,-1,37
 399 347 399 347 363 409.5 c 128,-1,38
 327 472 327 472 246 472 c 0,26,27
EndSplineSet
EndChar

StartChar: r
Encoding: 114 114 85
Width: 526
GlyphClass: 2
Flags: W
LayerCount: 2
Fore
SplineSet
43 519 m 1,0,-1
 273 526 l 1,1,2
 363 526 363 526 408 499.5 c 128,-1,3
 453 473 453 473 453 403 c 0,4,5
 453 355 453 355 423.5 318 c 128,-1,6
 394 281 394 281 346 263 c 1,7,-1
 458 34 l 1,8,9
 492 28 492 28 522 20 c 1,10,-1
 518 -7 l 1,11,12
 476 0 476 0 423.5 0 c 128,-1,13
 371 0 371 0 341 -5 c 1,14,-1
 337 11 l 1,15,16
 350 24 350 24 350 54 c 0,17,18
 350 115 350 115 280 250 c 1,19,20
 259 254 259 254 231 254 c 1,21,-1
 233 283 l 1,22,-1
 243 283 l 2,23,24
 361 283 361 283 361 391 c 0,25,26
 361 491 361 491 260 491 c 0,27,28
 226 491 226 491 199 480 c 1,29,30
 192 414 192 414 192 254 c 128,-1,31
 192 94 192 94 201 33 c 1,32,33
 245 28 245 28 283 18 c 1,34,-1
 280 -7 l 1,35,36
 228 0 228 0 163.5 0 c 128,-1,37
 99 0 99 0 48 -8 c 1,38,-1
 44 18 l 1,39,40
 72 27 72 27 107 33 c 1,41,42
 117 108 117 108 117 266.5 c 128,-1,43
 117 425 117 425 108 486 c 1,44,45
 69 499 69 499 43 499 c 1,46,-1
 43 519 l 1,0,-1
EndSplineSet
EndChar

StartChar: s
Encoding: 115 115 86
Width: 421
GlyphClass: 2
Flags: W
LayerCount: 2
Fore
SplineSet
202 57 m 128,-1,1
 247 57 247 57 274 78 c 128,-1,2
 301 99 301 99 301 138 c 0,3,4
 301 178 301 178 188 237 c 0,5,6
 145 259 145 259 109.5 290.5 c 128,-1,7
 74 322 74 322 74 353 c 0,8,9
 74 406 74 406 130 460 c 128,-1,10
 186 514 186 514 245 533 c 1,11,12
 319 533 319 533 379 518 c 1,13,-1
 379 500 l 1,14,15
 337 458 337 458 332 385 c 1,16,-1
 307 385 l 1,17,18
 307 413 307 413 302 455 c 1,19,20
 267 471 267 471 227 471 c 128,-1,21
 187 471 187 471 160.5 453.5 c 128,-1,22
 134 436 134 436 134 403 c 0,23,24
 134 380 134 380 169.5 353 c 128,-1,25
 205 326 205 326 247 305 c 128,-1,26
 289 284 289 284 324.5 253 c 128,-1,27
 360 222 360 222 360 191 c 0,28,29
 360 131 360 131 307 71.5 c 128,-1,30
 254 12 254 12 190 -12 c 1,31,32
 127 -12 127 -12 72 3 c 1,33,34
 56 -4 56 -4 39 -20 c 1,35,-1
 21 -7 l 1,36,37
 77 54 77 54 83 144 c 1,38,-1
 108 144 l 1,39,40
 108 109 108 109 111 76 c 1,41,0
 157 57 157 57 202 57 c 128,-1,1
EndSplineSet
EndChar

StartChar: t
Encoding: 116 116 87
Width: 431
GlyphClass: 2
Flags: W
LayerCount: 2
Fore
SplineSet
370 467 m 1,0,1
 335 484 335 484 303 484 c 128,-1,2
 271 484 271 484 260 480 c 1,3,4
 252 426 252 426 252 271 c 128,-1,5
 252 116 252 116 263 33 c 1,6,7
 308 28 308 28 346 18 c 1,8,-1
 343 -7 l 1,9,10
 291 0 291 0 223.5 0 c 128,-1,11
 156 0 156 0 105 -8 c 1,12,-1
 101 18 l 1,13,14
 121 24 121 24 170 33 c 1,15,16
 179 105 179 105 179 237 c 2,17,-1
 179 284 l 2,18,19
 179 354 179 354 168 480 c 1,20,21
 157 484 157 484 127 484 c 128,-1,22
 97 484 97 484 63 470 c 1,23,24
 53 439 53 439 49 387 c 1,25,-1
 23 387 l 1,26,27
 23 469 23 469 -4 514 c 1,28,-1
 1 531 l 1,29,30
 78 521 78 521 217 521 c 128,-1,31
 356 521 356 521 441 532 c 1,32,-1
 447 513 l 1,33,34
 422 485 422 485 413 458.5 c 128,-1,35
 404 432 404 432 402 387 c 1,36,-1
 377 387 l 1,37,38
 370 420 370 420 370 467 c 1,0,1
EndSplineSet
EndChar

StartChar: u
Encoding: 117 117 88
Width: 578
GlyphClass: 2
Flags: W
LayerCount: 2
Fore
SplineSet
461 284 m 2,0,-1
 461 237 l 2,1,2
 461 100 461 100 471 32 c 1,3,4
 517 26 517 26 547 18 c 1,5,-1
 544 -7 l 1,6,7
 495 0 495 0 443.5 0 c 128,-1,8
 392 0 392 0 373 -3 c 1,9,-1
 369 10 l 1,10,11
 378 20 378 20 381 67 c 1,12,13
 329 13 329 13 261 -12 c 1,14,15
 89 -12 89 -12 89 193 c 0,16,17
 89 238 89 238 96 337 c 128,-1,18
 103 436 103 436 103 453 c 128,-1,19
 103 470 103 470 97 486 c 1,20,-1
 97 487 l 1,21,22
 55 494 55 494 30 502 c 1,23,-1
 34 529 l 1,24,25
 92 521 92 521 139 521 c 128,-1,26
 186 521 186 521 216 526 c 1,27,-1
 220 509 l 1,28,29
 184 490 184 490 178 440 c 0,30,31
 166 344 166 344 166 243 c 128,-1,32
 166 142 166 142 189.5 99.5 c 128,-1,33
 213 57 213 57 277.5 57 c 128,-1,34
 342 57 342 57 382 94 c 1,35,36
 386 174 386 174 386 283 c 128,-1,37
 386 392 386 392 378 488 c 1,38,39
 333 493 333 493 295 503 c 1,40,-1
 298 528 l 1,41,42
 350 521 350 521 414.5 521 c 128,-1,43
 479 521 479 521 530 529 c 1,44,-1
 534 503 l 1,45,46
 506 494 506 494 471 488 c 1,47,48
 461 421 461 421 461 284 c 2,0,-1
EndSplineSet
EndChar

StartChar: v
Encoding: 118 118 89
Width: 509
GlyphClass: 2
Flags: W
LayerCount: 2
Fore
SplineSet
353 -6 m 1,0,1
 310 0 310 0 245.5 0 c 128,-1,2
 181 0 181 0 152 -4 c 1,3,-1
 149 12 l 1,4,5
 158 14 158 14 166.5 22.5 c 128,-1,6
 175 31 175 31 175 38 c 0,7,8
 175 95 175 95 70 423 c 0,9,10
 56 467 56 467 46 487 c 1,11,12
 13 491 13 491 -26 503 c 1,13,-1
 -22 529 l 1,14,15
 18 521 18 521 93 521 c 128,-1,16
 168 521 168 521 216 529 c 1,17,-1
 220 504 l 1,18,19
 166 492 166 492 146 489 c 1,20,21
 153 423 153 423 187.5 294 c 128,-1,22
 222 165 222 165 262 55 c 1,23,24
 329 204 329 204 351.5 281 c 128,-1,25
 374 358 374 358 374 422 c 128,-1,26
 374 486 374 486 333 508 c 1,27,-1
 337 525 l 1,28,29
 367 520 367 520 413.5 520 c 128,-1,30
 460 520 460 520 518 528 c 1,31,-1
 522 502 l 1,32,33
 488 491 488 491 458 486 c 1,34,35
 462 456 462 456 462 431.5 c 128,-1,36
 462 407 462 407 454.5 372.5 c 128,-1,37
 447 338 447 338 420 278 c 1,38,39
 385 204 385 204 294 33 c 1,40,41
 314 31 314 31 358 16 c 1,42,-1
 353 -6 l 1,0,1
EndSplineSet
EndChar

StartChar: w
Encoding: 119 119 90
Width: 743
GlyphClass: 2
Flags: W
LayerCount: 2
Fore
SplineSet
327 -6 m 1,0,1
 291 0 291 0 232.5 0 c 128,-1,2
 174 0 174 0 145 -4 c 1,3,-1
 142 12 l 1,4,5
 151 14 151 14 159.5 22.5 c 128,-1,6
 168 31 168 31 168 38 c 0,7,8
 168 95 168 95 63 423 c 0,9,10
 49 467 49 467 39 487 c 1,11,12
 18 490 18 490 -26 504 c 1,13,-1
 -22 530 l 1,14,15
 66 521 66 521 239.5 521 c 128,-1,16
 413 521 413 521 491 529 c 1,17,-1
 495 503 l 1,18,19
 451 488 451 488 436 486 c 1,20,21
 438 471 438 471 438 431.5 c 128,-1,22
 438 392 438 392 425 337 c 1,23,24
 459 204 459 204 513 55 c 1,25,26
 573 204 573 204 593 281 c 128,-1,27
 613 358 613 358 613 422 c 128,-1,28
 613 486 613 486 572 508 c 1,29,-1
 576 525 l 1,30,31
 606 520 606 520 649 520 c 128,-1,32
 692 520 692 520 750 528 c 1,33,-1
 754 502 l 1,34,35
 714 489 714 489 697 486 c 1,36,37
 701 456 701 456 701 444 c 0,38,39
 701 371 701 371 668 288 c 128,-1,40
 635 205 635 205 543 33 c 1,41,42
 562 24 562 24 589 16 c 1,43,-1
 584 -6 l 1,44,45
 548 0 548 0 491.5 0 c 128,-1,46
 435 0 435 0 406 -4 c 1,47,-1
 403 12 l 1,48,49
 412 14 412 14 420.5 22.5 c 128,-1,50
 429 31 429 31 429 38 c 0,51,52
 429 75 429 75 380 240 c 1,53,54
 318 97 318 97 286 33 c 1,55,56
 305 24 305 24 332 16 c 1,57,-1
 327 -6 l 1,0,1
333.5 279 m 128,-1,59
 353 356 353 356 353 410 c 128,-1,60
 353 464 353 464 333 481 c 128,-1,61
 313 498 313 498 254.5 498 c 128,-1,62
 196 498 196 498 139 487 c 1,63,64
 146 421 146 421 180.5 293 c 128,-1,65
 215 165 215 165 255 55 c 1,66,58
 314 202 314 202 333.5 279 c 128,-1,59
EndSplineSet
EndChar

StartChar: x
Encoding: 120 120 91
Width: 527
GlyphClass: 2
Flags: W
LayerCount: 2
Fore
SplineSet
236 -8 m 1,0,1
 188 0 188 0 112.5 0 c 128,-1,2
 37 0 37 0 -3 -8 c 1,3,-1
 -7 18 l 1,4,5
 35 31 35 31 59 34 c 1,6,7
 78 63 78 63 141.5 147 c 128,-1,8
 205 231 205 231 228 262 c 1,9,-1
 78 487 l 1,10,11
 49 490 49 490 11 503 c 1,12,-1
 15 529 l 1,13,14
 55 521 55 521 138 521 c 128,-1,15
 221 521 221 521 269 529 c 1,16,-1
 273 504 l 1,17,18
 221 492 221 492 198 489 c 1,19,20
 200 449 200 449 281 316 c 1,21,22
 365 455 365 455 365 484 c 0,23,24
 365 502 365 502 338 509 c 1,25,-1
 342 526 l 1,26,27
 372 521 372 521 420.5 521 c 128,-1,28
 469 521 469 521 527 529 c 1,29,-1
 531 503 l 1,30,31
 503 494 503 494 461 487 c 1,32,33
 447 465 447 465 387.5 387.5 c 128,-1,34
 328 310 328 310 304 278 c 1,35,-1
 464 34 l 1,36,37
 506 27 506 27 534 18 c 1,38,-1
 530 -8 l 1,39,40
 472 0 472 0 422 0 c 128,-1,41
 372 0 372 0 342 -5 c 1,42,-1
 338 12 l 1,43,44
 346 17 346 17 346 30 c 0,45,46
 346 77 346 77 254 229 c 1,47,48
 158 69 158 69 151 32 c 1,49,-1
 153 32 l 1,50,51
 206 25 206 25 240 17 c 1,52,-1
 236 -8 l 1,0,1
EndSplineSet
EndChar

StartChar: y
Encoding: 121 121 92
Width: 465
GlyphClass: 2
Flags: W
LayerCount: 2
Fore
SplineSet
336 487 m 0,0,1
 336 503 336 503 309 509 c 1,2,-1
 313 526 l 1,3,4
 343 521 343 521 391.5 521 c 128,-1,5
 440 521 440 521 498 529 c 1,6,-1
 502 503 l 1,7,8
 476 494 476 494 436 488 c 1,9,-1
 270 238 l 1,10,11
 270 108 270 108 280 33 c 1,12,13
 324 28 324 28 362 18 c 1,14,-1
 359 -7 l 1,15,16
 307 0 307 0 239.5 0 c 128,-1,17
 172 0 172 0 121 -8 c 1,18,-1
 117 18 l 1,19,20
 136 24 136 24 185 33 c 1,21,22
 194 87 194 87 194 196 c 2,23,-1
 194 217 l 1,24,25
 78 451 78 451 47 489 c 1,26,27
 19 492 19 492 -15 503 c 1,28,-1
 -11 529 l 1,29,30
 29 521 29 521 104 521 c 128,-1,31
 179 521 179 521 227 529 c 1,32,-1
 231 504 l 1,33,34
 184 493 184 493 152 489 c 1,35,36
 186 385 186 385 247 270 c 1,37,38
 336 443 336 443 336 487 c 0,0,1
EndSplineSet
EndChar

StartChar: z
Encoding: 122 122 93
Width: 440
GlyphClass: 2
Flags: W
LayerCount: 2
Fore
SplineSet
334 512 m 0,0,1
 378 512 378 512 411 542 c 1,2,-1
 432 526 l 1,3,4
 404 501 404 501 368 439 c 2,5,-1
 151 64 l 1,6,-1
 154 62 l 1,7,-1
 274 62 l 2,8,9
 319 62 319 62 339 77 c 1,10,11
 344 110 344 110 344 146 c 1,12,-1
 370 146 l 1,13,14
 376 55 376 55 432 -2 c 1,15,-1
 412 -16 l 1,16,17
 408 -10 408 -10 396 -2 c 1,18,19
 282 17 282 17 120 17 c 0,20,21
 53 17 53 17 25 -16 c 1,22,-1
 4 1 l 1,23,24
 49 46 49 46 78 94 c 2,25,-1
 305 464 l 1,26,-1
 303 466 l 1,27,-1
 195 466 l 2,28,29
 146 466 146 466 111 451 c 1,30,31
 105 416 105 416 91 384 c 1,32,-1
 67 387 l 1,33,34
 69 417 69 417 69 442 c 128,-1,35
 69 467 69 467 61 498 c 1,36,37
 45 507 45 507 27 511 c 1,38,-1
 29 533 l 1,39,40
 46 533 46 533 156.5 522.5 c 128,-1,41
 267 512 267 512 334 512 c 0,0,1
EndSplineSet
EndChar

StartChar: braceleft
Encoding: 123 123 94
Width: 300
GlyphClass: 2
Flags: W
LayerCount: 2
Fore
SplineSet
132.5 -159 m 128,-1,1
 89 -117 89 -117 89 -71 c 128,-1,2
 89 -25 89 -25 102.5 57.5 c 128,-1,3
 116 140 116 140 116 187 c 0,4,5
 116 223 116 223 48 236 c 1,6,-1
 44 255 l 1,7,8
 116 271 116 271 116 309 c 0,9,10
 116 356 116 356 102.5 439 c 128,-1,11
 89 522 89 522 89 567.5 c 128,-1,12
 89 613 89 613 132.5 655 c 128,-1,13
 176 697 176 697 224 711 c 1,14,-1
 228 697 l 1,15,16
 201 683 201 683 177 657 c 128,-1,17
 153 631 153 631 144 604 c 1,18,19
 144 557 144 557 166.5 463 c 128,-1,20
 189 369 189 369 189 329 c 1,21,22
 175 295 175 295 98 250 c 1,23,-1
 98 246 l 1,24,25
 175 201 175 201 189 167 c 1,26,27
 189 127 189 127 166.5 33 c 128,-1,28
 144 -61 144 -61 144 -108 c 1,29,30
 153 -135 153 -135 177 -161 c 128,-1,31
 201 -187 201 -187 228 -201 c 1,32,-1
 224 -215 l 1,33,0
 176 -201 176 -201 132.5 -159 c 128,-1,1
EndSplineSet
EndChar

StartChar: bar
Encoding: 124 124 95
Width: 238
GlyphClass: 2
Flags: W
LayerCount: 2
Fore
SplineSet
144 -199 m 1,0,1
 126 -209 126 -209 103 -216 c 1,2,-1
 96 -213 l 1,3,4
 96 476 96 476 89 723 c 1,5,6
 123 737 123 737 141 750 c 1,7,-1
 146 749 l 1,8,9
 144 607 144 607 144 -199 c 1,0,1
EndSplineSet
EndChar

StartChar: braceright
Encoding: 125 125 96
Width: 288
GlyphClass: 2
Flags: W
LayerCount: 2
Fore
SplineSet
167.5 655 m 128,-1,1
 211 613 211 613 211 567.5 c 128,-1,2
 211 522 211 522 197.5 439 c 128,-1,3
 184 356 184 356 184 309 c 0,4,5
 184 271 184 271 256 255 c 1,6,-1
 252 236 l 1,7,8
 184 223 184 223 184 187 c 0,9,10
 184 140 184 140 197.5 57.5 c 128,-1,11
 211 -25 211 -25 211 -71 c 128,-1,12
 211 -117 211 -117 167.5 -159 c 128,-1,13
 124 -201 124 -201 76 -215 c 1,14,-1
 72 -201 l 1,15,16
 99 -187 99 -187 123 -161 c 128,-1,17
 147 -135 147 -135 156 -108 c 1,18,19
 156 -61 156 -61 133.5 33 c 128,-1,20
 111 127 111 127 111 167 c 1,21,22
 125 201 125 201 202 246 c 1,23,-1
 202 250 l 1,24,25
 125 295 125 295 111 329 c 1,26,27
 111 369 111 369 133.5 463 c 128,-1,28
 156 557 156 557 156 604 c 1,29,30
 147 631 147 631 123 657 c 128,-1,31
 99 683 99 683 72 697 c 1,32,-1
 76 711 l 1,33,0
 124 697 124 697 167.5 655 c 128,-1,1
EndSplineSet
EndChar

StartChar: asciitilde
Encoding: 126 126 97
Width: 590
GlyphClass: 2
Flags: W
LayerCount: 2
Fore
SplineSet
404 258 m 0,0,1
 473 258 473 258 522 316 c 1,2,-1
 540 305 l 1,3,4
 520 267 520 267 476 233.5 c 128,-1,5
 432 200 432 200 389 188 c 1,6,7
 356 188 356 188 279 221 c 128,-1,8
 202 254 202 254 169 254 c 0,9,10
 103 254 103 254 68 200 c 1,11,-1
 50 211 l 1,12,13
 72 252 72 252 119.5 287.5 c 128,-1,14
 167 323 167 323 211 328 c 1,15,16
 254 299 254 299 307 278.5 c 128,-1,17
 360 258 360 258 404 258 c 0,0,1
EndSplineSet
EndChar

StartChar: exclamdown
Encoding: 161 161 99
Width: 226
GlyphClass: 2
Flags: W
LayerCount: 2
Fore
SplineSet
66 436 m 1,0,1
 73 447 73 447 90 462.5 c 128,-1,2
 107 478 107 478 120 486 c 1,3,4
 134 479 134 479 151 463.5 c 128,-1,5
 168 448 168 448 174 436 c 1,6,7
 167 423 167 423 149.5 403 c 128,-1,8
 132 383 132 383 120 375 c 1,9,10
 108 383 108 383 90.5 403 c 128,-1,11
 73 423 73 423 66 436 c 1,0,1
154 -183 m 1,12,13
 142 -189 142 -189 118 -194.5 c 128,-1,14
 94 -200 94 -200 86.5 -200 c 128,-1,15
 79 -200 79 -200 77 -200 c 1,16,17
 66 -190 66 -190 45 -160 c 1,18,19
 92 -3 92 -3 107 299 c 1,20,-1
 133 301 l 1,21,-1
 154 -183 l 1,12,13
EndSplineSet
EndChar

StartChar: cent
Encoding: 162 162 100
Width: 450
GlyphClass: 2
Flags: W
LayerCount: 2
Fore
SplineSet
264 72 m 2,0,1
 319 72 319 72 378 125 c 1,2,-1
 388 115 l 1,3,4
 336 41 336 41 261 6 c 1,5,-1
 260 -92 l 1,6,-1
 255 -92 l 1,7,8
 239 -87 239 -87 228 -77 c 1,9,-1
 234 0 l 1,10,11
 153 4 153 4 114.5 58.5 c 128,-1,12
 76 113 76 113 76 206 c 128,-1,13
 76 299 76 299 123.5 378.5 c 128,-1,14
 171 458 171 458 250 490 c 1,15,-1
 254 588 l 1,16,17
 269 590 269 590 282 594 c 1,18,-1
 286 591 l 1,19,20
 281 557 281 557 278 500 c 1,21,22
 339 500 339 500 399 484 c 1,23,-1
 399 470 l 1,24,25
 360 422 360 422 356 365 c 1,26,-1
 334 365 l 1,27,28
 334 404 334 404 332 426 c 1,29,30
 294 436 294 436 276 437 c 1,31,-1
 263 72 l 1,32,-1
 264 72 l 2,0,1
194 98 m 0,33,34
 211 81 211 81 236 75 c 1,35,-1
 248 438 l 1,36,37
 210 436 210 436 185 414 c 1,38,39
 156 353 156 353 156 244.5 c 128,-1,40
 156 136 156 136 194 98 c 0,33,34
EndSplineSet
EndChar

StartChar: sterling
Encoding: 163 163 101
Width: 450
GlyphClass: 2
Flags: W
LayerCount: 2
Fore
SplineSet
104 136 m 1,0,-1
 99 241 l 1,1,-1
 99 242 l 1,2,-1
 60 239 l 1,3,-1
 51 245 l 1,4,-1
 57 291 l 1,5,-1
 103 291 l 1,6,7
 117 377 117 377 173 446.5 c 128,-1,8
 229 516 229 516 312 538 c 1,9,10
 381 538 381 538 440 522 c 1,11,-1
 440 508 l 1,12,13
 403 462 403 462 397 395 c 1,14,-1
 375 395 l 1,15,16
 375 436 375 436 372 459 c 1,17,18
 330 473 330 473 286 473 c 128,-1,19
 242 473 242 473 212 447 c 1,20,21
 181 382 181 382 181 293 c 1,22,23
 238 295 238 295 325 305 c 1,24,-1
 333 300 l 1,25,-1
 327 258 l 1,26,-1
 179 247 l 1,27,28
 172 150 172 150 130 88 c 1,29,-1
 133 85 l 1,30,31
 148 92 148 92 160 95 c 1,32,33
 168 95 168 95 176 95 c 0,34,35
 269 95 269 95 364 74 c 1,36,37
 374 96 374 96 387 132 c 1,38,-1
 408 125 l 1,39,40
 397 86 397 86 397 53.5 c 128,-1,41
 397 21 397 21 404 -8 c 1,42,-1
 392 -16 l 1,43,44
 238 30 238 30 103 30 c 1,45,46
 72 13 72 13 43 -16 c 1,47,-1
 26 -1 l 1,48,49
 63 36 63 36 98 88 c 1,50,51
 104 109 104 109 104 136 c 1,0,-1
EndSplineSet
EndChar

StartChar: currency
Encoding: 164 164 102
Width: 567
GlyphClass: 2
Flags: W
LayerCount: 2
Fore
SplineSet
430 487 m 1,0,-1
 507 568 l 1,1,2
 549 554 549 554 560 552 c 1,3,-1
 562 548 l 1,4,-1
 463 455 l 1,5,6
 496 413 496 413 496 350 c 0,7,8
 496 261 496 261 439 198 c 1,9,10
 524 117 524 117 562 83 c 1,11,-1
 560 79 l 1,12,13
 549 77 549 77 507 63 c 1,14,-1
 406 168 l 1,15,16
 355 129 355 129 289 116 c 1,17,18
 207 116 207 116 152 152 c 1,19,-1
 61 63 l 1,20,-1
 56 63 l 1,21,22
 37 84 37 84 32 110 c 1,23,24
 57 131 57 131 115 185 c 1,25,26
 81 227 81 227 81 286 c 0,27,28
 81 370 81 370 133 431 c 1,29,30
 78 481 78 481 32 521 c 1,31,32
 37 547 37 547 56 568 c 1,33,-1
 61 568 l 1,34,-1
 166 464 l 1,35,36
 222 509 222 509 301 523 c 1,37,38
 377 523 377 523 430 487 c 1,0,-1
385 426.5 m 128,-1,40
 347 469 347 469 281 469 c 128,-1,41
 215 469 215 469 186 443 c 1,42,43
 154 398 154 398 154 327 c 128,-1,44
 154 256 154 256 192 213 c 128,-1,45
 230 170 230 170 296 170 c 128,-1,46
 362 170 362 170 391 196 c 1,47,48
 423 241 423 241 423 312.5 c 128,-1,39
 423 384 423 384 385 426.5 c 128,-1,40
EndSplineSet
EndChar

StartChar: yen
Encoding: 165 165 103
Width: 450
GlyphClass: 2
Flags: W
LayerCount: 2
Fore
SplineSet
-19 529 m 1,0,1
 41 523 41 523 91 523 c 128,-1,2
 141 523 141 523 201 534 c 1,3,-1
 206 514 l 1,4,5
 174 504 174 504 156 493 c 1,6,7
 169 434 169 434 249 271 c 1,8,9
 335 439 335 439 335 491 c 0,10,11
 335 510 335 510 322 523 c 1,12,-1
 325 530 l 1,13,14
 354 523 354 523 395.5 523 c 128,-1,15
 437 523 437 523 465 527 c 1,16,-1
 467 505 l 1,17,18
 432 501 432 501 413 492 c 1,19,-1
 269 246 l 1,20,-1
 269 245 l 1,21,-1
 313 247 l 2,22,23
 376 250 376 250 397 252 c 1,24,25
 401 232 401 232 406 221 c 1,26,-1
 406 216 l 1,27,-1
 269 214 l 1,28,29
 269 180 269 180 270 165 c 1,30,-1
 313 167 l 2,31,32
 376 170 376 170 397 172 c 1,33,34
 401 152 401 152 406 141 c 1,35,-1
 406 136 l 1,36,-1
 271 134 l 1,37,38
 272 85 272 85 280 30 c 1,39,40
 308 24 308 24 343 11 c 1,41,-1
 341 -8 l 1,42,43
 285 0 285 0 235 0 c 128,-1,44
 185 0 185 0 134 -6 c 1,45,-1
 131 13 l 1,46,47
 161 26 161 26 190 33 c 1,48,49
 194 67 194 67 197 132 c 1,50,-1
 186 132 l 1,51,52
 114 130 114 130 68 123 c 1,53,-1
 65 127 l 1,54,55
 71 147 71 147 72 159 c 1,56,-1
 198 163 l 1,57,-1
 199 212 l 1,58,-1
 186 212 l 1,59,60
 114 210 114 210 68 203 c 1,61,-1
 65 207 l 1,62,63
 71 227 71 227 72 239 c 1,64,-1
 190 243 l 1,65,66
 104 421 104 421 59 487 c 1,67,68
 11 496 11 496 -21 509 c 1,69,-1
 -19 529 l 1,0,1
EndSplineSet
EndChar

StartChar: brokenbar
Encoding: 166 166 104
Width: 245
GlyphClass: 2
Flags: W
LayerCount: 2
Fore
SplineSet
149 340 m 1,0,1
 131 330 131 330 108 323 c 1,2,-1
 101 326 l 1,3,4
 100 508 100 508 94 725 c 1,5,6
 128 739 128 739 146 752 c 1,7,-1
 151 751 l 1,8,9
 149 609 149 609 149 340 c 1,0,1
149 -198 m 1,10,11
 131 -208 131 -208 108 -215 c 1,12,-1
 101 -212 l 1,13,14
 100 -30 100 -30 94 187 c 1,15,16
 128 201 128 201 146 214 c 1,17,-1
 151 213 l 1,18,19
 149 71 149 71 149 -198 c 1,10,11
EndSplineSet
EndChar

StartChar: section
Encoding: 167 167 105
Width: 467
GlyphClass: 2
Flags: W
LayerCount: 2
Fore
SplineSet
347 144 m 1,0,1
 365 168 365 168 365 201.5 c 128,-1,2
 365 235 365 235 336 267.5 c 128,-1,3
 307 300 307 300 266 330.5 c 128,-1,4
 225 361 225 361 184 393 c 0,5,6
 85 470 85 470 85 535 c 1,7,8
 108 572 108 572 164.5 613.5 c 128,-1,9
 221 655 221 655 263 666 c 1,10,11
 327 666 327 666 387 650 c 1,12,-1
 387 636 l 1,13,14
 348 588 348 588 344 531 c 1,15,-1
 322 531 l 1,16,17
 322 570 322 570 320 592 c 1,18,19
 281 604 281 604 241.5 604 c 128,-1,20
 202 604 202 604 179 581 c 1,21,22
 172 569 172 569 172 547 c 0,23,24
 172 512 172 512 211.5 472 c 128,-1,25
 251 432 251 432 299.5 401.5 c 128,-1,26
 348 371 348 371 392 330.5 c 128,-1,27
 436 290 436 290 443 256 c 1,28,29
 435 231 435 231 408.5 192 c 128,-1,30
 382 153 382 153 361 131 c 1,31,-1
 347 144 l 1,0,1
125 10 m 2,32,-1
 127 -32 l 1,33,-1
 127 -36 l 1,34,35
 173 -53 173 -53 216 -53 c 128,-1,36
 259 -53 259 -53 282 -30 c 1,37,38
 289 -18 289 -18 289 4 c 0,39,40
 289 39 289 39 249.5 79 c 128,-1,41
 210 119 210 119 161.5 149.5 c 128,-1,42
 113 180 113 180 69 220.5 c 128,-1,43
 25 261 25 261 18 295 c 1,44,45
 26 320 26 320 52.5 359 c 128,-1,46
 79 398 79 398 100 420 c 1,47,-1
 114 407 l 1,48,49
 96 383 96 383 96 349.5 c 128,-1,50
 96 316 96 316 125 283.5 c 128,-1,51
 154 251 154 251 195 220.5 c 128,-1,52
 236 190 236 190 277 158 c 0,53,54
 376 81 376 81 376 16 c 1,55,56
 353 -21 353 -21 296.5 -62.5 c 128,-1,57
 240 -104 240 -104 198 -115 c 1,58,59
 126 -115 126 -115 60 -94 c 1,60,-1
 60 -80 l 1,61,62
 99 -32 99 -32 103 25 c 1,63,-1
 125 25 l 1,64,65
 125 25 125 25 125 10 c 2,32,-1
EndSplineSet
EndChar

StartChar: dieresis
Encoding: 168 168 106
Width: 293
GlyphClass: 2
Flags: W
LayerCount: 2
Fore
SplineSet
108 661 m 1,0,1
 101 648 101 648 83.5 628 c 128,-1,2
 66 608 66 608 54 600 c 1,3,4
 42 608 42 608 24.5 628 c 128,-1,5
 7 648 7 648 0 661 c 1,6,7
 6 673 6 673 23 688.5 c 128,-1,8
 40 704 40 704 54 711 c 1,9,10
 67 703 67 703 84 687.5 c 128,-1,11
 101 672 101 672 108 661 c 1,0,1
293 661 m 1,12,13
 286 648 286 648 268.5 628 c 128,-1,14
 251 608 251 608 239 600 c 1,15,16
 227 608 227 608 209.5 628 c 128,-1,17
 192 648 192 648 185 661 c 1,18,19
 191 673 191 673 208 688.5 c 128,-1,20
 225 704 225 704 239 711 c 1,21,22
 252 703 252 703 269 687.5 c 128,-1,23
 286 672 286 672 293 661 c 1,12,13
EndSplineSet
EndChar

StartChar: copyright
Encoding: 169 169 107
Width: 765
GlyphClass: 2
Flags: W
LayerCount: 2
Fore
SplineSet
313.5 219 m 128,-1,1
 333 177 333 177 384.5 177 c 128,-1,2
 436 177 436 177 484 221 c 1,3,-1
 496 208 l 1,4,5
 452 153 452 153 374 119 c 1,6,7
 299 119 299 119 261 164 c 128,-1,8
 223 209 223 209 223 287.5 c 128,-1,9
 223 366 223 366 271.5 436 c 128,-1,10
 320 506 320 506 392 531 c 1,11,12
 455 531 455 531 512 518 c 1,13,-1
 511 501 l 1,14,15
 494 499 494 499 487 494 c 1,16,17
 471 459 471 459 466 411 c 1,18,-1
 448 411 l 1,19,20
 441 441 441 441 441 464 c 1,21,22
 413 479 413 479 379 479 c 128,-1,23
 345 479 345 479 322 463 c 1,24,25
 294 409 294 409 294 335 c 128,-1,0
 294 261 294 261 313.5 219 c 128,-1,1
42 325 m 128,-1,27
 42 466 42 466 141.5 566 c 128,-1,28
 241 666 241 666 382 666 c 128,-1,29
 523 666 523 666 623 566 c 128,-1,30
 723 466 723 466 723 325 c 128,-1,31
 723 184 723 184 623 84.5 c 128,-1,32
 523 -15 523 -15 382 -15 c 128,-1,33
 241 -15 241 -15 141.5 84.5 c 128,-1,26
 42 184 42 184 42 325 c 128,-1,27
86 325 m 128,-1,35
 86 202 86 202 172.5 114.5 c 128,-1,36
 259 27 259 27 382 27 c 128,-1,37
 505 27 505 27 592 114.5 c 128,-1,38
 679 202 679 202 679 325 c 128,-1,39
 679 448 679 448 592 536 c 128,-1,40
 505 624 505 624 382 624 c 128,-1,41
 259 624 259 624 172.5 536 c 128,-1,34
 86 448 86 448 86 325 c 128,-1,35
EndSplineSet
EndChar

StartChar: ordfeminine
Encoding: 170 170 108
Width: 410
GlyphClass: 2
Flags: W
LayerCount: 2
Fore
SplineSet
38 414 m 0,0,1
 38 498 38 498 85 568.5 c 128,-1,2
 132 639 132 639 210 666 c 1,3,4
 266 666 266 666 327 649 c 1,5,6
 340 669 340 669 347 692 c 1,7,-1
 364 687 l 1,8,9
 346 601 346 601 346 474.5 c 128,-1,10
 346 348 346 348 352 300 c 1,11,12
 367 293 367 293 392 293 c 1,13,-1
 392 275 l 1,14,15
 345 273 345 273 280 259 c 1,16,-1
 274 262 l 1,17,18
 283 315 283 315 283 389 c 1,19,-1
 280 389 l 1,20,21
 251 349 251 349 212.5 311 c 128,-1,22
 174 273 174 273 140 259 c 1,23,24
 93 259 93 259 65.5 308 c 128,-1,25
 38 357 38 357 38 414 c 0,0,1
109 451 m 0,26,27
 109 412 109 412 122.5 370 c 128,-1,28
 136 328 136 328 162 328 c 0,29,30
 190 328 190 328 230 367.5 c 128,-1,31
 270 407 270 407 283 439 c 1,32,33
 283 558 283 558 277 594 c 1,34,35
 240 614 240 614 198 614 c 128,-1,36
 156 614 156 614 135 594 c 1,37,38
 109 533 109 533 109 451 c 0,26,27
EndSplineSet
EndChar

StartChar: guillemotleft
Encoding: 171 171 109
Width: 413
GlyphClass: 2
Flags: W
LayerCount: 2
Fore
SplineSet
111 283 m 1,0,-1
 219 125 l 1,1,-1
 199 111 l 1,2,3
 106 218 106 218 21 269 c 1,4,-1
 21 289 l 1,5,6
 116 341 116 341 199 439 c 1,7,-1
 218 426 l 1,8,-1
 111 283 l 1,0,-1
287 285 m 1,9,-1
 385 142 l 1,10,-1
 365 128 l 1,11,12
 274 224 274 224 197 271 c 1,13,-1
 197 291 l 1,14,15
 297 346 297 346 365 426 c 1,16,-1
 384 413 l 1,17,-1
 287 285 l 1,9,-1
EndSplineSet
EndChar

StartChar: logicalnot
Encoding: 172 172 110
Width: 550
GlyphClass: 2
Flags: W
LayerCount: 2
Fore
SplineSet
447 238 m 1,0,-1
 59 238 l 1,1,-1
 51 245 l 1,2,-1
 60 296 l 1,3,4
 229 287 229 287 339 287 c 128,-1,5
 449 287 449 287 488 290 c 1,6,-1
 494 284 l 1,7,8
 494 220 494 220 499 88 c 1,9,-1
 494 82 l 1,10,-1
 447 91 l 1,11,-1
 447 238 l 1,0,-1
EndSplineSet
EndChar

StartChar: registered
Encoding: 174 174 111
Width: 434
GlyphClass: 2
Flags: W
LayerCount: 2
Fore
SplineSet
21 500 m 128,-1,1
 21 582 21 582 78 639 c 128,-1,2
 135 696 135 696 217 696 c 128,-1,3
 299 696 299 696 356 639 c 128,-1,4
 413 582 413 582 413 500 c 128,-1,5
 413 418 413 418 356 361 c 128,-1,6
 299 304 299 304 217 304 c 128,-1,7
 135 304 135 304 78 361 c 128,-1,0
 21 418 21 418 21 500 c 128,-1,1
57 500 m 128,-1,9
 57 432 57 432 103.5 385 c 128,-1,10
 150 338 150 338 217 338 c 128,-1,11
 284 338 284 338 329.5 385 c 128,-1,12
 375 432 375 432 375 500 c 128,-1,13
 375 568 375 568 329.5 614 c 128,-1,14
 284 660 284 660 217 660 c 128,-1,15
 150 660 150 660 103.5 614 c 128,-1,8
 57 568 57 568 57 500 c 128,-1,9
129 605 m 1,16,-1
 219 608 l 1,17,18
 255 608 255 608 274 598.5 c 128,-1,19
 293 589 293 589 293 556 c 128,-1,20
 293 523 293 523 256 508 c 1,21,-1
 299 420 l 1,22,-1
 319 415 l 1,23,-1
 319 404 l 1,24,25
 298 407 298 407 277 407 c 128,-1,26
 256 407 256 407 240 405 c 1,27,-1
 238 412 l 1,28,29
 244 417 244 417 244 434 c 128,-1,30
 244 451 244 451 218 503 c 1,31,32
 210 506 210 506 203 506 c 1,33,-1
 204 517 l 1,34,-1
 208 517 l 2,35,36
 247 517 247 517 247 556 c 0,37,38
 247 590 247 590 214 590 c 0,39,40
 205 590 205 590 197 587 c 1,41,42
 196 568 196 568 196 501 c 128,-1,43
 196 434 196 434 199 420 c 1,44,-1
 221 415 l 1,45,-1
 220 404 l 1,46,47
 197 407 197 407 173 407 c 128,-1,48
 149 407 149 407 125 404 c 1,49,-1
 125 415 l 1,50,51
 137 418 137 418 150 420 c 1,52,53
 154 460 154 460 154 514 c 128,-1,54
 154 568 154 568 151 589 c 1,55,56
 139 593 139 593 129 593 c 1,57,-1
 129 605 l 1,16,-1
EndSplineSet
EndChar

StartChar: macron
Encoding: 175 175 112
Width: 274
GlyphClass: 2
Flags: W
LayerCount: 2
Fore
SplineSet
54 671 m 2,0,1
 103 668 103 668 162 668 c 128,-1,2
 221 668 221 668 266 672 c 1,3,-1
 274 667 l 1,4,-1
 265 621 l 1,5,-1
 9 618 l 1,6,-1
 0 624 l 1,7,-1
 9 674 l 1,8,-1
 54 671 l 2,0,1
EndSplineSet
EndChar

StartChar: degree
Encoding: 176 176 113
Width: 367
GlyphClass: 2
Flags: W
LayerCount: 2
Fore
SplineSet
85 425.5 m 128,-1,1
 45 455 45 455 45 512.5 c 128,-1,2
 45 570 45 570 86.5 613 c 128,-1,3
 128 656 128 656 192 667 c 1,4,5
 250 667 250 667 286 637 c 128,-1,6
 322 607 322 607 322 549.5 c 128,-1,7
 322 492 322 492 284 450.5 c 128,-1,8
 246 409 246 409 184 396 c 1,9,0
 125 396 125 396 85 425.5 c 128,-1,1
242 600.5 m 128,-1,11
 219 628 219 628 179 628 c 128,-1,12
 139 628 139 628 121 611 c 1,13,14
 102 582 102 582 102 536.5 c 128,-1,15
 102 491 102 491 125.5 463 c 128,-1,16
 149 435 149 435 188.5 435 c 128,-1,17
 228 435 228 435 246 452 c 1,18,19
 265 481 265 481 265 527 c 128,-1,10
 265 573 265 573 242 600.5 c 128,-1,11
EndSplineSet
EndChar

StartChar: plusminus
Encoding: 177 177 114
Width: 550
GlyphClass: 2
Flags: W
LayerCount: 2
Fore
SplineSet
299 267 m 1,0,1
 299 185 299 185 308 90 c 1,2,-1
 262 81 l 1,3,-1
 252 88 l 1,4,-1
 252 267 l 1,5,-1
 66 267 l 1,6,-1
 58 274 l 1,7,-1
 67 325 l 1,8,9
 189 319 189 319 252 318 c 1,10,-1
 252 476 l 1,11,-1
 299 485 l 1,12,-1
 304 479 l 1,13,14
 299 391 299 391 299 318 c 2,15,-1
 299 317 l 1,16,17
 336 316 336 316 396 316 c 128,-1,18
 456 316 456 316 495 319 c 1,19,-1
 501 313 l 1,20,-1
 492 267 l 1,21,-1
 299 267 l 1,0,1
59 58 m 1,22,23
 229 49 229 49 338.5 49 c 128,-1,24
 448 49 448 49 487 52 c 1,25,-1
 493 46 l 1,26,-1
 484 0 l 1,27,-1
 58 0 l 1,28,-1
 50 7 l 1,29,-1
 59 58 l 1,22,23
EndSplineSet
EndChar

StartChar: twosuperior
Encoding: 178 178 115
Width: 372
GlyphClass: 2
Flags: W
LayerCount: 2
Fore
SplineSet
143 422 m 1,0,1
 157 423 157 423 192.5 423 c 128,-1,2
 228 423 228 423 293 414 c 1,3,4
 303 433 303 433 313 461 c 1,5,-1
 330 455 l 1,6,7
 321 425 321 425 321 399 c 128,-1,8
 321 373 321 373 327 346 c 1,9,-1
 317 339 l 1,10,11
 173 369 173 369 75 369 c 1,12,13
 61 355 61 355 49 339 c 1,14,-1
 32 347 l 1,15,16
 50 384 50 384 102 438.5 c 128,-1,17
 154 493 154 493 192.5 543 c 128,-1,18
 231 593 231 593 231 628 c 0,19,20
 231 694 231 694 161 694 c 0,21,22
 133 694 133 694 110 683 c 1,23,24
 105 671 105 671 105 655.5 c 128,-1,25
 105 640 105 640 113 635 c 1,26,-1
 113 629 l 1,27,28
 101 622 101 622 73 596 c 1,29,30
 50 598 50 598 50 620 c 0,31,32
 50 657 50 657 94.5 694.5 c 128,-1,33
 139 732 139 732 184 746 c 1,34,35
 250 746 250 746 281 714 c 128,-1,36
 312 682 312 682 312 616 c 1,37,38
 236 517 236 517 122 418 c 1,39,-1
 124 415 l 1,40,41
 135 420 135 420 143 422 c 1,0,1
EndSplineSet
EndChar

StartChar: threesuperior
Encoding: 179 179 116
Width: 334
GlyphClass: 2
Flags: W
LayerCount: 2
Fore
SplineSet
78 460 m 1,0,1
 78 433 78 433 79 418 c 1,2,3
 127 391 127 391 163 391 c 128,-1,4
 199 391 199 391 209 403 c 1,5,6
 218 426 218 426 218 464 c 128,-1,7
 218 502 218 502 194.5 528.5 c 128,-1,8
 171 555 171 555 125 555 c 1,9,-1
 122 559 l 1,10,-1
 207 678 l 1,11,-1
 205 681 l 1,12,13
 194 676 194 676 186 674 c 1,14,15
 141 674 141 674 91 679 c 1,16,17
 81 661 81 661 75 637 c 1,18,-1
 58 643 l 1,19,20
 63 671 63 671 63 694 c 128,-1,21
 63 717 63 717 56 739 c 1,22,-1
 65 745 l 1,23,24
 151 727 151 727 268 727 c 1,25,26
 282 735 282 735 291 745 c 1,27,-1
 304 734 l 1,28,29
 283 715 283 715 185 600 c 1,30,31
 289 581 289 581 289 462 c 1,32,33
 276 425 276 425 238 389 c 128,-1,34
 200 353 200 353 160 339 c 1,35,36
 89 339 89 339 30 365 c 1,37,-1
 30 377 l 1,38,39
 53 409 53 409 60 460 c 1,40,-1
 78 460 l 1,0,1
EndSplineSet
EndChar

StartChar: acute
Encoding: 180 180 117
Width: 200
GlyphClass: 2
Flags: W
LayerCount: 2
Fore
SplineSet
132 727 m 1,0,1
 142 728 142 728 153.5 728 c 128,-1,2
 165 728 165 728 175 726 c 1,3,4
 182 718 182 718 190.5 697.5 c 128,-1,5
 199 677 199 677 200 667 c 1,6,-1
 11 558 l 1,7,-1
 0 576 l 1,8,9
 37 601 37 601 72.5 643 c 128,-1,10
 108 685 108 685 132 727 c 1,0,1
EndSplineSet
EndChar

StartChar: mu
Encoding: 181 181 118
AltUni2: 0003bc.ffffffff.0
Width: 529
GlyphClass: 2
Flags: W
LayerCount: 2
Fore
SplineSet
451 480 m 1,0,1
 431 411 431 411 431 257.5 c 128,-1,2
 431 104 431 104 438 33 c 1,3,4
 462 25 462 25 492 25 c 1,5,-1
 492 4 l 1,6,7
 428 1 428 1 357 -15 c 1,8,-1
 350 -13 l 1,9,10
 361 56 361 56 361 145 c 1,11,-1
 357 146 l 1,12,13
 323 98 323 98 270 48.5 c 128,-1,14
 217 -1 217 -1 173 -15 c 1,15,16
 148 -15 148 -15 136 -1 c 1,17,18
 136 -106 136 -106 157 -196 c 1,19,-1
 154 -199 l 1,20,21
 110 -207 110 -207 78 -219 c 1,22,-1
 69 -212 l 1,23,24
 78 -149 78 -149 88 143 c 1,25,-1
 92 331 l 2,26,27
 92 342 92 342 92 383.5 c 128,-1,28
 92 425 92 425 86 467 c 1,29,-1
 90 470 l 1,30,31
 147 476 147 476 182 485 c 1,32,-1
 188 480 l 1,33,34
 153 337 153 337 153 172 c 0,35,36
 153 92 153 92 174 76 c 1,37,38
 184 67 184 67 201 67 c 0,39,40
 239 67 239 67 291 115.5 c 128,-1,41
 343 164 343 164 361 207 c 1,42,43
 361 396 361 396 347 470 c 1,44,45
 407 476 407 476 445 485 c 1,46,-1
 451 480 l 1,0,1
EndSplineSet
EndChar

StartChar: paragraph
Encoding: 182 182 119
Width: 512
GlyphClass: 2
Flags: W
LayerCount: 2
Fore
SplineSet
201 658 m 1,0,-1
 491 649 l 1,1,-1
 491 624 l 1,2,3
 441 624 441 624 393 608 c 1,4,5
 382 514 382 514 382 325 c 2,6,-1
 382 126 l 1,7,8
 371 39 371 39 310.5 -38 c 128,-1,9
 250 -115 250 -115 174 -115 c 0,10,11
 162 -115 162 -115 153 -107.5 c 128,-1,12
 144 -100 144 -100 143 -88 c 1,13,14
 170 -63 170 -63 185 -38 c 1,15,-1
 192 -37 l 1,16,17
 203 -47 203 -47 233 -47 c 128,-1,18
 263 -47 263 -47 277 -40 c 1,19,20
 305 29 305 29 305 114 c 0,21,22
 305 119 305 119 305 125 c 2,23,-1
 305 325 l 2,24,25
 305 523 305 523 296 617 c 1,26,27
 285 620 285 620 271.5 620 c 128,-1,28
 258 620 258 620 248 617 c 1,29,30
 240 560 240 560 240 454.5 c 128,-1,31
 240 349 240 349 262 310 c 1,32,-1
 260 296 l 1,33,34
 253 295 253 295 238 295 c 0,35,36
 141 295 141 295 68 350 c 128,-1,37
 -5 405 -5 405 -5 494 c 0,38,39
 -5 658 -5 658 201 658 c 1,0,-1
EndSplineSet
EndChar

StartChar: periodcentered
Encoding: 183 183 120
Width: 212
GlyphClass: 2
Flags: W
LayerCount: 2
Fore
SplineSet
160 284 m 1,0,1
 153 271 153 271 135.5 251 c 128,-1,2
 118 231 118 231 106 223 c 1,3,4
 94 231 94 231 76.5 251 c 128,-1,5
 59 271 59 271 52 284 c 1,6,7
 58 296 58 296 75 311.5 c 128,-1,8
 92 327 92 327 106 334 c 1,9,10
 119 326 119 326 136 310.5 c 128,-1,11
 153 295 153 295 160 284 c 1,0,1
EndSplineSet
EndChar

StartChar: cedilla
Encoding: 184 184 121
Width: 184
GlyphClass: 2
Flags: W
LayerCount: 2
Fore
SplineSet
88 -178 m 0,0,1
 106 -178 106 -178 114 -173 c 1,2,3
 123 -160 123 -160 123 -142 c 0,4,5
 123 -97 123 -97 40 -97 c 1,6,-1
 34 -93 l 1,7,-1
 72 14 l 1,8,-1
 101 16 l 1,9,-1
 77 -46 l 1,10,-1
 81 -49 l 1,11,12
 127 -49 127 -49 155.5 -70 c 128,-1,13
 184 -91 184 -91 184 -133 c 1,14,15
 170 -160 170 -160 143.5 -182.5 c 128,-1,16
 117 -205 117 -205 88 -215 c 1,17,18
 44 -215 44 -215 0 -194 c 1,19,20
 10 -175 10 -175 16 -155 c 1,21,-1
 20 -153 l 1,22,23
 52 -178 52 -178 88 -178 c 0,0,1
EndSplineSet
EndChar

StartChar: onesuperior
Encoding: 185 185 122
Width: 303
GlyphClass: 2
Flags: W
LayerCount: 2
Fore
SplineSet
133 507 m 2,0,-1
 133 574 l 2,1,2
 133 618 133 618 130 665 c 1,3,-1
 70 665 l 1,4,-1
 68 667 l 1,5,6
 68 678 68 678 70 684 c 1,7,8
 142 704 142 704 180 744 c 1,9,10
 192 746 192 746 206 746 c 1,11,-1
 209 744 l 1,12,13
 198 663 198 663 198 574 c 2,14,-1
 198 507 l 2,15,16
 198 426 198 426 204 380 c 1,17,18
 229 372 229 372 249 363 c 1,19,-1
 246 346 l 1,20,21
 206 352 206 352 161 352 c 128,-1,22
 116 352 116 352 77 345 c 1,23,-1
 75 362 l 1,24,25
 100 373 100 373 125 378 c 1,26,27
 133 447 133 447 133 507 c 2,0,-1
EndSplineSet
EndChar

StartChar: ordmasculine
Encoding: 186 186 123
Width: 395
GlyphClass: 2
Flags: W
LayerCount: 2
Fore
SplineSet
79 307 m 128,-1,1
 32 355 32 355 32 432 c 128,-1,2
 32 509 32 509 80 577.5 c 128,-1,3
 128 646 128 646 206 666 c 1,4,5
 283 666 283 666 323 622 c 128,-1,6
 363 578 363 578 363 501 c 128,-1,7
 363 424 363 424 316.5 356 c 128,-1,8
 270 288 270 288 198 259 c 1,9,0
 126 259 126 259 79 307 c 128,-1,1
184 613 m 0,10,11
 150 613 150 613 130 594 c 1,12,13
 103 541 103 541 103 476 c 128,-1,14
 103 411 103 411 132.5 362 c 128,-1,15
 162 313 162 313 212 313 c 0,16,17
 244 313 244 313 266 333 c 1,18,19
 292 380 292 380 292 450.5 c 128,-1,20
 292 521 292 521 265 567 c 128,-1,21
 238 613 238 613 184 613 c 0,10,11
EndSplineSet
EndChar

StartChar: guillemotright
Encoding: 187 187 124
Width: 413
GlyphClass: 2
Flags: W
LayerCount: 2
Fore
SplineSet
194 125 m 1,0,-1
 302 283 l 1,1,-1
 197 426 l 1,2,-1
 214 439 l 1,3,4
 297 341 297 341 392 289 c 1,5,-1
 392 269 l 1,6,7
 307 218 307 218 214 111 c 1,8,-1
 194 125 l 1,0,-1
28 142 m 1,9,-1
 126 285 l 1,10,-1
 31 413 l 1,11,-1
 48 426 l 1,12,13
 116 346 116 346 216 291 c 1,14,-1
 216 271 l 1,15,16
 139 224 139 224 48 128 c 1,17,-1
 28 142 l 1,9,-1
EndSplineSet
EndChar

StartChar: onequarter
Encoding: 188 188 125
Width: 830
GlyphClass: 2
Flags: W
LayerCount: 2
Fore
SplineSet
729 263 m 2,0,-1
 729 156 l 1,1,2
 784 156 784 156 795 188 c 1,3,-1
 809 184 l 1,4,5
 804 159 804 159 804 139.5 c 128,-1,6
 804 120 804 120 804 111 c 1,7,-1
 800 109 l 1,8,9
 776 111 776 111 730 111 c 1,10,11
 730 66 730 66 735 41 c 1,12,13
 748 34 748 34 780 25 c 1,14,-1
 777 7 l 1,15,16
 737 13 737 13 688 13 c 128,-1,17
 639 13 639 13 606 5 c 1,18,-1
 604 22 l 1,19,20
 631 34 631 34 658 39 c 1,21,22
 663 68 663 68 663 111 c 1,23,-1
 474 111 l 1,24,-1
 470 123 l 1,25,26
 607 283 607 283 661 389 c 1,27,28
 697 393 697 393 732 406 c 1,29,-1
 738 404 l 1,30,31
 729 356 729 356 729 263 c 2,0,-1
151 -42 m 1,32,-1
 146 -41 l 1,33,34
 129 -27 129 -27 117 -1 c 1,35,36
 210 117 210 117 242 160 c 2,37,-1
 496 511 l 2,38,39
 555 593 555 593 628 704 c 1,40,41
 650 699 650 699 681 697 c 1,42,-1
 685 694 l 1,43,44
 653 654 653 654 549 510 c 2,45,-1
 151 -42 l 1,32,-1
133 427 m 2,46,-1
 133 494 l 2,47,48
 133 538 133 538 130 585 c 1,49,-1
 70 585 l 1,50,-1
 68 587 l 1,51,52
 68 598 68 598 70 604 c 1,53,54
 142 624 142 624 180 664 c 1,55,56
 192 666 192 666 206 666 c 1,57,-1
 209 664 l 1,58,59
 198 583 198 583 198 494 c 2,60,-1
 198 427 l 2,61,62
 198 346 198 346 204 300 c 1,63,64
 229 292 229 292 249 283 c 1,65,-1
 246 266 l 1,66,67
 206 272 206 272 161 272 c 128,-1,68
 116 272 116 272 77 265 c 1,69,-1
 75 282 l 1,70,71
 100 293 100 293 125 298 c 1,72,73
 133 367 133 367 133 427 c 2,46,-1
660 331 m 1,74,75
 627 261 627 261 555 163 c 1,76,77
 599 157 599 157 663 157 c 1,78,-1
 665 331 l 1,79,-1
 660 331 l 1,74,75
EndSplineSet
EndChar

StartChar: onehalf
Encoding: 189 189 126
Width: 830
GlyphClass: 2
Flags: W
LayerCount: 2
Fore
SplineSet
151 -42 m 1,0,-1
 146 -41 l 1,1,2
 129 -27 129 -27 117 -1 c 1,3,4
 210 117 210 117 242 160 c 2,5,-1
 496 511 l 2,6,7
 555 593 555 593 628 704 c 1,8,9
 650 699 650 699 681 697 c 1,10,-1
 685 694 l 1,11,12
 653 654 653 654 549 510 c 2,13,-1
 151 -42 l 1,0,-1
133 427 m 2,14,-1
 133 494 l 2,15,16
 133 538 133 538 130 585 c 1,17,-1
 70 585 l 1,18,-1
 68 587 l 1,19,20
 68 598 68 598 70 604 c 1,21,22
 142 624 142 624 180 664 c 1,23,24
 192 666 192 666 206 666 c 1,25,-1
 209 664 l 1,26,27
 198 583 198 583 198 494 c 2,28,-1
 198 427 l 2,29,30
 198 346 198 346 204 300 c 1,31,32
 229 292 229 292 249 283 c 1,33,-1
 246 266 l 1,34,35
 206 272 206 272 161 272 c 128,-1,36
 116 272 116 272 77 265 c 1,37,-1
 75 282 l 1,38,39
 100 293 100 293 125 298 c 1,40,41
 133 367 133 367 133 427 c 2,14,-1
600 83 m 1,42,43
 615 84 615 84 650.5 84 c 128,-1,44
 686 84 686 84 750 75 c 1,45,46
 760 94 760 94 770 122 c 1,47,-1
 787 116 l 1,48,49
 778 86 778 86 778 60 c 128,-1,50
 778 34 778 34 784 7 c 1,51,-1
 774 0 l 1,52,53
 630 30 630 30 532 30 c 1,54,55
 518 16 518 16 506 0 c 1,56,-1
 489 8 l 1,57,58
 507 45 507 45 559 99.5 c 128,-1,59
 611 154 611 154 649.5 204 c 128,-1,60
 688 254 688 254 688 290 c 0,61,62
 688 355 688 355 618 355 c 0,63,64
 590 355 590 355 567 344 c 1,65,66
 562 332 562 332 562 316.5 c 128,-1,67
 562 301 562 301 570 296 c 1,68,-1
 570 290 l 1,69,70
 558 283 558 283 530 257 c 1,71,72
 507 259 507 259 507 281 c 0,73,74
 507 318 507 318 551.5 355.5 c 128,-1,75
 596 393 596 393 641 407 c 1,76,77
 707 407 707 407 738 375 c 128,-1,78
 769 343 769 343 769 277 c 1,79,80
 693 178 693 178 579 79 c 1,81,-1
 581 76 l 1,82,83
 592 81 592 81 600 83 c 1,42,43
EndSplineSet
EndChar

StartChar: threequarters
Encoding: 190 190 127
Width: 830
GlyphClass: 2
Flags: W
LayerCount: 2
Fore
SplineSet
729 263 m 2,0,-1
 729 156 l 1,1,2
 784 156 784 156 795 188 c 1,3,-1
 809 184 l 1,4,5
 804 159 804 159 804 139.5 c 128,-1,6
 804 120 804 120 804 111 c 1,7,-1
 800 109 l 1,8,9
 776 111 776 111 730 111 c 1,10,11
 730 66 730 66 735 41 c 1,12,13
 748 34 748 34 780 25 c 1,14,-1
 777 7 l 1,15,16
 737 13 737 13 688 13 c 128,-1,17
 639 13 639 13 606 5 c 1,18,-1
 604 22 l 1,19,20
 631 34 631 34 658 39 c 1,21,22
 663 68 663 68 663 111 c 1,23,-1
 474 111 l 1,24,-1
 470 123 l 1,25,26
 607 283 607 283 661 389 c 1,27,28
 697 393 697 393 732 406 c 1,29,-1
 738 404 l 1,30,31
 729 356 729 356 729 263 c 2,0,-1
78 380 m 1,32,33
 78 353 78 353 79 338 c 1,34,35
 127 311 127 311 163 311 c 128,-1,36
 199 311 199 311 209 323 c 1,37,38
 218 346 218 346 218 384 c 128,-1,39
 218 422 218 422 194.5 448.5 c 128,-1,40
 171 475 171 475 125 475 c 1,41,-1
 122 479 l 1,42,-1
 207 598 l 1,43,-1
 205 601 l 1,44,45
 194 596 194 596 186 594 c 1,46,47
 141 594 141 594 91 599 c 1,48,49
 81 581 81 581 75 557 c 1,50,-1
 58 563 l 1,51,52
 63 591 63 591 63 614 c 128,-1,53
 63 637 63 637 56 659 c 1,54,-1
 65 665 l 1,55,56
 151 647 151 647 268 647 c 1,57,58
 282 655 282 655 291 665 c 1,59,-1
 304 654 l 1,60,61
 283 635 283 635 185 520 c 1,62,63
 289 501 289 501 289 382 c 1,64,65
 276 345 276 345 238 309 c 128,-1,66
 200 273 200 273 160 259 c 1,67,68
 89 259 89 259 30 285 c 1,69,-1
 30 297 l 1,70,71
 53 329 53 329 60 380 c 1,72,-1
 78 380 l 1,32,33
151 -42 m 1,73,-1
 146 -41 l 1,74,75
 129 -27 129 -27 117 -1 c 1,76,77
 210 117 210 117 242 160 c 2,78,-1
 496 511 l 2,79,80
 555 593 555 593 628 704 c 1,81,82
 650 699 650 699 681 697 c 1,83,-1
 685 694 l 1,84,85
 653 654 653 654 549 510 c 2,86,-1
 151 -42 l 1,73,-1
660 331 m 1,87,88
 627 261 627 261 555 163 c 1,89,90
 599 157 599 157 663 157 c 1,91,-1
 665 331 l 1,92,-1
 660 331 l 1,87,88
EndSplineSet
EndChar

StartChar: questiondown
Encoding: 191 191 128
Width: 335
GlyphClass: 2
Flags: W
LayerCount: 2
Fore
SplineSet
128 436 m 1,0,1
 135 447 135 447 152 462.5 c 128,-1,2
 169 478 169 478 182 486 c 1,3,4
 196 479 196 479 213 463.5 c 128,-1,5
 230 448 230 448 236 436 c 1,6,7
 229 423 229 423 211.5 403 c 128,-1,8
 194 383 194 383 182 375 c 1,9,10
 170 383 170 383 152.5 403 c 128,-1,11
 135 423 135 423 128 436 c 1,0,1
96 -79 m 0,12,13
 96 -116 96 -116 120 -134.5 c 128,-1,14
 144 -153 144 -153 181 -153 c 128,-1,15
 218 -153 218 -153 246 -139 c 1,16,17
 253 -127 253 -127 253 -107 c 128,-1,18
 253 -87 253 -87 243 -78 c 1,19,-1
 244 -71 l 1,20,21
 270 -55 270 -55 292 -31 c 1,22,23
 304 -32 304 -32 311 -40.5 c 128,-1,24
 318 -49 318 -49 318 -60 c 0,25,26
 318 -106 318 -106 264.5 -152.5 c 128,-1,27
 211 -199 211 -199 156 -215 c 1,28,29
 75 -215 75 -215 37.5 -176 c 128,-1,30
 0 -137 0 -137 0 -56 c 1,31,32
 63 34 63 34 158 129 c 1,33,34
 165 218 165 218 169 299 c 1,35,-1
 195 301 l 1,36,-1
 216 162 l 1,37,-1
 216 143 l 1,38,39
 96 23 96 23 96 -79 c 0,12,13
EndSplineSet
EndChar

StartChar: Agrave
Encoding: 192 192 129
Width: 599
GlyphClass: 2
Flags: W
LayerCount: 2
Fore
SplineSet
370 731 m 1,0,-1
 164 806 l 1,1,2
 163 816 163 816 168.5 837.5 c 128,-1,3
 174 859 174 859 179 868 c 1,4,5
 199 875 199 875 221 877 c 1,6,7
 296 787 296 787 378 751 c 1,8,-1
 370 731 l 1,0,-1
474 533 m 128,-1,10
 469 459 469 459 469 295 c 128,-1,11
 469 131 469 131 482 35 c 1,12,13
 535 30 535 30 592 16 c 1,14,-1
 589 -8 l 1,15,16
 515 0 515 0 428.5 0 c 128,-1,17
 342 0 342 0 289 -8 c 1,18,-1
 285 17 l 1,19,20
 330 31 330 31 381 38 c 1,21,22
 389 104 389 104 392 251 c 1,23,24
 340 257 340 257 277.5 257 c 128,-1,25
 215 257 215 257 172 251 c 1,26,27
 148 153 148 153 148 94 c 128,-1,28
 148 35 148 35 191 10 c 1,29,-1
 187 -4 l 1,30,31
 156 0 156 0 82.5 0 c 128,-1,32
 9 0 9 0 -50 -8 c 1,33,-1
 -54 17 l 1,34,35
 -9 31 -9 31 42 38 c 1,36,-1
 200 598 l 1,37,38
 82 598 82 598 49 566 c 1,39,40
 42 552 42 552 42 522 c 128,-1,41
 42 492 42 492 52 481 c 1,42,-1
 51 474 l 1,43,44
 26 459 26 459 1 432 c 1,45,46
 -11 433 -11 433 -18.5 442 c 128,-1,47
 -26 451 -26 451 -26 463 c 0,48,49
 -26 512 -26 512 33 580 c 128,-1,50
 92 648 92 648 143 666 c 1,51,52
 294 649 294 649 449 637 c 1,53,54
 463 655 463 655 472 683 c 1,55,-1
 493 677 l 1,56,9
 479 607 479 607 474 533 c 128,-1,10
183 301 m 1,57,58
 228 294 228 294 289.5 294 c 128,-1,59
 351 294 351 294 392 301 c 1,60,61
 392 478 392 478 387 590 c 1,62,-1
 384 593 l 1,63,64
 332 598 332 598 255 598 c 1,65,-1
 183 301 l 1,57,58
EndSplineSet
EndChar

StartChar: Aacute
Encoding: 193 193 130
Width: 599
GlyphClass: 2
Flags: W
LayerCount: 2
Fore
SplineSet
529 797 m 1,0,-1
 323 722 l 1,1,-1
 315 742 l 1,2,3
 397 778 397 778 472 868 c 1,4,5
 494 866 494 866 514 859 c 1,6,7
 519 850 519 850 524.5 828.5 c 128,-1,8
 530 807 530 807 529 797 c 1,0,-1
474 533 m 128,-1,10
 469 459 469 459 469 295 c 128,-1,11
 469 131 469 131 482 35 c 1,12,13
 535 30 535 30 592 16 c 1,14,-1
 589 -8 l 1,15,16
 515 0 515 0 428.5 0 c 128,-1,17
 342 0 342 0 289 -8 c 1,18,-1
 285 17 l 1,19,20
 330 31 330 31 381 38 c 1,21,22
 389 104 389 104 392 251 c 1,23,24
 340 257 340 257 277.5 257 c 128,-1,25
 215 257 215 257 172 251 c 1,26,27
 148 153 148 153 148 94 c 128,-1,28
 148 35 148 35 191 10 c 1,29,-1
 187 -4 l 1,30,31
 156 0 156 0 82.5 0 c 128,-1,32
 9 0 9 0 -50 -8 c 1,33,-1
 -54 17 l 1,34,35
 -9 31 -9 31 42 38 c 1,36,-1
 200 598 l 1,37,38
 82 598 82 598 49 566 c 1,39,40
 42 552 42 552 42 522 c 128,-1,41
 42 492 42 492 52 481 c 1,42,-1
 51 474 l 1,43,44
 26 459 26 459 1 432 c 1,45,46
 -11 433 -11 433 -18.5 442 c 128,-1,47
 -26 451 -26 451 -26 463 c 0,48,49
 -26 512 -26 512 33 580 c 128,-1,50
 92 648 92 648 143 666 c 1,51,52
 294 649 294 649 449 637 c 1,53,54
 463 655 463 655 472 683 c 1,55,-1
 493 677 l 1,56,9
 479 607 479 607 474 533 c 128,-1,10
183 301 m 1,57,58
 228 294 228 294 289.5 294 c 128,-1,59
 351 294 351 294 392 301 c 1,60,61
 392 478 392 478 387 590 c 1,62,-1
 384 593 l 1,63,64
 332 598 332 598 255 598 c 1,65,-1
 183 301 l 1,57,58
EndSplineSet
EndChar

StartChar: Acircumflex
Encoding: 194 194 131
Width: 599
GlyphClass: 2
Flags: W
LayerCount: 2
Fore
SplineSet
509 715 m 1,0,-1
 348 790 l 1,1,-1
 187 715 l 1,2,-1
 177 734 l 1,3,4
 269 792 269 792 338 885 c 1,5,-1
 358 885 l 1,6,7
 427 792 427 792 519 734 c 1,8,-1
 509 715 l 1,0,-1
474 533 m 128,-1,10
 469 459 469 459 469 295 c 128,-1,11
 469 131 469 131 482 35 c 1,12,13
 535 30 535 30 592 16 c 1,14,-1
 589 -8 l 1,15,16
 515 0 515 0 428.5 0 c 128,-1,17
 342 0 342 0 289 -8 c 1,18,-1
 285 17 l 1,19,20
 330 31 330 31 381 38 c 1,21,22
 389 104 389 104 392 251 c 1,23,24
 340 257 340 257 277.5 257 c 128,-1,25
 215 257 215 257 172 251 c 1,26,27
 148 153 148 153 148 94 c 128,-1,28
 148 35 148 35 191 10 c 1,29,-1
 187 -4 l 1,30,31
 156 0 156 0 82.5 0 c 128,-1,32
 9 0 9 0 -50 -8 c 1,33,-1
 -54 17 l 1,34,35
 -9 31 -9 31 42 38 c 1,36,-1
 200 598 l 1,37,38
 82 598 82 598 49 566 c 1,39,40
 42 552 42 552 42 522 c 128,-1,41
 42 492 42 492 52 481 c 1,42,-1
 51 474 l 1,43,44
 26 459 26 459 1 432 c 1,45,46
 -11 433 -11 433 -18.5 442 c 128,-1,47
 -26 451 -26 451 -26 463 c 0,48,49
 -26 512 -26 512 33 580 c 128,-1,50
 92 648 92 648 143 666 c 1,51,52
 294 649 294 649 449 637 c 1,53,54
 463 655 463 655 472 683 c 1,55,-1
 493 677 l 1,56,9
 479 607 479 607 474 533 c 128,-1,10
183 301 m 1,57,58
 228 294 228 294 289.5 294 c 128,-1,59
 351 294 351 294 392 301 c 1,60,61
 392 478 392 478 387 590 c 1,62,-1
 384 593 l 1,63,64
 332 598 332 598 255 598 c 1,65,-1
 183 301 l 1,57,58
EndSplineSet
EndChar

StartChar: Atilde
Encoding: 195 195 132
Width: 599
GlyphClass: 2
Flags: W
LayerCount: 2
Fore
SplineSet
311 837 m 1,0,1
 370 806 370 806 422.5 806 c 128,-1,2
 475 806 475 806 495 830 c 1,3,-1
 513 819 l 1,4,5
 457 758 457 758 409 737 c 1,6,7
 388 737 388 737 336.5 752.5 c 128,-1,8
 285 768 285 768 264 768 c 0,9,10
 221 768 221 768 201 744 c 1,11,-1
 183 755 l 1,12,13
 239 816 239 816 311 837 c 1,0,1
474 533 m 128,-1,15
 469 459 469 459 469 295 c 128,-1,16
 469 131 469 131 482 35 c 1,17,18
 535 30 535 30 592 16 c 1,19,-1
 589 -8 l 1,20,21
 515 0 515 0 428.5 0 c 128,-1,22
 342 0 342 0 289 -8 c 1,23,-1
 285 17 l 1,24,25
 330 31 330 31 381 38 c 1,26,27
 389 104 389 104 392 251 c 1,28,29
 340 257 340 257 277.5 257 c 128,-1,30
 215 257 215 257 172 251 c 1,31,32
 148 153 148 153 148 94 c 128,-1,33
 148 35 148 35 191 10 c 1,34,-1
 187 -4 l 1,35,36
 156 0 156 0 82.5 0 c 128,-1,37
 9 0 9 0 -50 -8 c 1,38,-1
 -54 17 l 1,39,40
 -9 31 -9 31 42 38 c 1,41,-1
 200 598 l 1,42,43
 82 598 82 598 49 566 c 1,44,45
 42 552 42 552 42 522 c 128,-1,46
 42 492 42 492 52 481 c 1,47,-1
 51 474 l 1,48,49
 26 459 26 459 1 432 c 1,50,51
 -11 433 -11 433 -18.5 442 c 128,-1,52
 -26 451 -26 451 -26 463 c 0,53,54
 -26 512 -26 512 33 580 c 128,-1,55
 92 648 92 648 143 666 c 1,56,57
 294 649 294 649 449 637 c 1,58,59
 463 655 463 655 472 683 c 1,60,-1
 493 677 l 1,61,14
 479 607 479 607 474 533 c 128,-1,15
183 301 m 1,62,63
 228 294 228 294 289.5 294 c 128,-1,64
 351 294 351 294 392 301 c 1,65,66
 392 478 392 478 387 590 c 1,67,-1
 384 593 l 1,68,69
 332 598 332 598 255 598 c 1,70,-1
 183 301 l 1,62,63
EndSplineSet
EndChar

StartChar: Adieresis
Encoding: 196 196 133
Width: 599
GlyphClass: 2
Flags: W
LayerCount: 2
Fore
SplineSet
310 803 m 1,0,1
 303 790 303 790 285.5 770 c 128,-1,2
 268 750 268 750 256 742 c 1,3,4
 244 750 244 750 226.5 770 c 128,-1,5
 209 790 209 790 202 803 c 1,6,7
 208 815 208 815 225 830.5 c 128,-1,8
 242 846 242 846 256 853 c 1,9,10
 269 845 269 845 286 829.5 c 128,-1,11
 303 814 303 814 310 803 c 1,0,1
495 803 m 1,12,13
 488 790 488 790 470.5 770 c 128,-1,14
 453 750 453 750 441 742 c 1,15,16
 429 750 429 750 411.5 770 c 128,-1,17
 394 790 394 790 387 803 c 1,18,19
 393 815 393 815 410 830.5 c 128,-1,20
 427 846 427 846 441 853 c 1,21,22
 454 845 454 845 471 829.5 c 128,-1,23
 488 814 488 814 495 803 c 1,12,13
474 533 m 128,-1,25
 469 459 469 459 469 295 c 128,-1,26
 469 131 469 131 482 35 c 1,27,28
 535 30 535 30 592 16 c 1,29,-1
 589 -8 l 1,30,31
 515 0 515 0 428.5 0 c 128,-1,32
 342 0 342 0 289 -8 c 1,33,-1
 285 17 l 1,34,35
 330 31 330 31 381 38 c 1,36,37
 389 104 389 104 392 251 c 1,38,39
 340 257 340 257 277.5 257 c 128,-1,40
 215 257 215 257 172 251 c 1,41,42
 148 153 148 153 148 94 c 128,-1,43
 148 35 148 35 191 10 c 1,44,-1
 187 -4 l 1,45,46
 156 0 156 0 82.5 0 c 128,-1,47
 9 0 9 0 -50 -8 c 1,48,-1
 -54 17 l 1,49,50
 -9 31 -9 31 42 38 c 1,51,-1
 200 598 l 1,52,53
 82 598 82 598 49 566 c 1,54,55
 42 552 42 552 42 522 c 128,-1,56
 42 492 42 492 52 481 c 1,57,-1
 51 474 l 1,58,59
 26 459 26 459 1 432 c 1,60,61
 -11 433 -11 433 -18.5 442 c 128,-1,62
 -26 451 -26 451 -26 463 c 0,63,64
 -26 512 -26 512 33 580 c 128,-1,65
 92 648 92 648 143 666 c 1,66,67
 294 649 294 649 449 637 c 1,68,69
 463 655 463 655 472 683 c 1,70,-1
 493 677 l 1,71,24
 479 607 479 607 474 533 c 128,-1,25
183 301 m 1,72,73
 228 294 228 294 289.5 294 c 128,-1,74
 351 294 351 294 392 301 c 1,75,76
 392 478 392 478 387 590 c 1,77,-1
 384 593 l 1,78,79
 332 598 332 598 255 598 c 1,80,-1
 183 301 l 1,72,73
EndSplineSet
EndChar

StartChar: Aring
Encoding: 197 197 134
Width: 599
GlyphClass: 2
Flags: W
LayerCount: 2
Fore
SplineSet
474 533 m 128,-1,1
 469 459 469 459 469 295 c 128,-1,2
 469 131 469 131 482 35 c 1,3,4
 535 30 535 30 592 16 c 1,5,-1
 589 -8 l 1,6,7
 515 0 515 0 428.5 0 c 128,-1,8
 342 0 342 0 289 -8 c 1,9,-1
 285 17 l 1,10,11
 330 31 330 31 381 38 c 1,12,13
 389 104 389 104 392 251 c 1,14,15
 340 257 340 257 277.5 257 c 128,-1,16
 215 257 215 257 172 251 c 1,17,18
 148 153 148 153 148 94 c 128,-1,19
 148 35 148 35 191 10 c 1,20,-1
 187 -4 l 1,21,22
 156 0 156 0 82.5 0 c 128,-1,23
 9 0 9 0 -50 -8 c 1,24,-1
 -54 17 l 1,25,26
 -9 31 -9 31 42 38 c 1,27,-1
 200 598 l 1,28,29
 82 598 82 598 49 566 c 1,30,31
 42 552 42 552 42 522 c 128,-1,32
 42 492 42 492 52 481 c 1,33,-1
 51 474 l 1,34,35
 26 459 26 459 1 432 c 1,36,37
 -11 433 -11 433 -18.5 442 c 128,-1,38
 -26 451 -26 451 -26 463 c 0,39,40
 -26 512 -26 512 33 580 c 128,-1,41
 92 648 92 648 143 666 c 1,42,43
 294 649 294 649 449 637 c 1,44,45
 463 655 463 655 472 683 c 1,46,-1
 493 677 l 1,47,0
 479 607 479 607 474 533 c 128,-1,1
183 301 m 1,48,49
 228 294 228 294 289.5 294 c 128,-1,50
 351 294 351 294 392 301 c 1,51,52
 392 478 392 478 387 590 c 1,53,-1
 384 593 l 1,54,55
 332 598 332 598 255 598 c 1,56,-1
 183 301 l 1,48,49
271 723 m 128,-1,58
 243 742 243 742 243 779.5 c 128,-1,59
 243 817 243 817 272.5 846.5 c 128,-1,60
 302 876 302 876 345 885 c 1,61,62
 436 885 436 885 436 811 c 0,63,64
 436 772 436 772 409.5 744.5 c 128,-1,65
 383 717 383 717 340 704 c 1,66,57
 299 704 299 704 271 723 c 128,-1,58
373.5 834 m 128,-1,68
 358 850 358 850 335 850 c 128,-1,69
 312 850 312 850 301 841 c 1,70,71
 290 824 290 824 290 798 c 128,-1,72
 290 772 290 772 306 755.5 c 128,-1,73
 322 739 322 739 345 739 c 128,-1,74
 368 739 368 739 378 748 c 1,75,76
 389 764 389 764 389 791 c 128,-1,67
 389 818 389 818 373.5 834 c 128,-1,68
EndSplineSet
EndChar

StartChar: AE
Encoding: 198 198 135
Width: 744
GlyphClass: 2
Flags: W
LayerCount: 2
Fore
SplineSet
193 682 m 1,0,1
 331 651 331 651 467 651 c 128,-1,2
 603 651 603 651 733 662 c 1,3,-1
 737 642 l 1,4,5
 685 589 685 589 678 484 c 1,6,-1
 653 484 l 1,7,8
 644 527 644 527 644 593 c 1,9,10
 601 614 601 614 544.5 614 c 128,-1,11
 488 614 488 614 460 609 c 1,12,13
 443 557 443 557 435 365 c 1,14,15
 466 358 466 358 512 358 c 0,16,17
 601 358 601 358 621 401 c 1,18,-1
 641 397 l 1,19,20
 632 365 632 365 632 320.5 c 128,-1,21
 632 276 632 276 638 233 c 1,22,-1
 615 229 l 1,23,24
 600 267 600 267 595 318 c 1,25,26
 558 321 558 321 513 321 c 128,-1,27
 468 321 468 321 434 316 c 1,28,-1
 434 273 l 2,29,30
 434 178 434 178 458 124 c 0,31,32
 484 64 484 64 570 64 c 0,33,34
 642 64 642 64 718 142 c 1,35,-1
 732 129 l 1,36,37
 649 19 649 19 549 -15 c 1,38,39
 438 -15 438 -15 395 53 c 128,-1,40
 352 121 352 121 352 241 c 0,41,42
 352 246 352 246 352 252 c 2,43,-1
 353 315 l 1,44,45
 322 321 322 321 276 321 c 128,-1,46
 230 321 230 321 205 315 c 1,47,-1
 191 269 l 2,48,49
 153 143 153 143 153 87.5 c 128,-1,50
 153 32 153 32 191 10 c 1,51,-1
 187 -4 l 1,52,53
 156 0 156 0 82.5 0 c 128,-1,54
 9 0 9 0 -50 -8 c 1,55,-1
 -54 17 l 1,56,57
 -9 31 -9 31 42 38 c 1,58,-1
 250 614 l 1,59,60
 132 614 132 614 99 582 c 1,61,62
 92 568 92 568 92 538 c 128,-1,63
 92 508 92 508 102 497 c 1,64,-1
 101 490 l 1,65,66
 76 475 76 475 51 448 c 1,67,68
 39 449 39 449 31.5 458 c 128,-1,69
 24 467 24 467 24 479 c 0,70,71
 24 528 24 528 83 596 c 128,-1,72
 142 664 142 664 193 682 c 1,0,1
223 364 m 1,73,74
 246 358 246 358 288 358 c 128,-1,75
 330 358 330 358 355 365 c 1,76,77
 361 475 361 475 363.5 511 c 128,-1,78
 366 547 366 547 366 571 c 128,-1,79
 366 595 366 595 363 611 c 1,80,81
 349 614 349 614 330.5 614 c 128,-1,82
 312 614 312 614 295 611 c 1,83,-1
 223 364 l 1,73,74
EndSplineSet
EndChar

StartChar: Ccedilla
Encoding: 199 199 136
Width: 498
GlyphClass: 2
Flags: W
LayerCount: 2
Fore
SplineSet
238 -11 m 1,0,1
 42 17 42 17 42 276 c 0,2,3
 42 403 42 403 115.5 517.5 c 128,-1,4
 189 632 189 632 313 666 c 1,5,6
 414 666 414 666 519 647 c 1,7,-1
 518 625 l 1,8,9
 492 625 492 625 470 616 c 1,10,11
 445 557 445 557 437 478 c 1,12,-1
 412 478 l 1,13,14
 403 518 403 518 403 571 c 1,15,16
 356 596 356 596 290.5 596 c 128,-1,17
 225 596 225 596 182 560 c 1,18,19
 131 473 131 473 131 339 c 0,20,21
 131 139 131 139 217 86 c 0,22,23
 253 64 253 64 304 64 c 0,24,25
 385 64 385 64 467 142 c 1,26,-1
 481 129 l 1,27,28
 398 23 398 23 283 -15 c 1,29,30
 270 -15 270 -15 264 -14 c 1,31,-1
 252 -46 l 1,32,-1
 256 -49 l 1,33,34
 302 -49 302 -49 330.5 -70 c 128,-1,35
 359 -91 359 -91 359 -133 c 1,36,37
 345 -160 345 -160 318.5 -182.5 c 128,-1,38
 292 -205 292 -205 263 -215 c 1,39,40
 219 -215 219 -215 175 -194 c 1,41,42
 185 -175 185 -175 191 -155 c 1,43,-1
 195 -153 l 1,44,45
 227 -178 227 -178 263 -178 c 0,46,47
 281 -178 281 -178 289 -173 c 1,48,49
 298 -160 298 -160 298 -142 c 0,50,51
 298 -97 298 -97 215 -97 c 1,52,-1
 209 -93 l 1,53,-1
 238 -11 l 1,0,1
EndSplineSet
EndChar

StartChar: Egrave
Encoding: 200 200 137
Width: 513
GlyphClass: 2
Flags: W
LayerCount: 2
Fore
SplineSet
335 731 m 1,0,-1
 129 806 l 1,1,2
 128 816 128 816 133.5 837.5 c 128,-1,3
 139 859 139 859 144 868 c 1,4,5
 164 875 164 875 186 877 c 1,6,7
 261 787 261 787 343 751 c 1,8,-1
 335 731 l 1,0,-1
395 566 m 1,9,10
 347 594 347 594 281 594 c 128,-1,11
 215 594 215 594 174 560 c 1,12,13
 173 546 173 546 173 533 c 0,14,15
 173 373 173 373 344 373 c 1,16,-1
 339 336 l 1,17,-1
 327 336 l 2,18,19
 248 336 248 336 196.5 304.5 c 128,-1,20
 145 273 145 273 145 203 c 128,-1,21
 145 133 145 133 193 94.5 c 128,-1,22
 241 56 241 56 306 56 c 128,-1,23
 371 56 371 56 408 80 c 1,24,25
 415 94 415 94 415 124 c 128,-1,26
 415 154 415 154 405 165 c 1,27,-1
 406 172 l 1,28,29
 431 187 431 187 456 214 c 1,30,31
 468 213 468 213 475.5 204 c 128,-1,32
 483 195 483 195 483 183 c 0,33,34
 483 122 483 122 425.5 64.5 c 128,-1,35
 368 7 368 7 300 -15 c 1,36,37
 193 -15 193 -15 122 37 c 128,-1,38
 51 89 51 89 51 185 c 0,39,40
 51 254 51 254 109 300 c 128,-1,41
 167 346 167 346 241 346 c 1,42,-1
 241 350 l 1,43,44
 173 354 173 354 127.5 388 c 128,-1,45
 82 422 82 422 82 482 c 1,46,47
 118 546 118 546 177.5 597 c 128,-1,48
 237 648 237 648 305 666 c 1,49,50
 376 666 376 666 445 647 c 1,51,52
 461 655 461 655 486 678 c 1,53,-1
 507 664 l 1,54,55
 441 584 441 584 426 473 c 1,56,-1
 400 473 l 1,57,58
 400 528 400 528 395 566 c 1,9,10
EndSplineSet
EndChar

StartChar: Eacute
Encoding: 201 201 138
Width: 513
GlyphClass: 2
Flags: W
LayerCount: 2
Fore
SplineSet
477 797 m 1,0,-1
 271 722 l 1,1,-1
 263 742 l 1,2,3
 345 778 345 778 420 868 c 1,4,5
 442 866 442 866 462 859 c 1,6,7
 467 850 467 850 472.5 828.5 c 128,-1,8
 478 807 478 807 477 797 c 1,0,-1
394 566 m 1,9,10
 346 594 346 594 280 594 c 128,-1,11
 214 594 214 594 173 560 c 1,12,13
 172 546 172 546 172 533 c 0,14,15
 172 373 172 373 343 373 c 1,16,-1
 338 336 l 1,17,-1
 326 336 l 2,18,19
 247 336 247 336 195.5 304.5 c 128,-1,20
 144 273 144 273 144 203 c 128,-1,21
 144 133 144 133 192 94.5 c 128,-1,22
 240 56 240 56 305 56 c 128,-1,23
 370 56 370 56 407 80 c 1,24,25
 414 94 414 94 414 124 c 128,-1,26
 414 154 414 154 404 165 c 1,27,-1
 405 172 l 1,28,29
 430 187 430 187 455 214 c 1,30,31
 467 213 467 213 474.5 204 c 128,-1,32
 482 195 482 195 482 183 c 0,33,34
 482 122 482 122 424.5 64.5 c 128,-1,35
 367 7 367 7 299 -15 c 1,36,37
 192 -15 192 -15 121 37 c 128,-1,38
 50 89 50 89 50 185 c 0,39,40
 50 254 50 254 108 300 c 128,-1,41
 166 346 166 346 240 346 c 1,42,-1
 240 350 l 1,43,44
 172 354 172 354 126.5 388 c 128,-1,45
 81 422 81 422 81 482 c 1,46,47
 117 546 117 546 176.5 597 c 128,-1,48
 236 648 236 648 304 666 c 1,49,50
 375 666 375 666 444 647 c 1,51,52
 460 655 460 655 485 678 c 1,53,-1
 506 664 l 1,54,55
 440 584 440 584 425 473 c 1,56,-1
 399 473 l 1,57,58
 399 528 399 528 394 566 c 1,9,10
EndSplineSet
EndChar

StartChar: Ecircumflex
Encoding: 202 202 139
Width: 513
GlyphClass: 2
Flags: W
LayerCount: 2
Fore
SplineSet
464 715 m 1,0,-1
 303 790 l 1,1,-1
 142 715 l 1,2,-1
 132 734 l 1,3,4
 224 792 224 792 293 885 c 1,5,-1
 313 885 l 1,6,7
 382 792 382 792 474 734 c 1,8,-1
 464 715 l 1,0,-1
394 566 m 1,9,10
 346 594 346 594 280 594 c 128,-1,11
 214 594 214 594 173 560 c 1,12,13
 172 546 172 546 172 533 c 0,14,15
 172 373 172 373 343 373 c 1,16,-1
 338 336 l 1,17,-1
 326 336 l 2,18,19
 247 336 247 336 195.5 304.5 c 128,-1,20
 144 273 144 273 144 203 c 128,-1,21
 144 133 144 133 192 94.5 c 128,-1,22
 240 56 240 56 305 56 c 128,-1,23
 370 56 370 56 407 80 c 1,24,25
 414 94 414 94 414 124 c 128,-1,26
 414 154 414 154 404 165 c 1,27,-1
 405 172 l 1,28,29
 430 187 430 187 455 214 c 1,30,31
 467 213 467 213 474.5 204 c 128,-1,32
 482 195 482 195 482 183 c 0,33,34
 482 122 482 122 424.5 64.5 c 128,-1,35
 367 7 367 7 299 -15 c 1,36,37
 192 -15 192 -15 121 37 c 128,-1,38
 50 89 50 89 50 185 c 0,39,40
 50 254 50 254 108 300 c 128,-1,41
 166 346 166 346 240 346 c 1,42,-1
 240 350 l 1,43,44
 172 354 172 354 126.5 388 c 128,-1,45
 81 422 81 422 81 482 c 1,46,47
 117 546 117 546 176.5 597 c 128,-1,48
 236 648 236 648 304 666 c 1,49,50
 375 666 375 666 444 647 c 1,51,52
 460 655 460 655 485 678 c 1,53,-1
 506 664 l 1,54,55
 440 584 440 584 425 473 c 1,56,-1
 399 473 l 1,57,58
 399 528 399 528 394 566 c 1,9,10
EndSplineSet
EndChar

StartChar: Edieresis
Encoding: 203 203 140
Width: 513
GlyphClass: 2
Flags: W
LayerCount: 2
Fore
SplineSet
266 803 m 1,0,1
 259 790 259 790 241.5 770 c 128,-1,2
 224 750 224 750 212 742 c 1,3,4
 200 750 200 750 182.5 770 c 128,-1,5
 165 790 165 790 158 803 c 1,6,7
 164 815 164 815 181 830.5 c 128,-1,8
 198 846 198 846 212 853 c 1,9,10
 225 845 225 845 242 829.5 c 128,-1,11
 259 814 259 814 266 803 c 1,0,1
451 803 m 1,12,13
 444 790 444 790 426.5 770 c 128,-1,14
 409 750 409 750 397 742 c 1,15,16
 385 750 385 750 367.5 770 c 128,-1,17
 350 790 350 790 343 803 c 1,18,19
 349 815 349 815 366 830.5 c 128,-1,20
 383 846 383 846 397 853 c 1,21,22
 410 845 410 845 427 829.5 c 128,-1,23
 444 814 444 814 451 803 c 1,12,13
394 566 m 1,24,25
 346 594 346 594 280 594 c 128,-1,26
 214 594 214 594 173 560 c 1,27,28
 172 546 172 546 172 533 c 0,29,30
 172 373 172 373 343 373 c 1,31,-1
 338 336 l 1,32,-1
 326 336 l 2,33,34
 247 336 247 336 195.5 304.5 c 128,-1,35
 144 273 144 273 144 203 c 128,-1,36
 144 133 144 133 192 94.5 c 128,-1,37
 240 56 240 56 305 56 c 128,-1,38
 370 56 370 56 407 80 c 1,39,40
 414 94 414 94 414 124 c 128,-1,41
 414 154 414 154 404 165 c 1,42,-1
 405 172 l 1,43,44
 430 187 430 187 455 214 c 1,45,46
 467 213 467 213 474.5 204 c 128,-1,47
 482 195 482 195 482 183 c 0,48,49
 482 122 482 122 424.5 64.5 c 128,-1,50
 367 7 367 7 299 -15 c 1,51,52
 192 -15 192 -15 121 37 c 128,-1,53
 50 89 50 89 50 185 c 0,54,55
 50 254 50 254 108 300 c 128,-1,56
 166 346 166 346 240 346 c 1,57,-1
 240 350 l 1,58,59
 172 354 172 354 126.5 388 c 128,-1,60
 81 422 81 422 81 482 c 1,61,62
 117 546 117 546 176.5 597 c 128,-1,63
 236 648 236 648 304 666 c 1,64,65
 375 666 375 666 444 647 c 1,66,67
 460 655 460 655 485 678 c 1,68,-1
 506 664 l 1,69,70
 440 584 440 584 425 473 c 1,71,-1
 399 473 l 1,72,73
 399 528 399 528 394 566 c 1,24,25
EndSplineSet
EndChar

StartChar: Igrave
Encoding: 204 204 141
Width: 337
GlyphClass: 2
Flags: W
LayerCount: 2
Fore
SplineSet
229 731 m 1,0,-1
 23 806 l 1,1,2
 22 816 22 816 27.5 837.5 c 128,-1,3
 33 859 33 859 38 868 c 1,4,5
 58 875 58 875 80 877 c 1,6,7
 155 787 155 787 237 751 c 1,8,-1
 229 731 l 1,0,-1
218 616 m 1,9,10
 207 541 207 541 207 336 c 128,-1,11
 207 131 207 131 220 35 c 1,12,13
 273 30 273 30 330 16 c 1,14,-1
 327 -8 l 1,15,16
 253 0 253 0 166.5 0 c 128,-1,17
 80 0 80 0 27 -8 c 1,18,-1
 23 17 l 1,19,20
 68 31 68 31 119 38 c 1,21,22
 130 120 130 120 130 296 c 2,23,-1
 130 355 l 2,24,25
 130 517 130 517 117 613 c 1,26,27
 66 620 66 620 21 634 c 1,28,-1
 25 659 l 1,29,30
 78 651 78 651 164.5 651 c 128,-1,31
 251 651 251 651 325 659 c 1,32,-1
 328 635 l 1,33,34
 271 621 271 621 218 616 c 1,9,10
EndSplineSet
EndChar

StartChar: Iacute
Encoding: 205 205 142
Width: 337
GlyphClass: 2
Flags: W
LayerCount: 2
Fore
SplineSet
315 797 m 1,0,-1
 109 722 l 1,1,-1
 101 742 l 1,2,3
 183 778 183 778 258 868 c 1,4,5
 280 866 280 866 300 859 c 1,6,7
 305 850 305 850 310.5 828.5 c 128,-1,8
 316 807 316 807 315 797 c 1,0,-1
218 616 m 1,9,10
 207 541 207 541 207 336 c 128,-1,11
 207 131 207 131 220 35 c 1,12,13
 273 30 273 30 330 16 c 1,14,-1
 327 -8 l 1,15,16
 253 0 253 0 166.5 0 c 128,-1,17
 80 0 80 0 27 -8 c 1,18,-1
 23 17 l 1,19,20
 68 31 68 31 119 38 c 1,21,22
 130 120 130 120 130 296 c 2,23,-1
 130 355 l 2,24,25
 130 517 130 517 117 613 c 1,26,27
 66 620 66 620 21 634 c 1,28,-1
 25 659 l 1,29,30
 78 651 78 651 164.5 651 c 128,-1,31
 251 651 251 651 325 659 c 1,32,-1
 328 635 l 1,33,34
 271 621 271 621 218 616 c 1,9,10
EndSplineSet
EndChar

StartChar: Icircumflex
Encoding: 206 206 143
Width: 337
GlyphClass: 2
Flags: W
LayerCount: 2
Fore
SplineSet
335 715 m 1,0,-1
 174 790 l 1,1,-1
 13 715 l 1,2,-1
 3 734 l 1,3,4
 95 792 95 792 164 885 c 1,5,-1
 184 885 l 1,6,7
 253 792 253 792 345 734 c 1,8,-1
 335 715 l 1,0,-1
218 616 m 1,9,10
 207 541 207 541 207 336 c 128,-1,11
 207 131 207 131 220 35 c 1,12,13
 273 30 273 30 330 16 c 1,14,-1
 327 -8 l 1,15,16
 253 0 253 0 166.5 0 c 128,-1,17
 80 0 80 0 27 -8 c 1,18,-1
 23 17 l 1,19,20
 68 31 68 31 119 38 c 1,21,22
 130 120 130 120 130 296 c 2,23,-1
 130 355 l 2,24,25
 130 517 130 517 117 613 c 1,26,27
 66 620 66 620 21 634 c 1,28,-1
 25 659 l 1,29,30
 78 651 78 651 164.5 651 c 128,-1,31
 251 651 251 651 325 659 c 1,32,-1
 328 635 l 1,33,34
 271 621 271 621 218 616 c 1,9,10
218 616 m 1,35,36
 271 621 271 621 328 635 c 1,37,-1
 325 659 l 1,38,39
 251 651 251 651 164.5 651 c 128,-1,40
 78 651 78 651 25 659 c 1,41,-1
 21 634 l 1,42,43
 66 620 66 620 117 613 c 1,44,45
 130 517 130 517 130 355 c 2,46,-1
 130 296 l 2,47,48
 130 120 130 120 119 38 c 1,49,50
 68 31 68 31 23 17 c 1,51,-1
 27 -8 l 1,52,53
 80 0 80 0 166.5 0 c 128,-1,54
 253 0 253 0 327 -8 c 1,55,-1
 330 16 l 1,56,57
 273 30 273 30 220 35 c 1,58,59
 207 131 207 131 207 336 c 128,-1,60
 207 541 207 541 218 616 c 1,35,36
EndSplineSet
EndChar

StartChar: Idieresis
Encoding: 207 207 144
Width: 337
GlyphClass: 2
Flags: W
LayerCount: 2
Fore
SplineSet
135 803 m 1,0,1
 128 790 128 790 110.5 770 c 128,-1,2
 93 750 93 750 81 742 c 1,3,4
 69 750 69 750 51.5 770 c 128,-1,5
 34 790 34 790 27 803 c 1,6,7
 33 815 33 815 50 830.5 c 128,-1,8
 67 846 67 846 81 853 c 1,9,10
 94 845 94 845 111 829.5 c 128,-1,11
 128 814 128 814 135 803 c 1,0,1
320 803 m 1,12,13
 313 790 313 790 295.5 770 c 128,-1,14
 278 750 278 750 266 742 c 1,15,16
 254 750 254 750 236.5 770 c 128,-1,17
 219 790 219 790 212 803 c 1,18,19
 218 815 218 815 235 830.5 c 128,-1,20
 252 846 252 846 266 853 c 1,21,22
 279 845 279 845 296 829.5 c 128,-1,23
 313 814 313 814 320 803 c 1,12,13
218 616 m 1,24,25
 207 541 207 541 207 336 c 128,-1,26
 207 131 207 131 220 35 c 1,27,28
 273 30 273 30 330 16 c 1,29,-1
 327 -8 l 1,30,31
 253 0 253 0 166.5 0 c 128,-1,32
 80 0 80 0 27 -8 c 1,33,-1
 23 17 l 1,34,35
 68 31 68 31 119 38 c 1,36,37
 130 120 130 120 130 296 c 2,38,-1
 130 355 l 2,39,40
 130 517 130 517 117 613 c 1,41,42
 66 620 66 620 21 634 c 1,43,-1
 25 659 l 1,44,45
 78 651 78 651 164.5 651 c 128,-1,46
 251 651 251 651 325 659 c 1,47,-1
 328 635 l 1,48,49
 271 621 271 621 218 616 c 1,24,25
EndSplineSet
EndChar

StartChar: Eth
Encoding: 208 208 145
Width: 620
GlyphClass: 2
Flags: W
LayerCount: 2
Fore
SplineSet
-25 566 m 1,0,1
 -32 552 -32 552 -32 522 c 128,-1,2
 -32 492 -32 492 -22 481 c 1,3,-1
 -23 474 l 1,4,5
 -48 459 -48 459 -73 432 c 1,6,7
 -85 433 -85 433 -92.5 442 c 128,-1,8
 -100 451 -100 451 -100 463 c 0,9,10
 -100 509 -100 509 -47.5 572 c 128,-1,11
 5 635 5 635 53 659 c 1,12,13
 138 651 138 651 305 651 c 0,14,15
 578 651 578 651 578 386 c 0,16,17
 578 247 578 247 505 134 c 128,-1,18
 432 21 432 21 307 -15 c 1,19,20
 235 -15 235 -15 146 23 c 1,21,22
 129 -3 129 -3 123 -22 c 1,23,-1
 102 -17 l 1,24,25
 126 91 126 91 126 324 c 1,26,27
 65 321 65 321 19 315 c 1,28,-1
 16 319 l 1,29,30
 22 339 22 339 23 351 c 1,31,-1
 126 354 l 1,32,33
 125 495 125 495 117 598 c 1,34,35
 6 596 6 596 -25 566 c 1,0,1
208 85 m 1,36,37
 262 57 262 57 331 57 c 128,-1,38
 400 57 400 57 438 91 c 1,39,40
 489 184 489 184 489 321 c 128,-1,41
 489 458 489 458 446.5 531 c 128,-1,42
 404 604 404 604 289 604 c 0,43,44
 243 604 243 604 212 599 c 1,45,46
 203 512 203 512 203 357 c 1,47,-1
 264 359 l 2,48,49
 328 362 328 362 348 364 c 1,50,51
 352 344 352 344 357 333 c 1,52,-1
 357 328 l 1,53,-1
 235 326 l 1,54,-1
 203 325 l 1,55,56
 203 173 203 173 208 85 c 1,36,37
EndSplineSet
EndChar

StartChar: Ntilde
Encoding: 209 209 146
Width: 706
GlyphClass: 2
Flags: W
LayerCount: 2
Fore
SplineSet
329 837 m 1,0,1
 388 806 388 806 440.5 806 c 128,-1,2
 493 806 493 806 513 830 c 1,3,-1
 531 819 l 1,4,5
 475 758 475 758 427 737 c 1,6,7
 406 737 406 737 354.5 752.5 c 128,-1,8
 303 768 303 768 282 768 c 0,9,10
 239 768 239 768 219 744 c 1,11,-1
 201 755 l 1,12,13
 257 816 257 816 329 837 c 1,0,1
523 296 m 2,14,15
 523 467 523 467 508 546.5 c 128,-1,16
 493 626 493 626 451 641 c 1,17,-1
 455 655 l 1,18,19
 486 651 486 651 556 651 c 128,-1,20
 626 651 626 651 685 659 c 1,21,-1
 688 636 l 1,22,23
 617 619 617 619 589 616 c 1,24,25
 576 518 576 518 576 355 c 2,26,-1
 576 296 l 2,27,28
 576 109 576 109 589 35 c 1,29,30
 640 29 640 29 685 17 c 1,31,-1
 681 -8 l 1,32,33
 628 0 628 0 574.5 0 c 128,-1,34
 521 0 521 0 488 -3 c 1,35,36
 488 30 488 30 423 144 c 128,-1,37
 358 258 358 258 187 525 c 1,38,-1
 183 523 l 1,39,-1
 183 355 l 2,40,41
 183 110 183 110 220 35 c 1,42,43
 275 30 275 30 329 16 c 1,44,-1
 327 -8 l 1,45,46
 253 0 253 0 166.5 0 c 128,-1,47
 80 0 80 0 27 -8 c 1,48,-1
 23 17 l 1,49,50
 68 31 68 31 119 38 c 1,51,52
 130 120 130 120 130 296 c 2,53,-1
 130 355 l 2,54,55
 130 496 130 496 118 596 c 1,56,57
 0 596 0 596 -33 564 c 1,58,59
 -40 550 -40 550 -40 520 c 128,-1,60
 -40 490 -40 490 -30 479 c 1,61,-1
 -31 472 l 1,62,63
 -56 457 -56 457 -81 430 c 1,64,65
 -93 431 -93 431 -100.5 440 c 128,-1,66
 -108 449 -108 449 -108 461 c 0,67,68
 -108 510 -108 510 -49 578 c 128,-1,69
 10 646 10 646 61 664 c 1,70,71
 73 663 73 663 128.5 657 c 128,-1,72
 184 651 184 651 220 651 c 128,-1,73
 256 651 256 651 287 657 c 1,74,-1
 291 632 l 1,75,76
 250 615 250 615 250 599 c 1,77,78
 255 572 255 572 307 485.5 c 128,-1,79
 359 399 359 399 519 150 c 1,80,-1
 523 152 l 1,81,-1
 523 296 l 2,14,15
EndSplineSet
EndChar

StartChar: Ograve
Encoding: 210 210 147
Width: 602
GlyphClass: 2
Flags: W
LayerCount: 2
Fore
SplineSet
375 731 m 1,0,-1
 169 806 l 1,1,2
 168 816 168 816 173.5 837.5 c 128,-1,3
 179 859 179 859 184 868 c 1,4,5
 204 875 204 875 226 877 c 1,6,7
 301 787 301 787 383 751 c 1,8,-1
 375 731 l 1,0,-1
497.5 593 m 128,-1,10
 560 520 560 520 560 384.5 c 128,-1,11
 560 249 560 249 491.5 140.5 c 128,-1,12
 423 32 423 32 301 -15 c 1,13,14
 184 -15 184 -15 113 62.5 c 128,-1,15
 42 140 42 140 42 265 c 0,16,17
 42 469 42 469 190 603 c 1,18,-1
 202 595 l 1,19,20
 131 492 131 492 131 339 c 0,21,22
 131 230 131 230 181.5 143.5 c 128,-1,23
 232 57 232 57 322 57 c 0,24,25
 381 57 381 57 421 92 c 1,26,27
 471 184 471 184 471 310 c 0,28,29
 471 475 471 475 408 552 c 0,30,31
 374 594 374 594 323 594 c 0,32,33
 297 594 297 594 275 579 c 128,-1,34
 253 564 253 564 244 540 c 1,35,36
 244 520 244 520 253 493.5 c 128,-1,37
 262 467 262 467 276 460 c 1,38,-1
 278 453 l 1,39,40
 256 426 256 426 245 396 c 1,41,42
 243 395 243 395 237 395 c 0,43,44
 201 395 201 395 201 459 c 0,45,46
 201 567 201 567 313 666 c 1,47,9
 435 666 435 666 497.5 593 c 128,-1,10
EndSplineSet
EndChar

StartChar: Oacute
Encoding: 211 211 148
Width: 602
GlyphClass: 2
Flags: W
LayerCount: 2
Fore
SplineSet
485 797 m 1,0,-1
 279 722 l 1,1,-1
 271 742 l 1,2,3
 353 778 353 778 428 868 c 1,4,5
 450 866 450 866 470 859 c 1,6,7
 475 850 475 850 480.5 828.5 c 128,-1,8
 486 807 486 807 485 797 c 1,0,-1
497.5 593 m 128,-1,10
 560 520 560 520 560 384.5 c 128,-1,11
 560 249 560 249 491.5 140.5 c 128,-1,12
 423 32 423 32 301 -15 c 1,13,14
 184 -15 184 -15 113 62.5 c 128,-1,15
 42 140 42 140 42 265 c 0,16,17
 42 469 42 469 190 603 c 1,18,-1
 202 595 l 1,19,20
 131 492 131 492 131 339 c 0,21,22
 131 230 131 230 181.5 143.5 c 128,-1,23
 232 57 232 57 322 57 c 0,24,25
 381 57 381 57 421 92 c 1,26,27
 471 184 471 184 471 310 c 0,28,29
 471 475 471 475 408 552 c 0,30,31
 374 594 374 594 323 594 c 0,32,33
 297 594 297 594 275 579 c 128,-1,34
 253 564 253 564 244 540 c 1,35,36
 244 520 244 520 253 493.5 c 128,-1,37
 262 467 262 467 276 460 c 1,38,-1
 278 453 l 1,39,40
 256 426 256 426 245 396 c 1,41,42
 243 395 243 395 237 395 c 0,43,44
 201 395 201 395 201 459 c 0,45,46
 201 567 201 567 313 666 c 1,47,9
 435 666 435 666 497.5 593 c 128,-1,10
EndSplineSet
EndChar

StartChar: Ocircumflex
Encoding: 212 212 149
Width: 602
GlyphClass: 2
Flags: W
LayerCount: 2
Fore
SplineSet
482 715 m 1,0,-1
 321 790 l 1,1,-1
 160 715 l 1,2,-1
 150 734 l 1,3,4
 242 792 242 792 311 885 c 1,5,-1
 331 885 l 1,6,7
 400 792 400 792 492 734 c 1,8,-1
 482 715 l 1,0,-1
497.5 593 m 128,-1,10
 560 520 560 520 560 384.5 c 128,-1,11
 560 249 560 249 491.5 140.5 c 128,-1,12
 423 32 423 32 301 -15 c 1,13,14
 184 -15 184 -15 113 62.5 c 128,-1,15
 42 140 42 140 42 265 c 0,16,17
 42 469 42 469 190 603 c 1,18,-1
 202 595 l 1,19,20
 131 492 131 492 131 339 c 0,21,22
 131 230 131 230 181.5 143.5 c 128,-1,23
 232 57 232 57 322 57 c 0,24,25
 381 57 381 57 421 92 c 1,26,27
 471 184 471 184 471 310 c 0,28,29
 471 475 471 475 408 552 c 0,30,31
 374 594 374 594 323 594 c 0,32,33
 297 594 297 594 275 579 c 128,-1,34
 253 564 253 564 244 540 c 1,35,36
 244 520 244 520 253 493.5 c 128,-1,37
 262 467 262 467 276 460 c 1,38,-1
 278 453 l 1,39,40
 256 426 256 426 245 396 c 1,41,42
 243 395 243 395 237 395 c 0,43,44
 201 395 201 395 201 459 c 0,45,46
 201 567 201 567 313 666 c 1,47,9
 435 666 435 666 497.5 593 c 128,-1,10
EndSplineSet
EndChar

StartChar: Otilde
Encoding: 213 213 150
Width: 602
GlyphClass: 2
Flags: W
LayerCount: 2
Fore
SplineSet
285 837 m 1,0,1
 344 806 344 806 396.5 806 c 128,-1,2
 449 806 449 806 469 830 c 1,3,-1
 487 819 l 1,4,5
 431 758 431 758 383 737 c 1,6,7
 362 737 362 737 310.5 752.5 c 128,-1,8
 259 768 259 768 238 768 c 0,9,10
 195 768 195 768 175 744 c 1,11,-1
 157 755 l 1,12,13
 213 816 213 816 285 837 c 1,0,1
497.5 593 m 128,-1,15
 560 520 560 520 560 384.5 c 128,-1,16
 560 249 560 249 491.5 140.5 c 128,-1,17
 423 32 423 32 301 -15 c 1,18,19
 184 -15 184 -15 113 62.5 c 128,-1,20
 42 140 42 140 42 265 c 0,21,22
 42 469 42 469 190 603 c 1,23,-1
 202 595 l 1,24,25
 131 492 131 492 131 339 c 0,26,27
 131 230 131 230 181.5 143.5 c 128,-1,28
 232 57 232 57 322 57 c 0,29,30
 381 57 381 57 421 92 c 1,31,32
 471 184 471 184 471 310 c 0,33,34
 471 475 471 475 408 552 c 0,35,36
 374 594 374 594 323 594 c 0,37,38
 297 594 297 594 275 579 c 128,-1,39
 253 564 253 564 244 540 c 1,40,41
 244 520 244 520 253 493.5 c 128,-1,42
 262 467 262 467 276 460 c 1,43,-1
 278 453 l 1,44,45
 256 426 256 426 245 396 c 1,46,47
 243 395 243 395 237 395 c 0,48,49
 201 395 201 395 201 459 c 0,50,51
 201 567 201 567 313 666 c 1,52,14
 435 666 435 666 497.5 593 c 128,-1,15
EndSplineSet
EndChar

StartChar: Odieresis
Encoding: 214 214 151
Width: 602
GlyphClass: 2
Flags: W
LayerCount: 2
Fore
SplineSet
283 803 m 1,0,1
 276 790 276 790 258.5 770 c 128,-1,2
 241 750 241 750 229 742 c 1,3,4
 217 750 217 750 199.5 770 c 128,-1,5
 182 790 182 790 175 803 c 1,6,7
 181 815 181 815 198 830.5 c 128,-1,8
 215 846 215 846 229 853 c 1,9,10
 242 845 242 845 259 829.5 c 128,-1,11
 276 814 276 814 283 803 c 1,0,1
468 803 m 1,12,13
 461 790 461 790 443.5 770 c 128,-1,14
 426 750 426 750 414 742 c 1,15,16
 402 750 402 750 384.5 770 c 128,-1,17
 367 790 367 790 360 803 c 1,18,19
 366 815 366 815 383 830.5 c 128,-1,20
 400 846 400 846 414 853 c 1,21,22
 427 845 427 845 444 829.5 c 128,-1,23
 461 814 461 814 468 803 c 1,12,13
497.5 593 m 128,-1,25
 560 520 560 520 560 384.5 c 128,-1,26
 560 249 560 249 491.5 140.5 c 128,-1,27
 423 32 423 32 301 -15 c 1,28,29
 184 -15 184 -15 113 62.5 c 128,-1,30
 42 140 42 140 42 265 c 0,31,32
 42 469 42 469 190 603 c 1,33,-1
 202 595 l 1,34,35
 131 492 131 492 131 339 c 0,36,37
 131 230 131 230 181.5 143.5 c 128,-1,38
 232 57 232 57 322 57 c 0,39,40
 381 57 381 57 421 92 c 1,41,42
 471 184 471 184 471 310 c 0,43,44
 471 475 471 475 408 552 c 0,45,46
 374 594 374 594 323 594 c 0,47,48
 297 594 297 594 275 579 c 128,-1,49
 253 564 253 564 244 540 c 1,50,51
 244 520 244 520 253 493.5 c 128,-1,52
 262 467 262 467 276 460 c 1,53,-1
 278 453 l 1,54,55
 256 426 256 426 245 396 c 1,56,57
 243 395 243 395 237 395 c 0,58,59
 201 395 201 395 201 459 c 0,60,61
 201 567 201 567 313 666 c 1,62,24
 435 666 435 666 497.5 593 c 128,-1,25
EndSplineSet
EndChar

StartChar: multiply
Encoding: 215 215 152
Width: 550
GlyphClass: 2
Flags: W
LayerCount: 2
Fore
SplineSet
427 425 m 1,0,-1
 465 390 l 1,1,-1
 311 239 l 1,2,3
 348 201 348 201 405.5 150 c 128,-1,4
 463 99 463 99 475 89 c 1,5,-1
 447 50 l 1,6,-1
 436 50 l 1,7,-1
 278 205 l 1,8,-1
 120 50 l 1,9,-1
 109 50 l 1,10,-1
 81 89 l 1,11,12
 211 205 211 205 244 239 c 1,13,-1
 91 390 l 1,14,-1
 129 425 l 1,15,-1
 137 424 l 1,16,17
 180 376 180 376 278 273 c 1,18,-1
 419 424 l 1,19,-1
 427 425 l 1,0,-1
EndSplineSet
EndChar

StartChar: Oslash
Encoding: 216 216 153
Width: 602
GlyphClass: 2
Flags: W
LayerCount: 2
Fore
SplineSet
158 -87 m 1,0,-1
 153 -87 l 1,1,2
 137 -78 137 -78 127 -63 c 1,3,4
 175 44 175 44 213 143 c 2,5,-1
 353 511 l 2,6,7
 393 615 393 615 431 732 c 1,8,9
 454 734 454 734 469 739 c 1,10,-1
 473 736 l 1,11,12
 460 706 460 706 390 524 c 2,13,-1
 158 -87 l 1,0,-1
497.5 593 m 128,-1,15
 560 520 560 520 560 384.5 c 128,-1,16
 560 249 560 249 491.5 140.5 c 128,-1,17
 423 32 423 32 301 -15 c 1,18,19
 184 -15 184 -15 113 62.5 c 128,-1,20
 42 140 42 140 42 265 c 0,21,22
 42 469 42 469 190 603 c 1,23,-1
 202 595 l 1,24,25
 131 492 131 492 131 339 c 0,26,27
 131 230 131 230 181.5 143.5 c 128,-1,28
 232 57 232 57 322 57 c 0,29,30
 381 57 381 57 421 92 c 1,31,32
 471 184 471 184 471 310 c 0,33,34
 471 475 471 475 408 552 c 0,35,36
 374 594 374 594 323 594 c 0,37,38
 297 594 297 594 275 579 c 128,-1,39
 253 564 253 564 244 540 c 1,40,41
 244 520 244 520 253 493.5 c 128,-1,42
 262 467 262 467 276 460 c 1,43,-1
 278 453 l 1,44,45
 256 426 256 426 245 396 c 1,46,47
 243 395 243 395 237 395 c 0,48,49
 201 395 201 395 201 459 c 0,50,51
 201 567 201 567 313 666 c 1,52,14
 435 666 435 666 497.5 593 c 128,-1,15
EndSplineSet
EndChar

StartChar: Ugrave
Encoding: 217 217 154
Width: 665
GlyphClass: 2
Flags: W
LayerCount: 2
Fore
SplineSet
392 731 m 1,0,-1
 186 806 l 1,1,2
 185 816 185 816 190.5 837.5 c 128,-1,3
 196 859 196 859 201 868 c 1,4,5
 221 875 221 875 243 877 c 1,6,7
 318 787 318 787 400 751 c 1,8,-1
 392 731 l 1,0,-1
197 549 m 0,9,10
 183 423 183 423 183 325 c 128,-1,11
 183 227 183 227 188 192.5 c 128,-1,12
 193 158 193 158 208 128 c 0,13,14
 237 66 237 66 320 66 c 128,-1,15
 403 66 403 66 453 112 c 1,16,17
 458 242 458 242 458 372 c 128,-1,18
 458 502 458 502 447 616 c 1,19,20
 396 623 396 623 351 637 c 1,21,-1
 355 659 l 1,22,23
 416 651 416 651 503.5 651 c 128,-1,24
 591 651 591 651 655 659 c 1,25,-1
 658 638 l 1,26,27
 601 624 601 624 548 619 c 1,28,29
 535 545 535 545 535 355 c 2,30,-1
 535 296 l 2,31,32
 535 109 535 109 548 35 c 1,33,34
 601 30 601 30 658 16 c 1,35,-1
 655 -8 l 1,36,37
 591 0 591 0 525 0 c 128,-1,38
 459 0 459 0 441 -1 c 1,39,-1
 438 13 l 1,40,41
 447 24 447 24 451 84 c 1,42,43
 393 19 393 19 305 -15 c 1,44,45
 192 -15 192 -15 147.5 50.5 c 128,-1,46
 103 116 103 116 103 241 c 0,47,48
 103 298 103 298 110 422 c 128,-1,49
 117 546 117 546 117 561 c 128,-1,50
 117 576 117 576 114 596 c 1,51,52
 -4 596 -4 596 -37 564 c 1,53,54
 -44 550 -44 550 -44 520 c 128,-1,55
 -44 490 -44 490 -34 479 c 1,56,-1
 -35 472 l 1,57,58
 -60 457 -60 457 -85 430 c 1,59,60
 -97 431 -97 431 -104.5 440 c 128,-1,61
 -112 449 -112 449 -112 461 c 0,62,63
 -112 510 -112 510 -53 578 c 128,-1,64
 6 646 6 646 57 664 c 1,65,66
 80 663 80 663 117.5 657 c 128,-1,67
 155 651 155 651 186 651 c 128,-1,68
 217 651 217 651 245 655 c 1,69,-1
 249 641 l 1,70,71
 204 616 204 616 197 549 c 0,9,10
EndSplineSet
EndChar

StartChar: Uacute
Encoding: 218 218 155
Width: 665
GlyphClass: 2
Flags: W
LayerCount: 2
Fore
SplineSet
538 797 m 1,0,-1
 332 722 l 1,1,-1
 324 742 l 1,2,3
 406 778 406 778 481 868 c 1,4,5
 503 866 503 866 523 859 c 1,6,7
 528 850 528 850 533.5 828.5 c 128,-1,8
 539 807 539 807 538 797 c 1,0,-1
197 549 m 0,9,10
 183 423 183 423 183 325 c 128,-1,11
 183 227 183 227 188 192.5 c 128,-1,12
 193 158 193 158 208 128 c 0,13,14
 237 66 237 66 320 66 c 128,-1,15
 403 66 403 66 453 112 c 1,16,17
 458 242 458 242 458 372 c 128,-1,18
 458 502 458 502 447 616 c 1,19,20
 396 623 396 623 351 637 c 1,21,-1
 355 659 l 1,22,23
 416 651 416 651 503.5 651 c 128,-1,24
 591 651 591 651 655 659 c 1,25,-1
 658 638 l 1,26,27
 601 624 601 624 548 619 c 1,28,29
 535 545 535 545 535 355 c 2,30,-1
 535 296 l 2,31,32
 535 109 535 109 548 35 c 1,33,34
 601 30 601 30 658 16 c 1,35,-1
 655 -8 l 1,36,37
 591 0 591 0 525 0 c 128,-1,38
 459 0 459 0 441 -1 c 1,39,-1
 438 13 l 1,40,41
 447 24 447 24 451 84 c 1,42,43
 393 19 393 19 305 -15 c 1,44,45
 192 -15 192 -15 147.5 50.5 c 128,-1,46
 103 116 103 116 103 241 c 0,47,48
 103 298 103 298 110 422 c 128,-1,49
 117 546 117 546 117 561 c 128,-1,50
 117 576 117 576 114 596 c 1,51,52
 -4 596 -4 596 -37 564 c 1,53,54
 -44 550 -44 550 -44 520 c 128,-1,55
 -44 490 -44 490 -34 479 c 1,56,-1
 -35 472 l 1,57,58
 -60 457 -60 457 -85 430 c 1,59,60
 -97 431 -97 431 -104.5 440 c 128,-1,61
 -112 449 -112 449 -112 461 c 0,62,63
 -112 510 -112 510 -53 578 c 128,-1,64
 6 646 6 646 57 664 c 1,65,66
 80 663 80 663 117.5 657 c 128,-1,67
 155 651 155 651 186 651 c 128,-1,68
 217 651 217 651 245 655 c 1,69,-1
 249 641 l 1,70,71
 204 616 204 616 197 549 c 0,9,10
EndSplineSet
EndChar

StartChar: Ucircumflex
Encoding: 219 219 156
Width: 665
GlyphClass: 2
Flags: W
LayerCount: 2
Fore
SplineSet
516 715 m 1,0,-1
 355 790 l 1,1,-1
 194 715 l 1,2,-1
 184 734 l 1,3,4
 276 792 276 792 345 885 c 1,5,-1
 365 885 l 1,6,7
 434 792 434 792 526 734 c 1,8,-1
 516 715 l 1,0,-1
197 549 m 0,9,10
 183 423 183 423 183 325 c 128,-1,11
 183 227 183 227 188 192.5 c 128,-1,12
 193 158 193 158 208 128 c 0,13,14
 237 66 237 66 320 66 c 128,-1,15
 403 66 403 66 453 112 c 1,16,17
 458 242 458 242 458 372 c 128,-1,18
 458 502 458 502 447 616 c 1,19,20
 396 623 396 623 351 637 c 1,21,-1
 355 659 l 1,22,23
 416 651 416 651 503.5 651 c 128,-1,24
 591 651 591 651 655 659 c 1,25,-1
 658 638 l 1,26,27
 601 624 601 624 548 619 c 1,28,29
 535 545 535 545 535 355 c 2,30,-1
 535 296 l 2,31,32
 535 109 535 109 548 35 c 1,33,34
 601 30 601 30 658 16 c 1,35,-1
 655 -8 l 1,36,37
 591 0 591 0 525 0 c 128,-1,38
 459 0 459 0 441 -1 c 1,39,-1
 438 13 l 1,40,41
 447 24 447 24 451 84 c 1,42,43
 393 19 393 19 305 -15 c 1,44,45
 192 -15 192 -15 147.5 50.5 c 128,-1,46
 103 116 103 116 103 241 c 0,47,48
 103 298 103 298 110 422 c 128,-1,49
 117 546 117 546 117 561 c 128,-1,50
 117 576 117 576 114 596 c 1,51,52
 -4 596 -4 596 -37 564 c 1,53,54
 -44 550 -44 550 -44 520 c 128,-1,55
 -44 490 -44 490 -34 479 c 1,56,-1
 -35 472 l 1,57,58
 -60 457 -60 457 -85 430 c 1,59,60
 -97 431 -97 431 -104.5 440 c 128,-1,61
 -112 449 -112 449 -112 461 c 0,62,63
 -112 510 -112 510 -53 578 c 128,-1,64
 6 646 6 646 57 664 c 1,65,66
 80 663 80 663 117.5 657 c 128,-1,67
 155 651 155 651 186 651 c 128,-1,68
 217 651 217 651 245 655 c 1,69,-1
 249 641 l 1,70,71
 204 616 204 616 197 549 c 0,9,10
EndSplineSet
EndChar

StartChar: Udieresis
Encoding: 220 220 157
Width: 665
GlyphClass: 2
Flags: W
LayerCount: 2
Fore
SplineSet
317 803 m 1,0,1
 310 790 310 790 292.5 770 c 128,-1,2
 275 750 275 750 263 742 c 1,3,4
 251 750 251 750 233.5 770 c 128,-1,5
 216 790 216 790 209 803 c 1,6,7
 215 815 215 815 232 830.5 c 128,-1,8
 249 846 249 846 263 853 c 1,9,10
 276 845 276 845 293 829.5 c 128,-1,11
 310 814 310 814 317 803 c 1,0,1
502 803 m 1,12,13
 495 790 495 790 477.5 770 c 128,-1,14
 460 750 460 750 448 742 c 1,15,16
 436 750 436 750 418.5 770 c 128,-1,17
 401 790 401 790 394 803 c 1,18,19
 400 815 400 815 417 830.5 c 128,-1,20
 434 846 434 846 448 853 c 1,21,22
 461 845 461 845 478 829.5 c 128,-1,23
 495 814 495 814 502 803 c 1,12,13
197 549 m 0,24,25
 183 423 183 423 183 325 c 128,-1,26
 183 227 183 227 188 192.5 c 128,-1,27
 193 158 193 158 208 128 c 0,28,29
 237 66 237 66 320 66 c 128,-1,30
 403 66 403 66 453 112 c 1,31,32
 458 242 458 242 458 372 c 128,-1,33
 458 502 458 502 447 616 c 1,34,35
 396 623 396 623 351 637 c 1,36,-1
 355 659 l 1,37,38
 416 651 416 651 503.5 651 c 128,-1,39
 591 651 591 651 655 659 c 1,40,-1
 658 638 l 1,41,42
 601 624 601 624 548 619 c 1,43,44
 535 545 535 545 535 355 c 2,45,-1
 535 296 l 2,46,47
 535 109 535 109 548 35 c 1,48,49
 601 30 601 30 658 16 c 1,50,-1
 655 -8 l 1,51,52
 591 0 591 0 525 0 c 128,-1,53
 459 0 459 0 441 -1 c 1,54,-1
 438 13 l 1,55,56
 447 24 447 24 451 84 c 1,57,58
 393 19 393 19 305 -15 c 1,59,60
 192 -15 192 -15 147.5 50.5 c 128,-1,61
 103 116 103 116 103 241 c 0,62,63
 103 298 103 298 110 422 c 128,-1,64
 117 546 117 546 117 561 c 128,-1,65
 117 576 117 576 114 596 c 1,66,67
 -4 596 -4 596 -37 564 c 1,68,69
 -44 550 -44 550 -44 520 c 128,-1,70
 -44 490 -44 490 -34 479 c 1,71,-1
 -35 472 l 1,72,73
 -60 457 -60 457 -85 430 c 1,74,75
 -97 431 -97 431 -104.5 440 c 128,-1,76
 -112 449 -112 449 -112 461 c 0,77,78
 -112 510 -112 510 -53 578 c 128,-1,79
 6 646 6 646 57 664 c 1,80,81
 80 663 80 663 117.5 657 c 128,-1,82
 155 651 155 651 186 651 c 128,-1,83
 217 651 217 651 245 655 c 1,84,-1
 249 641 l 1,85,86
 204 616 204 616 197 549 c 0,24,25
EndSplineSet
EndChar

StartChar: Yacute
Encoding: 221 221 158
Width: 545
GlyphClass: 2
Flags: W
LayerCount: 2
Fore
SplineSet
493 797 m 1,0,-1
 287 722 l 1,1,-1
 279 742 l 1,2,3
 361 778 361 778 436 868 c 1,4,5
 458 866 458 866 478 859 c 1,6,7
 483 850 483 850 488.5 828.5 c 128,-1,8
 494 807 494 807 493 797 c 1,0,-1
234 245 m 2,9,-1
 234 271 l 1,10,-1
 64 635 l 2,11,12
 25 719 25 719 -21 740 c 1,13,14
 -39 740 -39 740 -65 727 c 128,-1,15
 -91 714 -91 714 -97 701 c 1,16,-1
 -103 699 l 1,17,18
 -130 717 -130 717 -163 727 c 1,19,20
 -166 733 -166 733 -166 743.5 c 128,-1,21
 -166 754 -166 754 -149.5 763.5 c 128,-1,22
 -133 773 -133 773 -103 773 c 0,23,24
 -40 773 -40 773 45.5 738 c 128,-1,25
 131 703 131 703 164 666 c 1,26,27
 185 576 185 576 210.5 511.5 c 128,-1,28
 236 447 236 447 291 337 c 1,29,30
 402 554 402 554 402 609 c 0,31,32
 402 631 402 631 382 641 c 1,33,-1
 386 655 l 1,34,35
 436 651 436 651 491.5 651 c 128,-1,36
 547 651 547 651 599 659 c 1,37,-1
 604 634 l 1,38,39
 556 619 556 619 507 613 c 1,40,-1
 311 298 l 1,41,42
 311 131 311 131 324 35 c 1,43,44
 377 30 377 30 434 16 c 1,45,-1
 431 -8 l 1,46,47
 357 0 357 0 270.5 0 c 128,-1,48
 184 0 184 0 131 -8 c 1,49,-1
 127 17 l 1,50,51
 172 31 172 31 223 38 c 1,52,53
 234 120 234 120 234 245 c 2,9,-1
EndSplineSet
EndChar

StartChar: Thorn
Encoding: 222 222 159
Width: 517
GlyphClass: 2
Flags: W
LayerCount: 2
Fore
SplineSet
211 525 m 1,0,-1
 305 528 l 1,1,2
 511 528 511 528 511 364 c 0,3,4
 511 275 511 275 438 220 c 128,-1,5
 365 165 365 165 268 165 c 0,6,7
 253 165 253 165 246 166 c 1,8,-1
 250 198 l 1,9,-1
 262 198 l 2,10,11
 337 198 337 198 377 236 c 128,-1,12
 417 274 417 274 417 347 c 128,-1,13
 417 420 417 420 386 455.5 c 128,-1,14
 355 491 355 491 288 491 c 0,15,16
 248 491 248 491 210 478 c 1,17,-1
 209 478 l 1,18,19
 207 438 207 438 207 284.5 c 128,-1,20
 207 131 207 131 220 35 c 1,21,22
 273 30 273 30 330 16 c 1,23,-1
 327 -8 l 1,24,25
 253 0 253 0 166.5 0 c 128,-1,26
 80 0 80 0 27 -8 c 1,27,-1
 23 17 l 1,28,29
 68 31 68 31 119 38 c 1,30,31
 130 120 130 120 130 296 c 2,32,-1
 130 355 l 2,33,34
 130 517 130 517 117 613 c 1,35,36
 66 620 66 620 21 634 c 1,37,-1
 25 659 l 1,38,39
 78 651 78 651 164.5 651 c 128,-1,40
 251 651 251 651 325 659 c 1,41,-1
 328 635 l 1,42,43
 271 621 271 621 218 616 c 1,44,45
 214 597 214 597 211 525 c 1,0,-1
EndSplineSet
EndChar

StartChar: germandbls
Encoding: 223 223 160
Width: 833
GlyphClass: 2
Flags: W
LayerCount: 2
Fore
SplineSet
202 57 m 128,-1,1
 247 57 247 57 274 78 c 128,-1,2
 301 99 301 99 301 138 c 0,3,4
 301 178 301 178 188 237 c 0,5,6
 145 259 145 259 109.5 290.5 c 128,-1,7
 74 322 74 322 74 353 c 0,8,9
 74 406 74 406 130 460 c 128,-1,10
 186 514 186 514 245 533 c 1,11,12
 319 533 319 533 379 518 c 1,13,-1
 379 500 l 1,14,15
 337 458 337 458 332 385 c 1,16,-1
 307 385 l 1,17,18
 307 413 307 413 302 455 c 1,19,20
 267 471 267 471 227 471 c 128,-1,21
 187 471 187 471 160.5 453.5 c 128,-1,22
 134 436 134 436 134 403 c 0,23,24
 134 380 134 380 169.5 353 c 128,-1,25
 205 326 205 326 247 305 c 128,-1,26
 289 284 289 284 324.5 253 c 128,-1,27
 360 222 360 222 360 191 c 0,28,29
 360 131 360 131 307 71.5 c 128,-1,30
 254 12 254 12 190 -12 c 1,31,32
 127 -12 127 -12 72 3 c 1,33,34
 56 -4 56 -4 39 -20 c 1,35,-1
 21 -7 l 1,36,37
 77 54 77 54 83 144 c 1,38,-1
 108 144 l 1,39,40
 108 109 108 109 111 76 c 1,41,0
 157 57 157 57 202 57 c 128,-1,1
623 57 m 128,-1,43
 668 57 668 57 695 78 c 128,-1,44
 722 99 722 99 722 138 c 0,45,46
 722 178 722 178 608 237 c 0,47,48
 566 259 566 259 530.5 290.5 c 128,-1,49
 495 322 495 322 495 353 c 0,50,51
 495 406 495 406 551 460 c 128,-1,52
 607 514 607 514 666 533 c 1,53,54
 740 533 740 533 800 518 c 1,55,-1
 800 500 l 1,56,57
 758 458 758 458 753 385 c 1,58,-1
 728 385 l 1,59,60
 728 413 728 413 723 455 c 1,61,62
 688 471 688 471 648 471 c 128,-1,63
 608 471 608 471 581.5 453.5 c 128,-1,64
 555 436 555 436 555 403 c 0,65,66
 555 380 555 380 590.5 353 c 128,-1,67
 626 326 626 326 668 305 c 128,-1,68
 710 284 710 284 745.5 253 c 128,-1,69
 781 222 781 222 781 191 c 0,70,71
 781 131 781 131 728 71.5 c 128,-1,72
 675 12 675 12 611 -12 c 1,73,74
 548 -12 548 -12 493 3 c 1,75,76
 477 -4 477 -4 460 -20 c 1,77,-1
 442 -7 l 1,78,79
 498 54 498 54 504 144 c 1,80,-1
 529 144 l 1,81,82
 529 109 529 109 532 76 c 1,83,42
 578 57 578 57 623 57 c 128,-1,43
EndSplineSet
EndChar

StartChar: agrave
Encoding: 224 224 161
Width: 535
GlyphClass: 2
Flags: W
LayerCount: 2
Fore
SplineSet
108 532 m 1,0,1
 202 521 202 521 298 521 c 128,-1,2
 394 521 394 521 487 532 c 1,3,-1
 491 506 l 1,4,5
 461 494 461 494 429 488 c 1,6,7
 418 406 418 406 418 260 c 128,-1,8
 418 114 418 114 429 32 c 1,9,10
 449 29 449 29 503 17 c 1,11,-1
 499 -8 l 1,12,13
 451 0 451 0 376 0 c 128,-1,14
 301 0 301 0 261 -8 c 1,15,-1
 257 18 l 1,16,17
 291 29 291 29 334 34 c 1,18,19
 340 92 340 92 343 195 c 1,20,21
 296 200 296 200 249 200 c 128,-1,22
 202 200 202 200 167 195 c 1,23,24
 147 113 147 113 147 81 c 0,25,26
 147 32 147 32 182 12 c 1,27,-1
 178 -5 l 1,28,29
 155 0 155 0 91 0 c 128,-1,30
 27 0 27 0 -10 -8 c 1,31,-1
 -14 18 l 1,32,33
 10 27 10 27 52 34 c 1,34,-1
 182 490 l 1,35,36
 138 497 138 497 105 506 c 1,37,-1
 108 532 l 1,0,1
175 242 m 1,38,39
 214 236 214 236 261.5 236 c 128,-1,40
 309 236 309 236 343 242 c 1,41,42
 343 427 343 427 335 481 c 1,43,44
 301 483 301 483 284.5 483 c 128,-1,45
 268 483 268 483 234 481 c 1,46,-1
 175 242 l 1,38,39
158 726 m 1,47,48
 168 728 168 728 179.5 728 c 128,-1,49
 191 728 191 728 201 727 c 1,50,51
 225 685 225 685 260.5 643 c 128,-1,52
 296 601 296 601 333 576 c 1,53,-1
 322 558 l 1,54,-1
 133 667 l 1,55,56
 134 677 134 677 142.5 697.5 c 128,-1,57
 151 718 151 718 158 726 c 1,47,48
EndSplineSet
EndChar

StartChar: aacute
Encoding: 225 225 162
Width: 535
GlyphClass: 2
Flags: W
LayerCount: 2
Fore
SplineSet
108 532 m 1,0,1
 202 521 202 521 298 521 c 128,-1,2
 394 521 394 521 487 532 c 1,3,-1
 491 506 l 1,4,5
 461 494 461 494 429 488 c 1,6,7
 418 406 418 406 418 260 c 128,-1,8
 418 114 418 114 429 32 c 1,9,10
 449 29 449 29 503 17 c 1,11,-1
 499 -8 l 1,12,13
 451 0 451 0 376 0 c 128,-1,14
 301 0 301 0 261 -8 c 1,15,-1
 257 18 l 1,16,17
 291 29 291 29 334 34 c 1,18,19
 340 92 340 92 343 195 c 1,20,21
 296 200 296 200 249 200 c 128,-1,22
 202 200 202 200 167 195 c 1,23,24
 147 113 147 113 147 81 c 0,25,26
 147 32 147 32 182 12 c 1,27,-1
 178 -5 l 1,28,29
 155 0 155 0 91 0 c 128,-1,30
 27 0 27 0 -10 -8 c 1,31,-1
 -14 18 l 1,32,33
 10 27 10 27 52 34 c 1,34,-1
 182 490 l 1,35,36
 138 497 138 497 105 506 c 1,37,-1
 108 532 l 1,0,1
175 242 m 1,38,39
 214 236 214 236 261.5 236 c 128,-1,40
 309 236 309 236 343 242 c 1,41,42
 343 427 343 427 335 481 c 1,43,44
 301 483 301 483 284.5 483 c 128,-1,45
 268 483 268 483 234 481 c 1,46,-1
 175 242 l 1,38,39
403 727 m 1,47,48
 413 728 413 728 424.5 728 c 128,-1,49
 436 728 436 728 446 726 c 1,50,51
 453 718 453 718 461.5 697.5 c 128,-1,52
 470 677 470 677 471 667 c 1,53,-1
 282 558 l 1,54,-1
 271 576 l 1,55,56
 308 601 308 601 343.5 643 c 128,-1,57
 379 685 379 685 403 727 c 1,47,48
EndSplineSet
EndChar

StartChar: acircumflex
Encoding: 226 226 163
Width: 535
GlyphClass: 2
Flags: W
LayerCount: 2
Fore
SplineSet
108 532 m 1,0,1
 202 521 202 521 298 521 c 128,-1,2
 394 521 394 521 487 532 c 1,3,-1
 491 506 l 1,4,5
 461 494 461 494 429 488 c 1,6,7
 418 406 418 406 418 260 c 128,-1,8
 418 114 418 114 429 32 c 1,9,10
 449 29 449 29 503 17 c 1,11,-1
 499 -8 l 1,12,13
 451 0 451 0 376 0 c 128,-1,14
 301 0 301 0 261 -8 c 1,15,-1
 257 18 l 1,16,17
 291 29 291 29 334 34 c 1,18,19
 340 92 340 92 343 195 c 1,20,21
 296 200 296 200 249 200 c 128,-1,22
 202 200 202 200 167 195 c 1,23,24
 147 113 147 113 147 81 c 0,25,26
 147 32 147 32 182 12 c 1,27,-1
 178 -5 l 1,28,29
 155 0 155 0 91 0 c 128,-1,30
 27 0 27 0 -10 -8 c 1,31,-1
 -14 18 l 1,32,33
 10 27 10 27 52 34 c 1,34,-1
 182 490 l 1,35,36
 138 497 138 497 105 506 c 1,37,-1
 108 532 l 1,0,1
175 242 m 1,38,39
 214 236 214 236 261.5 236 c 128,-1,40
 309 236 309 236 343 242 c 1,41,42
 343 427 343 427 335 481 c 1,43,44
 301 483 301 483 284.5 483 c 128,-1,45
 268 483 268 483 234 481 c 1,46,-1
 175 242 l 1,38,39
304 644 m 1,47,-1
 170 554 l 1,48,-1
 157 571 l 1,49,50
 241 642 241 642 294 739 c 1,51,-1
 314 739 l 1,52,53
 367 642 367 642 451 571 c 1,54,-1
 438 554 l 1,55,-1
 304 644 l 1,47,-1
EndSplineSet
EndChar

StartChar: atilde
Encoding: 227 227 164
Width: 535
GlyphClass: 2
Flags: W
LayerCount: 2
Fore
SplineSet
108 532 m 1,0,1
 202 521 202 521 298 521 c 128,-1,2
 394 521 394 521 487 532 c 1,3,-1
 491 506 l 1,4,5
 461 494 461 494 429 488 c 1,6,7
 418 406 418 406 418 260 c 128,-1,8
 418 114 418 114 429 32 c 1,9,10
 449 29 449 29 503 17 c 1,11,-1
 499 -8 l 1,12,13
 451 0 451 0 376 0 c 128,-1,14
 301 0 301 0 261 -8 c 1,15,-1
 257 18 l 1,16,17
 291 29 291 29 334 34 c 1,18,19
 340 92 340 92 343 195 c 1,20,21
 296 200 296 200 249 200 c 128,-1,22
 202 200 202 200 167 195 c 1,23,24
 147 113 147 113 147 81 c 0,25,26
 147 32 147 32 182 12 c 1,27,-1
 178 -5 l 1,28,29
 155 0 155 0 91 0 c 128,-1,30
 27 0 27 0 -10 -8 c 1,31,-1
 -14 18 l 1,32,33
 10 27 10 27 52 34 c 1,34,-1
 182 490 l 1,35,36
 138 497 138 497 105 506 c 1,37,-1
 108 532 l 1,0,1
175 242 m 1,38,39
 214 236 214 236 261.5 236 c 128,-1,40
 309 236 309 236 343 242 c 1,41,42
 343 427 343 427 335 481 c 1,43,44
 301 483 301 483 284.5 483 c 128,-1,45
 268 483 268 483 234 481 c 1,46,-1
 175 242 l 1,38,39
276 696 m 1,47,48
 335 665 335 665 387.5 665 c 128,-1,49
 440 665 440 665 460 689 c 1,50,-1
 478 678 l 1,51,52
 422 617 422 617 374 596 c 1,53,54
 353 596 353 596 301.5 611.5 c 128,-1,55
 250 627 250 627 229 627 c 0,56,57
 186 627 186 627 166 603 c 1,58,-1
 148 614 l 1,59,60
 204 675 204 675 276 696 c 1,47,48
EndSplineSet
EndChar

StartChar: adieresis
Encoding: 228 228 165
Width: 535
GlyphClass: 2
Flags: W
LayerCount: 2
Fore
SplineSet
108 532 m 1,0,1
 202 521 202 521 298 521 c 128,-1,2
 394 521 394 521 487 532 c 1,3,-1
 491 506 l 1,4,5
 461 494 461 494 429 488 c 1,6,7
 418 406 418 406 418 260 c 128,-1,8
 418 114 418 114 429 32 c 1,9,10
 449 29 449 29 503 17 c 1,11,-1
 499 -8 l 1,12,13
 451 0 451 0 376 0 c 128,-1,14
 301 0 301 0 261 -8 c 1,15,-1
 257 18 l 1,16,17
 291 29 291 29 334 34 c 1,18,19
 340 92 340 92 343 195 c 1,20,21
 296 200 296 200 249 200 c 128,-1,22
 202 200 202 200 167 195 c 1,23,24
 147 113 147 113 147 81 c 0,25,26
 147 32 147 32 182 12 c 1,27,-1
 178 -5 l 1,28,29
 155 0 155 0 91 0 c 128,-1,30
 27 0 27 0 -10 -8 c 1,31,-1
 -14 18 l 1,32,33
 10 27 10 27 52 34 c 1,34,-1
 182 490 l 1,35,36
 138 497 138 497 105 506 c 1,37,-1
 108 532 l 1,0,1
175 242 m 1,38,39
 214 236 214 236 261.5 236 c 128,-1,40
 309 236 309 236 343 242 c 1,41,42
 343 427 343 427 335 481 c 1,43,44
 301 483 301 483 284.5 483 c 128,-1,45
 268 483 268 483 234 481 c 1,46,-1
 175 242 l 1,38,39
259 661 m 1,47,48
 252 648 252 648 234.5 628 c 128,-1,49
 217 608 217 608 205 600 c 1,50,51
 193 608 193 608 175.5 628 c 128,-1,52
 158 648 158 648 151 661 c 1,53,54
 157 673 157 673 174 688.5 c 128,-1,55
 191 704 191 704 205 711 c 1,56,57
 218 703 218 703 235 687.5 c 128,-1,58
 252 672 252 672 259 661 c 1,47,48
444 661 m 1,59,60
 437 648 437 648 419.5 628 c 128,-1,61
 402 608 402 608 390 600 c 1,62,63
 378 608 378 608 360.5 628 c 128,-1,64
 343 648 343 648 336 661 c 1,65,66
 342 673 342 673 359 688.5 c 128,-1,67
 376 704 376 704 390 711 c 1,68,69
 403 703 403 703 420 687.5 c 128,-1,70
 437 672 437 672 444 661 c 1,59,60
EndSplineSet
EndChar

StartChar: aring
Encoding: 229 229 166
Width: 514
GlyphClass: 2
Flags: W
LayerCount: 2
Fore
SplineSet
108 532 m 1,0,1
 202 521 202 521 298 521 c 128,-1,2
 394 521 394 521 487 532 c 1,3,-1
 491 506 l 1,4,5
 461 494 461 494 429 488 c 1,6,7
 418 406 418 406 418 260 c 128,-1,8
 418 114 418 114 429 32 c 1,9,10
 449 29 449 29 503 17 c 1,11,-1
 499 -8 l 1,12,13
 451 0 451 0 376 0 c 128,-1,14
 301 0 301 0 261 -8 c 1,15,-1
 257 18 l 1,16,17
 291 29 291 29 334 34 c 1,18,19
 340 92 340 92 343 195 c 1,20,21
 296 200 296 200 249 200 c 128,-1,22
 202 200 202 200 167 195 c 1,23,24
 147 113 147 113 147 81 c 0,25,26
 147 32 147 32 182 12 c 1,27,-1
 178 -5 l 1,28,29
 155 0 155 0 91 0 c 128,-1,30
 27 0 27 0 -10 -8 c 1,31,-1
 -14 18 l 1,32,33
 10 27 10 27 52 34 c 1,34,-1
 182 490 l 1,35,36
 138 497 138 497 105 506 c 1,37,-1
 108 532 l 1,0,1
175 242 m 1,38,39
 214 236 214 236 261.5 236 c 128,-1,40
 309 236 309 236 343 242 c 1,41,42
 343 427 343 427 335 481 c 1,43,44
 301 483 301 483 284.5 483 c 128,-1,45
 268 483 268 483 234 481 c 1,46,-1
 175 242 l 1,38,39
242 577 m 128,-1,48
 214 596 214 596 214 633.5 c 128,-1,49
 214 671 214 671 243.5 700.5 c 128,-1,50
 273 730 273 730 316 739 c 1,51,52
 407 739 407 739 407 665 c 0,53,54
 407 626 407 626 380.5 598.5 c 128,-1,55
 354 571 354 571 311 558 c 1,56,47
 270 558 270 558 242 577 c 128,-1,48
344.5 688 m 128,-1,58
 329 704 329 704 305.5 704 c 128,-1,59
 282 704 282 704 272 695 c 1,60,61
 261 678 261 678 261 652 c 128,-1,62
 261 626 261 626 277 609.5 c 128,-1,63
 293 593 293 593 315.5 593 c 128,-1,64
 338 593 338 593 349 602 c 1,65,66
 360 618 360 618 360 645 c 128,-1,57
 360 672 360 672 344.5 688 c 128,-1,58
EndSplineSet
EndChar

StartChar: ae
Encoding: 230 230 167
Width: 633
GlyphClass: 2
Flags: W
LayerCount: 2
Fore
SplineSet
137 532 m 1,0,1
 231 521 231 521 365 521 c 128,-1,2
 499 521 499 521 621 533 c 1,3,-1
 626 513 l 1,4,5
 586 471 586 471 581 391 c 1,6,-1
 556 391 l 1,7,8
 549 424 549 424 549 471 c 1,9,10
 514 488 514 488 466.5 488 c 128,-1,11
 419 488 419 488 401 484 c 1,12,13
 388 450 388 450 380 298 c 1,14,15
 415 291 415 291 449 291 c 0,16,17
 510 291 510 291 527 326 c 1,18,-1
 548 323 l 1,19,20
 539 293 539 293 539 264 c 128,-1,21
 539 235 539 235 546 193 c 1,22,-1
 522 189 l 1,23,24
 511 219 511 219 506 251 c 1,25,26
 466 255 466 255 444 255 c 128,-1,27
 422 255 422 255 380 250 c 1,28,-1
 380 220 l 2,29,30
 380 141 380 141 402.5 99.5 c 128,-1,31
 425 58 425 58 489 58 c 128,-1,32
 553 58 553 58 609 114 c 1,33,-1
 620 104 l 1,34,35
 552 16 552 16 472 -12 c 1,36,37
 303 -12 303 -12 303 188 c 0,38,39
 303 194 303 194 303 200 c 2,40,-1
 304 250 l 1,41,42
 276 255 276 255 242 255 c 128,-1,43
 208 255 208 255 187 250 c 1,44,-1
 178 218 l 2,45,46
 148 110 148 110 148 69.5 c 128,-1,47
 148 29 148 29 178 12 c 1,48,-1
 174 -5 l 1,49,50
 151 0 151 0 88 0 c 128,-1,51
 25 0 25 0 -12 -8 c 1,52,-1
 -16 18 l 1,53,54
 8 27 8 27 50 34 c 1,55,-1
 208 490 l 1,56,57
 161 498 161 498 134 506 c 1,58,-1
 137 532 l 1,0,1
202 296 m 1,59,60
 221 291 221 291 253 291 c 128,-1,61
 285 291 285 291 305 297 c 1,62,63
 307 337 307 337 310.5 384 c 128,-1,64
 314 431 314 431 314 450 c 128,-1,65
 314 469 314 469 312 482 c 1,66,67
 300 485 300 485 286 485 c 128,-1,68
 272 485 272 485 259 482 c 1,69,-1
 202 296 l 1,59,60
EndSplineSet
EndChar

StartChar: ccedilla
Encoding: 231 231 168
Width: 387
GlyphClass: 2
Flags: W
LayerCount: 2
Fore
SplineSet
269 58 m 0,0,1
 227 58 227 58 198 74 c 1,2,3
 131 114 131 114 131 271 c 0,4,5
 131 372 131 372 170 443 c 1,6,7
 204 471 204 471 256 471 c 128,-1,8
 308 471 308 471 346 452 c 1,9,10
 346 416 346 416 354 382 c 1,11,-1
 379 382 l 1,12,13
 385 444 385 444 404 489 c 1,14,15
 421 496 421 496 440 496 c 1,16,-1
 441 518 l 1,17,18
 349 533 349 533 276 533 c 1,19,20
 175 504 175 504 110 412 c 128,-1,21
 45 320 45 320 45 215.5 c 128,-1,22
 45 111 45 111 100 49.5 c 128,-1,23
 155 -12 155 -12 252 -12 c 1,24,25
 346 20 346 20 413 105 c 1,26,-1
 399 119 l 1,27,28
 338 58 338 58 269 58 c 0,0,1
234 -178 m 0,29,30
 252 -178 252 -178 260 -173 c 1,31,32
 269 -160 269 -160 269 -142 c 0,33,34
 269 -97 269 -97 186 -97 c 1,35,-1
 180 -93 l 1,36,-1
 218 14 l 1,37,-1
 247 16 l 1,38,-1
 223 -46 l 1,39,-1
 227 -49 l 1,40,41
 273 -49 273 -49 301.5 -70 c 128,-1,42
 330 -91 330 -91 330 -133 c 1,43,44
 316 -160 316 -160 289.5 -182.5 c 128,-1,45
 263 -205 263 -205 234 -215 c 1,46,47
 190 -215 190 -215 146 -194 c 1,48,49
 156 -175 156 -175 162 -155 c 1,50,-1
 166 -153 l 1,51,52
 198 -178 198 -178 234 -178 c 0,29,30
EndSplineSet
EndChar

StartChar: egrave
Encoding: 232 232 169
Width: 448
GlyphClass: 2
Flags: W
LayerCount: 2
Fore
SplineSet
164 108 m 128,-1,1
 194 58 194 58 266 58 c 128,-1,2
 338 58 338 58 399 119 c 1,3,-1
 413 105 l 1,4,5
 346 20 346 20 252 -12 c 1,6,7
 155 -12 155 -12 100 49.5 c 128,-1,8
 45 111 45 111 45 215.5 c 128,-1,9
 45 320 45 320 110 412 c 128,-1,10
 175 504 175 504 276 533 c 1,11,12
 349 533 349 533 441 518 c 1,13,-1
 440 496 l 1,14,15
 421 496 421 496 404 489 c 1,16,17
 385 444 385 444 379 382 c 1,18,-1
 354 382 l 1,19,20
 346 416 346 416 346 452 c 1,21,22
 308 471 308 471 256 471 c 128,-1,23
 204 471 204 471 170 443 c 1,24,25
 136 381 136 381 131 295 c 1,26,27
 173 288 173 288 221 288 c 0,28,29
 304 288 304 288 321 323 c 1,30,-1
 342 320 l 1,31,32
 333 290 333 290 333 261 c 128,-1,33
 333 232 333 232 340 190 c 1,34,-1
 316 186 l 1,35,36
 305 216 305 216 300 248 c 1,37,38
 260 252 260 252 220.5 252 c 128,-1,39
 181 252 181 252 131 247 c 1,40,0
 134 158 134 158 164 108 c 128,-1,1
144 726 m 1,41,42
 154 728 154 728 165.5 728 c 128,-1,43
 177 728 177 728 187 727 c 1,44,45
 211 685 211 685 246.5 643 c 128,-1,46
 282 601 282 601 319 576 c 1,47,-1
 308 558 l 1,48,-1
 119 667 l 1,49,50
 120 677 120 677 128.5 697.5 c 128,-1,51
 137 718 137 718 144 726 c 1,41,42
EndSplineSet
EndChar

StartChar: eacute
Encoding: 233 233 170
Width: 448
GlyphClass: 2
Flags: W
LayerCount: 2
Fore
SplineSet
347 727 m 1,0,1
 357 728 357 728 368.5 728 c 128,-1,2
 380 728 380 728 390 726 c 1,3,4
 397 718 397 718 405.5 697.5 c 128,-1,5
 414 677 414 677 415 667 c 1,6,-1
 226 558 l 1,7,-1
 215 576 l 1,8,9
 252 601 252 601 287.5 643 c 128,-1,10
 323 685 323 685 347 727 c 1,0,1
164 108 m 128,-1,12
 194 58 194 58 266 58 c 128,-1,13
 338 58 338 58 399 119 c 1,14,-1
 413 105 l 1,15,16
 346 20 346 20 252 -12 c 1,17,18
 155 -12 155 -12 100 49.5 c 128,-1,19
 45 111 45 111 45 215.5 c 128,-1,20
 45 320 45 320 110 412 c 128,-1,21
 175 504 175 504 276 533 c 1,22,23
 349 533 349 533 441 518 c 1,24,-1
 440 496 l 1,25,26
 421 496 421 496 404 489 c 1,27,28
 385 444 385 444 379 382 c 1,29,-1
 354 382 l 1,30,31
 346 416 346 416 346 452 c 1,32,33
 308 471 308 471 256 471 c 128,-1,34
 204 471 204 471 170 443 c 1,35,36
 136 381 136 381 131 295 c 1,37,38
 173 288 173 288 221 288 c 0,39,40
 304 288 304 288 321 323 c 1,41,-1
 342 320 l 1,42,43
 333 290 333 290 333 261 c 128,-1,44
 333 232 333 232 340 190 c 1,45,-1
 316 186 l 1,46,47
 305 216 305 216 300 248 c 1,48,49
 260 252 260 252 220.5 252 c 128,-1,50
 181 252 181 252 131 247 c 1,51,11
 134 158 134 158 164 108 c 128,-1,12
EndSplineSet
EndChar

StartChar: ecircumflex
Encoding: 234 234 171
Width: 448
GlyphClass: 2
Flags: W
LayerCount: 2
Fore
SplineSet
164 108 m 128,-1,1
 194 58 194 58 266 58 c 128,-1,2
 338 58 338 58 399 119 c 1,3,-1
 413 105 l 1,4,5
 346 20 346 20 252 -12 c 1,6,7
 155 -12 155 -12 100 49.5 c 128,-1,8
 45 111 45 111 45 215.5 c 128,-1,9
 45 320 45 320 110 412 c 128,-1,10
 175 504 175 504 276 533 c 1,11,12
 349 533 349 533 441 518 c 1,13,-1
 440 496 l 1,14,15
 421 496 421 496 404 489 c 1,16,17
 385 444 385 444 379 382 c 1,18,-1
 354 382 l 1,19,20
 346 416 346 416 346 452 c 1,21,22
 308 471 308 471 256 471 c 128,-1,23
 204 471 204 471 170 443 c 1,24,25
 136 381 136 381 131 295 c 1,26,27
 173 288 173 288 221 288 c 0,28,29
 304 288 304 288 321 323 c 1,30,-1
 342 320 l 1,31,32
 333 290 333 290 333 261 c 128,-1,33
 333 232 333 232 340 190 c 1,34,-1
 316 186 l 1,35,36
 305 216 305 216 300 248 c 1,37,38
 260 252 260 252 220.5 252 c 128,-1,39
 181 252 181 252 131 247 c 1,40,0
 134 158 134 158 164 108 c 128,-1,1
268 644 m 1,41,-1
 134 554 l 1,42,-1
 121 571 l 1,43,44
 205 642 205 642 258 739 c 1,45,-1
 278 739 l 1,46,47
 331 642 331 642 415 571 c 1,48,-1
 402 554 l 1,49,-1
 268 644 l 1,41,-1
EndSplineSet
EndChar

StartChar: edieresis
Encoding: 235 235 172
Width: 448
GlyphClass: 2
Flags: W
LayerCount: 2
Fore
SplineSet
164 108 m 128,-1,1
 194 58 194 58 266 58 c 128,-1,2
 338 58 338 58 399 119 c 1,3,-1
 413 105 l 1,4,5
 346 20 346 20 252 -12 c 1,6,7
 155 -12 155 -12 100 49.5 c 128,-1,8
 45 111 45 111 45 215.5 c 128,-1,9
 45 320 45 320 110 412 c 128,-1,10
 175 504 175 504 276 533 c 1,11,12
 349 533 349 533 441 518 c 1,13,-1
 440 496 l 1,14,15
 421 496 421 496 404 489 c 1,16,17
 385 444 385 444 379 382 c 1,18,-1
 354 382 l 1,19,20
 346 416 346 416 346 452 c 1,21,22
 308 471 308 471 256 471 c 128,-1,23
 204 471 204 471 170 443 c 1,24,25
 136 381 136 381 131 295 c 1,26,27
 173 288 173 288 221 288 c 0,28,29
 304 288 304 288 321 323 c 1,30,-1
 342 320 l 1,31,32
 333 290 333 290 333 261 c 128,-1,33
 333 232 333 232 340 190 c 1,34,-1
 316 186 l 1,35,36
 305 216 305 216 300 248 c 1,37,38
 260 252 260 252 220.5 252 c 128,-1,39
 181 252 181 252 131 247 c 1,40,0
 134 158 134 158 164 108 c 128,-1,1
230 661 m 1,41,42
 223 648 223 648 205.5 628 c 128,-1,43
 188 608 188 608 176 600 c 1,44,45
 164 608 164 608 146.5 628 c 128,-1,46
 129 648 129 648 122 661 c 1,47,48
 128 673 128 673 145 688.5 c 128,-1,49
 162 704 162 704 176 711 c 1,50,51
 189 703 189 703 206 687.5 c 128,-1,52
 223 672 223 672 230 661 c 1,41,42
415 661 m 1,53,54
 408 648 408 648 390.5 628 c 128,-1,55
 373 608 373 608 361 600 c 1,56,57
 349 608 349 608 331.5 628 c 128,-1,58
 314 648 314 648 307 661 c 1,59,60
 313 673 313 673 330 688.5 c 128,-1,61
 347 704 347 704 361 711 c 1,62,63
 374 703 374 703 391 687.5 c 128,-1,64
 408 672 408 672 415 661 c 1,53,54
EndSplineSet
EndChar

StartChar: igrave
Encoding: 236 236 173
Width: 309
GlyphClass: 2
Flags: W
LayerCount: 2
Fore
SplineSet
200 488 m 1,0,1
 192 434 192 434 192 267 c 128,-1,2
 192 100 192 100 201 33 c 1,3,4
 246 28 246 28 284 18 c 1,5,-1
 281 -7 l 1,6,7
 229 0 229 0 164.5 0 c 128,-1,8
 100 0 100 0 49 -8 c 1,9,-1
 45 18 l 1,10,11
 73 27 73 27 108 33 c 1,12,13
 117 105 117 105 117 237 c 2,14,-1
 117 284 l 2,15,16
 117 416 117 416 107 488 c 1,17,18
 72 494 72 494 44 503 c 1,19,-1
 48 529 l 1,20,21
 99 521 99 521 163.5 521 c 128,-1,22
 228 521 228 521 280 528 c 1,23,-1
 283 503 l 1,24,25
 245 493 245 493 200 488 c 1,0,1
55 726 m 1,26,27
 65 728 65 728 76.5 728 c 128,-1,28
 88 728 88 728 98 727 c 1,29,30
 122 685 122 685 157.5 643 c 128,-1,31
 193 601 193 601 230 576 c 1,32,-1
 219 558 l 1,33,-1
 30 667 l 1,34,35
 31 677 31 677 39.5 697.5 c 128,-1,36
 48 718 48 718 55 726 c 1,26,27
EndSplineSet
EndChar

StartChar: iacute
Encoding: 237 237 174
Width: 309
GlyphClass: 2
Flags: W
LayerCount: 2
Fore
SplineSet
222 727 m 1,0,1
 232 728 232 728 243.5 728 c 128,-1,2
 255 728 255 728 265 726 c 1,3,4
 272 718 272 718 280.5 697.5 c 128,-1,5
 289 677 289 677 290 667 c 1,6,-1
 101 558 l 1,7,-1
 90 576 l 1,8,9
 127 601 127 601 162.5 643 c 128,-1,10
 198 685 198 685 222 727 c 1,0,1
200 488 m 1,11,12
 192 434 192 434 192 267 c 128,-1,13
 192 100 192 100 201 33 c 1,14,15
 246 28 246 28 284 18 c 1,16,-1
 281 -7 l 1,17,18
 229 0 229 0 164.5 0 c 128,-1,19
 100 0 100 0 49 -8 c 1,20,-1
 45 18 l 1,21,22
 73 27 73 27 108 33 c 1,23,24
 117 105 117 105 117 237 c 2,25,-1
 117 284 l 2,26,27
 117 416 117 416 107 488 c 1,28,29
 72 494 72 494 44 503 c 1,30,-1
 48 529 l 1,31,32
 99 521 99 521 163.5 521 c 128,-1,33
 228 521 228 521 280 528 c 1,34,-1
 283 503 l 1,35,36
 245 493 245 493 200 488 c 1,11,12
EndSplineSet
EndChar

StartChar: icircumflex
Encoding: 238 238 175
Width: 309
GlyphClass: 2
Flags: W
LayerCount: 2
Fore
SplineSet
200 488 m 1,0,1
 192 434 192 434 192 267 c 128,-1,2
 192 100 192 100 201 33 c 1,3,4
 246 28 246 28 284 18 c 1,5,-1
 281 -7 l 1,6,7
 229 0 229 0 164.5 0 c 128,-1,8
 100 0 100 0 49 -8 c 1,9,-1
 45 18 l 1,10,11
 73 27 73 27 108 33 c 1,12,13
 117 105 117 105 117 237 c 2,14,-1
 117 284 l 2,15,16
 117 416 117 416 107 488 c 1,17,18
 72 494 72 494 44 503 c 1,19,-1
 48 529 l 1,20,21
 99 521 99 521 163.5 521 c 128,-1,22
 228 521 228 521 280 528 c 1,23,-1
 283 503 l 1,24,25
 245 493 245 493 200 488 c 1,0,1
161 644 m 1,26,-1
 27 554 l 1,27,-1
 14 571 l 1,28,29
 98 642 98 642 151 739 c 1,30,-1
 171 739 l 1,31,32
 224 642 224 642 308 571 c 1,33,-1
 295 554 l 1,34,-1
 161 644 l 1,26,-1
EndSplineSet
EndChar

StartChar: idieresis
Encoding: 239 239 176
Width: 309
GlyphClass: 2
Flags: W
LayerCount: 2
Fore
SplineSet
130 661 m 1,0,1
 123 648 123 648 105.5 628 c 128,-1,2
 88 608 88 608 76 600 c 1,3,4
 64 608 64 608 46.5 628 c 128,-1,5
 29 648 29 648 22 661 c 1,6,7
 28 673 28 673 45 688.5 c 128,-1,8
 62 704 62 704 76 711 c 1,9,10
 89 703 89 703 106 687.5 c 128,-1,11
 123 672 123 672 130 661 c 1,0,1
301 661 m 1,12,13
 294 648 294 648 276.5 628 c 128,-1,14
 259 608 259 608 247 600 c 1,15,16
 235 608 235 608 217.5 628 c 128,-1,17
 200 648 200 648 193 661 c 1,18,19
 199 673 199 673 216 688.5 c 128,-1,20
 233 704 233 704 247 711 c 1,21,22
 260 703 260 703 277 687.5 c 128,-1,23
 294 672 294 672 301 661 c 1,12,13
200 488 m 1,24,25
 192 434 192 434 192 267 c 128,-1,26
 192 100 192 100 201 33 c 1,27,28
 246 28 246 28 284 18 c 1,29,-1
 281 -7 l 1,30,31
 229 0 229 0 164.5 0 c 128,-1,32
 100 0 100 0 49 -8 c 1,33,-1
 45 18 l 1,34,35
 73 27 73 27 108 33 c 1,36,37
 117 105 117 105 117 237 c 2,38,-1
 117 284 l 2,39,40
 117 416 117 416 107 488 c 1,41,42
 72 494 72 494 44 503 c 1,43,-1
 48 529 l 1,44,45
 99 521 99 521 163.5 521 c 128,-1,46
 228 521 228 521 280 528 c 1,47,-1
 283 503 l 1,48,49
 245 493 245 493 200 488 c 1,24,25
EndSplineSet
EndChar

StartChar: eth
Encoding: 240 240 177
Width: 539
GlyphClass: 2
Flags: W
LayerCount: 2
Fore
SplineSet
36 519 m 1,0,-1
 266 526 l 1,1,2
 380 526 380 526 441.5 472 c 128,-1,3
 503 418 503 418 503 310.5 c 128,-1,4
 503 203 503 203 435.5 110 c 128,-1,5
 368 17 368 17 268 -12 c 1,6,7
 242 -12 242 -12 200.5 -2.5 c 128,-1,8
 159 7 159 7 132 18 c 1,9,10
 121 5 121 5 112 -19 c 1,11,-1
 91 -14 l 1,12,13
 110 79 110 79 110 254 c 1,14,15
 79 253 79 253 32 246 c 1,16,-1
 29 250 l 1,17,18
 35 270 35 270 36 282 c 1,19,-1
 110 285 l 1,20,21
 109 418 109 418 101 481 c 1,22,23
 67 494 67 494 36 494 c 1,24,-1
 36 519 l 1,0,-1
329.5 472 m 128,-1,26
 297 491 297 491 258.5 491 c 128,-1,27
 220 491 220 491 192 480 c 1,28,29
 185 419 185 419 185 289 c 1,30,-1
 207 290 l 2,31,32
 271 293 271 293 291 295 c 1,33,34
 295 275 295 275 300 264 c 1,35,-1
 300 259 l 1,36,-1
 185 258 l 1,37,38
 185 129 185 129 189 75 c 1,39,40
 239 52 239 52 291.5 52 c 128,-1,41
 344 52 344 52 375 79 c 1,42,43
 413 151 413 151 413 256 c 0,44,45
 413 354 413 354 380 419 c 0,46,25
 362 453 362 453 329.5 472 c 128,-1,26
EndSplineSet
EndChar

StartChar: ntilde
Encoding: 241 241 178
Width: 623
GlyphClass: 2
Flags: W
LayerCount: 2
Fore
SplineSet
276 696 m 1,0,1
 335 665 335 665 387.5 665 c 128,-1,2
 440 665 440 665 460 689 c 1,3,-1
 478 678 l 1,4,5
 422 617 422 617 374 596 c 1,6,7
 353 596 353 596 301.5 611.5 c 128,-1,8
 250 627 250 627 229 627 c 0,9,10
 186 627 186 627 166 603 c 1,11,-1
 148 614 l 1,12,13
 204 675 204 675 276 696 c 1,0,1
284 -7 m 1,14,15
 232 0 232 0 167.5 0 c 128,-1,16
 103 0 103 0 52 -8 c 1,17,-1
 48 18 l 1,18,19
 80 28 80 28 108 33 c 1,20,21
 117 111 117 111 117 237 c 2,22,-1
 117 284 l 2,23,24
 117 418 117 418 107 490 c 1,25,26
 80 493 80 493 42 506 c 1,27,-1
 45 532 l 1,28,29
 102 521 102 521 164.5 521 c 128,-1,30
 227 521 227 521 254 528 c 1,31,-1
 256 511 l 1,32,33
 229 504 229 504 229 488 c 0,34,35
 229 476 229 476 252.5 437.5 c 128,-1,36
 276 399 276 399 298 363 c 0,37,38
 364 258 364 258 454 105 c 1,39,-1
 457 107 l 1,40,-1
 457 229 l 2,41,42
 457 363 457 363 443 430.5 c 128,-1,43
 429 498 429 498 395 509 c 1,44,-1
 397 526 l 1,45,46
 423 521 423 521 475 521 c 128,-1,47
 527 521 527 521 582 532 c 1,48,-1
 585 506 l 1,49,50
 544 493 544 493 516 490 c 1,51,52
 506 410 506 410 506 284 c 2,53,-1
 506 237 l 2,54,55
 506 85 506 85 516 31 c 1,56,57
 558 24 558 24 583 15 c 1,58,-1
 580 -11 l 1,59,60
 530 0 530 0 486 0 c 128,-1,61
 442 0 442 0 418 -4 c 1,62,63
 418 18 418 18 387.5 70 c 128,-1,64
 357 122 357 122 332 162 c 0,65,66
 251 293 251 293 173 428 c 1,67,-1
 169 426 l 1,68,-1
 169 292 l 2,69,70
 169 93 169 93 199 33 c 1,71,72
 244 28 244 28 287 18 c 1,73,-1
 284 -7 l 1,14,15
EndSplineSet
EndChar

StartChar: ograve
Encoding: 242 242 179
Width: 526
GlyphClass: 2
Flags: W
LayerCount: 2
Fore
SplineSet
103 50.5 m 128,-1,1
 42 113 42 113 42 218 c 128,-1,2
 42 323 42 323 106 415 c 128,-1,3
 170 507 170 507 273 533 c 1,4,5
 376 533 376 533 430 474.5 c 128,-1,6
 484 416 484 416 484 308 c 128,-1,7
 484 200 484 200 425.5 113 c 128,-1,8
 367 26 367 26 263 -12 c 1,9,0
 164 -12 164 -12 103 50.5 c 128,-1,1
246 472 m 0,10,11
 201 472 201 472 168 447 c 1,12,13
 127 377 127 377 127 271 c 0,14,15
 127 149 127 149 195 84 c 0,16,17
 231 49 231 49 280 49 c 128,-1,18
 329 49 329 49 359 75 c 1,19,20
 399 145 399 145 399 246 c 128,-1,21
 399 347 399 347 363 409.5 c 128,-1,22
 327 472 327 472 246 472 c 0,10,11
138 726 m 1,23,24
 148 728 148 728 159.5 728 c 128,-1,25
 171 728 171 728 181 727 c 1,26,27
 205 685 205 685 240.5 643 c 128,-1,28
 276 601 276 601 313 576 c 1,29,-1
 302 558 l 1,30,-1
 113 667 l 1,31,32
 114 677 114 677 122.5 697.5 c 128,-1,33
 131 718 131 718 138 726 c 1,23,24
EndSplineSet
EndChar

StartChar: oacute
Encoding: 243 243 180
Width: 526
GlyphClass: 2
Flags: W
LayerCount: 2
Fore
SplineSet
103 50.5 m 128,-1,1
 42 113 42 113 42 218 c 128,-1,2
 42 323 42 323 106 415 c 128,-1,3
 170 507 170 507 273 533 c 1,4,5
 376 533 376 533 430 474.5 c 128,-1,6
 484 416 484 416 484 308 c 128,-1,7
 484 200 484 200 425.5 113 c 128,-1,8
 367 26 367 26 263 -12 c 1,9,0
 164 -12 164 -12 103 50.5 c 128,-1,1
246 472 m 0,10,11
 201 472 201 472 168 447 c 1,12,13
 127 377 127 377 127 271 c 0,14,15
 127 149 127 149 195 84 c 0,16,17
 231 49 231 49 280 49 c 128,-1,18
 329 49 329 49 359 75 c 1,19,20
 399 145 399 145 399 246 c 128,-1,21
 399 347 399 347 363 409.5 c 128,-1,22
 327 472 327 472 246 472 c 0,10,11
351 727 m 1,23,24
 361 728 361 728 372.5 728 c 128,-1,25
 384 728 384 728 394 726 c 1,26,27
 401 718 401 718 409.5 697.5 c 128,-1,28
 418 677 418 677 419 667 c 1,29,-1
 230 558 l 1,30,-1
 219 576 l 1,31,32
 256 601 256 601 291.5 643 c 128,-1,33
 327 685 327 685 351 727 c 1,23,24
EndSplineSet
EndChar

StartChar: ocircumflex
Encoding: 244 244 181
Width: 526
GlyphClass: 2
Flags: W
LayerCount: 2
Fore
SplineSet
103 50.5 m 128,-1,1
 42 113 42 113 42 218 c 128,-1,2
 42 323 42 323 106 415 c 128,-1,3
 170 507 170 507 273 533 c 1,4,5
 376 533 376 533 430 474.5 c 128,-1,6
 484 416 484 416 484 308 c 128,-1,7
 484 200 484 200 425.5 113 c 128,-1,8
 367 26 367 26 263 -12 c 1,9,0
 164 -12 164 -12 103 50.5 c 128,-1,1
246 472 m 0,10,11
 201 472 201 472 168 447 c 1,12,13
 127 377 127 377 127 271 c 0,14,15
 127 149 127 149 195 84 c 0,16,17
 231 49 231 49 280 49 c 128,-1,18
 329 49 329 49 359 75 c 1,19,20
 399 145 399 145 399 246 c 128,-1,21
 399 347 399 347 363 409.5 c 128,-1,22
 327 472 327 472 246 472 c 0,10,11
266 644 m 1,23,-1
 132 554 l 1,24,-1
 119 571 l 1,25,26
 203 642 203 642 256 739 c 1,27,-1
 276 739 l 1,28,29
 329 642 329 642 413 571 c 1,30,-1
 400 554 l 1,31,-1
 266 644 l 1,23,-1
EndSplineSet
EndChar

StartChar: otilde
Encoding: 245 245 182
Width: 526
GlyphClass: 2
Flags: W
LayerCount: 2
Fore
SplineSet
103 50.5 m 128,-1,1
 42 113 42 113 42 218 c 128,-1,2
 42 323 42 323 106 415 c 128,-1,3
 170 507 170 507 273 533 c 1,4,5
 376 533 376 533 430 474.5 c 128,-1,6
 484 416 484 416 484 308 c 128,-1,7
 484 200 484 200 425.5 113 c 128,-1,8
 367 26 367 26 263 -12 c 1,9,0
 164 -12 164 -12 103 50.5 c 128,-1,1
246 472 m 0,10,11
 201 472 201 472 168 447 c 1,12,13
 127 377 127 377 127 271 c 0,14,15
 127 149 127 149 195 84 c 0,16,17
 231 49 231 49 280 49 c 128,-1,18
 329 49 329 49 359 75 c 1,19,20
 399 145 399 145 399 246 c 128,-1,21
 399 347 399 347 363 409.5 c 128,-1,22
 327 472 327 472 246 472 c 0,10,11
236 696 m 1,23,24
 295 665 295 665 347.5 665 c 128,-1,25
 400 665 400 665 420 689 c 1,26,-1
 438 678 l 1,27,28
 382 617 382 617 334 596 c 1,29,30
 313 596 313 596 261.5 611.5 c 128,-1,31
 210 627 210 627 189 627 c 0,32,33
 146 627 146 627 126 603 c 1,34,-1
 108 614 l 1,35,36
 164 675 164 675 236 696 c 1,23,24
EndSplineSet
EndChar

StartChar: odieresis
Encoding: 246 246 183
Width: 526
GlyphClass: 2
Flags: W
LayerCount: 2
Fore
SplineSet
103 50.5 m 128,-1,1
 42 113 42 113 42 218 c 128,-1,2
 42 323 42 323 106 415 c 128,-1,3
 170 507 170 507 273 533 c 1,4,5
 376 533 376 533 430 474.5 c 128,-1,6
 484 416 484 416 484 308 c 128,-1,7
 484 200 484 200 425.5 113 c 128,-1,8
 367 26 367 26 263 -12 c 1,9,0
 164 -12 164 -12 103 50.5 c 128,-1,1
246 472 m 0,10,11
 201 472 201 472 168 447 c 1,12,13
 127 377 127 377 127 271 c 0,14,15
 127 149 127 149 195 84 c 0,16,17
 231 49 231 49 280 49 c 128,-1,18
 329 49 329 49 359 75 c 1,19,20
 399 145 399 145 399 246 c 128,-1,21
 399 347 399 347 363 409.5 c 128,-1,22
 327 472 327 472 246 472 c 0,10,11
228 661 m 1,23,24
 221 648 221 648 203.5 628 c 128,-1,25
 186 608 186 608 174 600 c 1,26,27
 162 608 162 608 144.5 628 c 128,-1,28
 127 648 127 648 120 661 c 1,29,30
 126 673 126 673 143 688.5 c 128,-1,31
 160 704 160 704 174 711 c 1,32,33
 187 703 187 703 204 687.5 c 128,-1,34
 221 672 221 672 228 661 c 1,23,24
413 661 m 1,35,36
 406 648 406 648 388.5 628 c 128,-1,37
 371 608 371 608 359 600 c 1,38,39
 347 608 347 608 329.5 628 c 128,-1,40
 312 648 312 648 305 661 c 1,41,42
 311 673 311 673 328 688.5 c 128,-1,43
 345 704 345 704 359 711 c 1,44,45
 372 703 372 703 389 687.5 c 128,-1,46
 406 672 406 672 413 661 c 1,35,36
EndSplineSet
EndChar

StartChar: divide
Encoding: 247 247 184
Width: 550
GlyphClass: 2
Flags: W
LayerCount: 2
Fore
SplineSet
318 385 m 128,-1,1
 318 368 318 368 304 353.5 c 128,-1,2
 290 339 290 339 274 339 c 128,-1,3
 258 339 258 339 243.5 353.5 c 128,-1,4
 229 368 229 368 229 385 c 128,-1,5
 229 402 229 402 243.5 416 c 128,-1,6
 258 430 258 430 274 430 c 128,-1,7
 290 430 290 430 304 416 c 128,-1,0
 318 402 318 402 318 385 c 128,-1,1
318 112 m 128,-1,9
 318 95 318 95 304 80.5 c 128,-1,10
 290 66 290 66 274 66 c 128,-1,11
 258 66 258 66 243.5 80.5 c 128,-1,12
 229 95 229 95 229 111.5 c 128,-1,13
 229 128 229 128 243.5 142.5 c 128,-1,14
 258 157 258 157 274 157 c 128,-1,15
 290 157 290 157 304 143 c 128,-1,8
 318 129 318 129 318 112 c 128,-1,9
62 280 m 1,16,17
 232 271 232 271 341.5 271 c 128,-1,18
 451 271 451 271 490 274 c 1,19,-1
 496 268 l 1,20,-1
 487 222 l 1,21,-1
 61 222 l 1,22,-1
 53 229 l 1,23,-1
 62 280 l 1,16,17
EndSplineSet
EndChar

StartChar: oslash
Encoding: 248 248 185
Width: 526
GlyphClass: 2
Flags: W
LayerCount: 2
Fore
SplineSet
134 -87 m 1,0,-1
 129 -87 l 1,1,2
 113 -78 113 -78 103 -63 c 1,3,4
 151 44 151 44 189 143 c 2,5,-1
 284 393 l 2,6,7
 324 497 324 497 362 614 c 1,8,9
 385 616 385 616 400 621 c 1,10,-1
 404 618 l 1,11,12
 391 588 391 588 321 406 c 2,13,-1
 134 -87 l 1,0,-1
103 50.5 m 128,-1,15
 42 113 42 113 42 218 c 128,-1,16
 42 323 42 323 106 415 c 128,-1,17
 170 507 170 507 273 533 c 1,18,19
 376 533 376 533 430 474.5 c 128,-1,20
 484 416 484 416 484 308 c 128,-1,21
 484 200 484 200 425.5 113 c 128,-1,22
 367 26 367 26 263 -12 c 1,23,14
 164 -12 164 -12 103 50.5 c 128,-1,15
246 472 m 0,24,25
 201 472 201 472 168 447 c 1,26,27
 127 377 127 377 127 271 c 0,28,29
 127 149 127 149 195 84 c 0,30,31
 231 49 231 49 280 49 c 128,-1,32
 329 49 329 49 359 75 c 1,33,34
 399 145 399 145 399 246 c 128,-1,35
 399 347 399 347 363 409.5 c 128,-1,36
 327 472 327 472 246 472 c 0,24,25
EndSplineSet
EndChar

StartChar: ugrave
Encoding: 249 249 186
Width: 578
GlyphClass: 2
Flags: W
LayerCount: 2
Fore
SplineSet
461 284 m 2,0,-1
 461 237 l 2,1,2
 461 100 461 100 471 32 c 1,3,4
 517 26 517 26 547 18 c 1,5,-1
 544 -7 l 1,6,7
 495 0 495 0 443.5 0 c 128,-1,8
 392 0 392 0 373 -3 c 1,9,-1
 369 10 l 1,10,11
 378 20 378 20 381 67 c 1,12,13
 329 13 329 13 261 -12 c 1,14,15
 89 -12 89 -12 89 193 c 0,16,17
 89 238 89 238 96 337 c 128,-1,18
 103 436 103 436 103 453 c 128,-1,19
 103 470 103 470 97 486 c 1,20,-1
 97 487 l 1,21,22
 55 494 55 494 30 502 c 1,23,-1
 34 529 l 1,24,25
 92 521 92 521 139 521 c 128,-1,26
 186 521 186 521 216 526 c 1,27,-1
 220 509 l 1,28,29
 184 490 184 490 178 440 c 0,30,31
 166 344 166 344 166 243 c 128,-1,32
 166 142 166 142 189.5 99.5 c 128,-1,33
 213 57 213 57 277.5 57 c 128,-1,34
 342 57 342 57 382 94 c 1,35,36
 386 174 386 174 386 283 c 128,-1,37
 386 392 386 392 378 488 c 1,38,39
 333 493 333 493 295 503 c 1,40,-1
 298 528 l 1,41,42
 350 521 350 521 414.5 521 c 128,-1,43
 479 521 479 521 530 529 c 1,44,-1
 534 503 l 1,45,46
 506 494 506 494 471 488 c 1,47,48
 461 421 461 421 461 284 c 2,0,-1
157 726 m 1,49,50
 167 728 167 728 178.5 728 c 128,-1,51
 190 728 190 728 200 727 c 1,52,53
 224 685 224 685 259.5 643 c 128,-1,54
 295 601 295 601 332 576 c 1,55,-1
 321 558 l 1,56,-1
 132 667 l 1,57,58
 133 677 133 677 141.5 697.5 c 128,-1,59
 150 718 150 718 157 726 c 1,49,50
EndSplineSet
EndChar

